/* XPM */
static char *result[] = {
/* columns rows colors chars-per-pixel */
"64 64 79 1 ",
"  c #0E061A",
". c #0F061A",
"X c #0E071A",
"o c #0F071A",
"O c #0E061B",
"+ c #0F061B",
"@ c #0E071B",
"# c #0F071B",
"$ c #223640",
"% c #233640",
"& c #223740",
"* c #233740",
"= c #223641",
"- c #233641",
"; c #223741",
": c #233741",
"> c #8C0402",
", c #8D0402",
"< c #8C0502",
"1 c #8D0502",
"2 c #8C0403",
"3 c #8D0403",
"4 c #8C0503",
"5 c #8D0503",
"6 c #DA0408",
"7 c #DB0408",
"8 c #DA0508",
"9 c #DB0508",
"0 c #DA0409",
"q c #DB0409",
"w c #DA0509",
"e c #DB0509",
"r c #EC1C24",
"t c #ED1C24",
"y c #EC1D24",
"u c #EC1C25",
"i c #ED1C25",
"p c #EC1D25",
"a c #ED1D25",
"s c #546C8E",
"d c #556C8E",
"f c #546D8E",
"g c #556D8E",
"h c #546C8F",
"j c #556C8F",
"k c #546D8F",
"l c #647292",
"z c #657292",
"x c #647392",
"c c #657392",
"v c #647293",
"b c #657293",
"n c #647393",
"m c #657393",
"M c #92A0B8",
"N c #93A0B8",
"B c #92A1B8",
"V c #93A1B8",
"C c #92A0B9",
"Z c #93A0B9",
"A c #92A1B9",
"S c #93A1B9",
"D c #C6CEDC",
"F c #C7CEDC",
"G c #C6CFDC",
"H c #C7CFDC",
"J c #C6CEDD",
"K c #C7CEDD",
"L c #C6CFDD",
"P c #C7CFDD",
"I c #FEFEFE",
"U c #FFFEFE",
"Y c #FEFFFE",
"T c #FFFFFE",
"R c #FEFEFF",
"E c #FFFEFF",
"W c #FEFFFF",
"Q c white",
"! c None",
/* pixels */
"!!!!!!!!!!!!!!!!!!!!!!!!!!!!!!!!!!!!!!!!!!!!!!!!!!!!!!!!!!!!!!!!",
"!!!!!!!!!!!!!!!!!!!!!!!!!!!!!!!!!!!!!!!!!!!!!!!!!!!!!!!!!!!!!!!!",
"!!!!!!!!!!!!!!!!!!!!!!!!!!!!!!!!!!!!!!!!!!!!!!!!!!!!!!!!!!!!!!!!",
"!!!!!!!!!!!!!!!!!!!!!!!!!!!!!!!!!!!>15169!!!!!!!!!!!!!!!!!!!!!!!",
"!!!!!!!!!!!!!!!!!!!!!!!!!!!!!!!!!!!4>5>78!!!!!!!!!!!!!!!!!!!!!!!",
"!!!!!!!!!!!!!!!!!!!!!!!!!!!!!!!!!1586qw!!!!!!!!!!!!!!!!!!!!!!!!!",
"!!!!!!!!!!!!!!!!!!!!!!!!!!!!!!!!!21706w!!!!!!!!!!!!!!!!!!!!!!!!!",
"!!!!!!!!!!!!!!!!!!!!!!!!!!!O@+@<4w8XX!!!!!!!!!!!!!!!!!!!!!!!!!!!",
"!!!!!!!!!!!!!!!!!!!!!!!!!!!Xo#.>,qe#o!!!!!!!!!!!!!!!!!!!!!!!!!!!",
"!!!!!!!!!!!!!!!!!!!!!!! .X.GKKJ25PKLK @ o!!!!!!!!!!!!!!!!!!!!!!!",
"!!!!!!!!!!!!!!!!!!!!!!!OooOFDKL1,FFJPXO@ !!!!!!!!!!!!!!!!!!!!!!!",
"!!!!!!!!!!!!!!!!!!!!!oOHDPFABMAAZANSSLGLK .!!!!!!!!!!!!!!!!!!!!!",
"!!!!!!!!!!!!!!!!!!!!!#+HGKHZMNMABAZZBKPLD.O!!!!!!!!!!!!!!!!!!!!!",
"!!!!!!!!!!!!!!!!!!!X.LGCNVBSScm  vlZCNCNVHL#o!!!!!!!!!!!!!!!!!!!",
"!!!!!!!!!!!!!!!!!!!.oKDASZSVBnvX@mcBVNNVAFK +!!!!!!!!!!!!!!!!!!!",
"!!!!!!!!!!!!!!!!!!!+#JGBSblcz@.KLX@vxczMNFLXo!!!!!!!!!!!!!!!!!!!",
"!!!!!!!!!!!!!!!!!!!@XGKMSvlmzO+KG+.xxznVSJD#o!!!!!!!!!!!!!!!!!!!",
"!!!!!!!!!!!!!!!!!@#VAAAMZ@.+ JJFKPJ# X.VAMNZS#+!!!!!!!!!!!!!!!!!",
"!!!!!!!!!!!!!!!!!XXNNMZSS#@X FHJGLHO.OOVBMVBC @!!!!!!!!!!!!!!!!!",
"!!!!!!!!!!!!!!!!!#.MCX @.PLHLVBBNASHFLD..@ CV+o!!!!!!!!!!!!!!!!!",
"!!!!!!!!!!!!!!!!! #VB#OXXPPPFASSCSZFKFP X.OSZ+.!!!!!!!!!!!!!!!!!",
"!!!!!!!!!!!!!!!!! O@OPHLPZAVN.OVVO.BZVBPDKL@oO@!!!!!!!!!!!!!!!!!",
"!!!!!!!!!!!!!!!!!##. PGHJAMBC OBS#.CSAMFKFKOo #!!!!!!!!!!!!!!!!!",
"!!!!!!!!!!!!!!!.@clNCBZMMO#BA#oSCo#MA .VSNCVMzl@#!!!!!!!!!!!!!!!",
"!!!!!!!!!!!!!!!O@mnNBCZBC..MZOXVCo.VB#oZCCASAml+#!!!!!!!!!!!!!!!",
"!!!!!!!!!!!!!!!+#lbNMO+NBoOBA#+NAO.CZ+ SB++ZMnx+.!!!!!!!!!!!!!!!",
"!!!!!!!!!!!!!!!X#zzCMOoCMX@MNX#ABO@SC##SN. SAnno.!!!!!!!!!!!!!!!",
"!!!!!!!!!!!!!!! .xnvbOozz.OxmX@mm#.vx#+lzXXmzlv@O!!!!!!!!!!!!!!!",
"!!!!!!!!!!!!!!!oXmnzzOOlmO#bm.@nb@ vb#@xm#.vcvcoX!!!!!!!!!!!!!!!",
"!!!!!!!!!!!!!!!!!@OlxxvzzmvxcxmlxlvvcmblmbzxzX.!!!!!!!!!!!!!!!!!",
"!!!!!!!!!!!!!!!!!O xnnmzmxcccxcmxlmbbnvxbcmbm o!!!!!!!!!!!!!!!!!",
"!!!!!!!!!!!!!!!!!+ #+@oOO @@X..@ #@.@+#@  +.#o# @XO. !!!!!!!!!!!",
"!!!!!!!!!!!!!!!!! Xo+..#XX++o@.#X.@oX#+O + #O#+#.XXO.!!!!!!!!!!!",
"!!!!!!!!!!!!!!! @DHLPXX# KPFHGDFDPD+#RUTUYQUYWQYYWYHFX !!!!!!!!!",
"!!!!!!!!!!!!!!! XGGPK#@@#JPHKKDKPGG#+RIUYURUEYWRYRUDFoo!!!!!!!!!",
"!!!!!!!!!!!!!+XHKBCAAO+ml#X+@ooXoOoo EI-$zczlmlzn*$DKo@!!!!!!!!!",
"!!!!!!!!!!!!!oXFHSMAS#.xvX#.O.@+@X@@@WT$;zcmxnmlm*$GH# !!!!!!!!!",
"!!!!!!!!!!!!!<1+X@oO##@xcABMZSM##SZ.OUW=;;-mxnl;%$=HP.#!!!!!!!!!",
"!!!!!!!!!!!!!53@.O@o#XobvCNNVVZ+#VV@XWT*;$&lnzc:$=-KDXO!!!!!!!!!",
"!!!!!!!!!!!!!<1+OnvzxXOxzznBNbn#.mb++IQss-:llxc;:gsKH#@!!!!!!!!!",
"!!!!!!!!!!!!!11##lzmnX@znmbCVcmX+nl@OUIfk-;xvzn==shGJX.!!!!!!!!!",
"!!!!!!!!!!!5289 .@. o#@@+vxcvo nnOOO@TTkfsfblbbhkfjDD@X!!!!!!!!!",
"!!!!!!!!!!!,<86oX#X#OX+o xlzl#+bz@@..YQgdskznmnkjggKG@X!!!!!!!!!",
"!!!!!!!!!!!>2.OHPMScboo4<+o@o #O.@#@oTIffssczbvksfdHFO+!!!!!!!!!",
"!!!!!!!!!!!<3@OHJCVcl #21OO.XoX#+X.o FDsggfbzblkdfkJHXO!!!!!!!!!",
"!!!!!!!!!3,98X+CMBVlz.@O@070ww0iptt.@DDfs::xnzn*%ksLL@@!!!!!!!!!",
"!!!!!!!!!5>7q@#SMMScz .++78w7q6iautX.DDff&*lcnz$=gjDP O!!!!!!!!!",
"!!!!!!!!!21wq@Xzxbmnm.@SA+O+oOO@ +++OLF*-%:lnml::=&FK..!!!!!!!!!",
"!!!!!!!!!13e8@@lzxmxm+XBBO+@#. OXO @@KF&*;;lmxx$:&*PH@.!!!!!!!!!",
"!!!!!!!!!310qtr@ .oXX.@o ABANGJGKFJ##DG:%ccvnlnml%-LF#+!!!!!!!!!",
"!!!!!!!!!<1e0tt+ .X+O.OX.ZVZNJPLHFPO.FH*=vxmzzzxc:&PH.@!!!!!!!!!",
"!!!!!!!!!2>q9uuttttrr@ MC o.+O@@++.zxXOFK;%=&*-:$HF@@,1!!!!!!!!!",
"!!!!!!!!!<>90pptttttt#XMM#oX  oX#.@bb@XDP%;:*:*%%DK +33!!!!!!!!!",
"!!!!!!!!!<>89paaapiry++CSbmvco@weO xnnn .FDDKFLHHX@qe>>!!!!!!!!!",
"!!!!!!!!!41w6ryuuptpu@ CMnlxv#@weo.mncbOOFLFGGFPD..67>,!!!!!!!!!",
"!!!!!!!!!>5766666066606X@@O#X. 76..#+XOXo@@AAZAX 7676<3!!!!!!!!!",
"!!!!!!!!!>>067660968680.+oO+@XX08 +OX@..##OBNCM+.q07633!!!!!!!!!",
"!!!!!!!!!43>522,>1>OOO@#OFDFD##<,#XJHHPo+  @ ++>>>,>>>2!!!!!!!!!",
"!!!!!!!!!>>1>4,2<43#X.o XLJFP .>,X.PKJG.#O . + >,><,42>!!!!!!!!!",
"!!!!!!!!!!!!!!!!!!!o AN+oAMzm+ !! @nlSVo#MM#O!!!!!!!!!!!!!!!!!!!",
"!!!!!!!!!!!!!!!!!!!+ONCX+NMcb+o!!O@lvBM#oVM+O!!!!!!!!!!!!!!!!!!!",
"!!!!!!!!!!!!!!!!!.oOOo+o#.. O +!!X. .o.X@o.O#oO!!!!!!!!!!!!!!!!!",
"!!!!!!!!!!!!!!!!!@#O#+.o@X.O+@@!!..##O .XXO@Oo !!!!!!!!!!!!!!!!!",
"!!!!!!!!!!!!!!!!!!!!!!!!!!!!!!!!!!!!!!!!!!!!!!!!!!!!!!!!!!!!!!!!"
};
