/* XPM */
static char *result[] = {
/* columns rows colors chars-per-pixel */
"64 64 78 1 ",
"  c #0E061A",
". c #0F061A",
"X c #0E071A",
"o c #0F071A",
"O c #0E061B",
"+ c #0F061B",
"@ c #0E071B",
"# c #0F071B",
"$ c #223640",
"% c #233640",
"& c #223740",
"* c #233740",
"= c #223641",
"- c #233641",
"; c #223741",
": c #233741",
"> c #8C0402",
", c #8D0402",
"< c #8C0502",
"1 c #8D0502",
"2 c #8C0403",
"3 c #8D0403",
"4 c #8C0503",
"5 c #8D0503",
"6 c #DA0408",
"7 c #DB0408",
"8 c #DA0508",
"9 c #DB0508",
"0 c #DA0409",
"q c #DB0409",
"w c #DA0509",
"e c #DB0509",
"r c #EC1C24",
"t c #ED1C24",
"y c #EC1D24",
"u c #ED1D24",
"i c #EC1C25",
"p c #546C8E",
"a c #556C8E",
"s c #546D8E",
"d c #556D8E",
"f c #546C8F",
"g c #556C8F",
"h c #546D8F",
"j c #556D8F",
"k c #647292",
"l c #657292",
"z c #647392",
"x c #657392",
"c c #647293",
"v c #657293",
"b c #647393",
"n c #657393",
"m c #92A0B8",
"M c #93A0B8",
"N c #92A1B8",
"B c #93A1B8",
"V c #92A0B9",
"C c #93A0B9",
"Z c #92A1B9",
"A c #93A1B9",
"S c #C6CEDC",
"D c #C7CEDC",
"F c #C6CFDC",
"G c #C7CFDC",
"H c #C6CEDD",
"J c #C7CEDD",
"K c #C6CFDD",
"L c #C7CFDD",
"P c #FEFEFE",
"I c #FFFEFE",
"U c #FEFFFE",
"Y c #FFFFFE",
"T c #FEFEFF",
"R c #FFFEFF",
"E c #FEFFFF",
"W c white",
"Q c None",
/* pixels */
"QQQQQQQQQQQQQQQQQQQQQQQQQQQQQQQQQQQQQQQQQQQQQQQQQQQQQQQQQQQQQQQQ",
"QQQQQQQQQQQQQQQQQQQQQQQQQQQQQQQQQQQ,42269QQQQQQQQQQQQQQQQQQQQQQQ",
"QQQQQQQQQQQQQQQQQQQQQQQQQQQQQQQQQQQ<2,,qwQQQQQQQQQQQQQQQQQQQQQQQ",
"QQQQQQQQQQQQQQQQQQQQQQQQQQQQQQQQQ5460e0QQQQQQQQQQQQQQQQQQQQQQQQQ",
"QQQQQQQQQQQQQQQQQQQQQQQQQQQQQQQQQ<1q009QQQQQQQQQQQQQQQQQQQQQQQQQ",
"QQQQQQQQQQQQQQQQQQQQQQQQQQQ O@@<,w8XXQQQQQQQQQQQQQQQQQQQQQQQQQQQ",
"QQQQQQQQQQQQQQQQQQQQQQQQQQQO.+O,37w.#QQQQQQQQQQQQQQQQQQQQQQQQQQQ",
"QQQQQQQQQQQQQQQQQQQQQQQ. ++SJDH21GKKH @  QQQQQQQQQQQQQQQQQQQQQQQ",
"QQQQQQQQQQQQQQQQQQQQQQQX.. FGDF5,DSLF@#+@QQQQQQQQQQQQQQQQQQQQQQQ",
"QQQQQQQQQQQQQQQQQQQQQ##FHLKNBNAZCNABMKGKH+oQQQQQQQQQQQQQQQQQQQQQ",
"QQQQQQQQQQQQQQQQQQQQQOXKJHKVZNmMmCMAmSGKG. QQQQQQQQQQQQQQQQQQQQQ",
"QQQQQQQQQQQQQQQQQQQ.+GSmmNmVmbn.XnkBCNMCVGKX.QQQQQQQQQQQQQQQQQQQ",
"QQQQQQQQQQQQQQQQQQQOoKSMNMVNZlx@ lbAZMNBMFK.+QQQQQQQQQQQQQQQQQQQ",
"QQQQQQQQQQQQQQQQQQQ@+GSVAxcvk #SF #vbvcmCDL.XQQQQQQQQQQQQQQQQQQQ",
"QQQQQQQQQQQQQQQQQQQ#@HJVNkzxk@@JG.XbzlkNZHF+ QQQQQQQQQQQQQQQQQQQ",
"QQQQQQQQQQQQQQQQQ@XZAAANmO@+XHDSGFD+ X+NCZMBAoOQQQQQQQQQQQQQQQQQ",
"QQQQQQQQQQQQQQQQQ+oNmACZB+++ KDSFLL +.@CMMNMZO@QQQQQQQQQQQQQQQQQ",
"QQQQQQQQQQQQQQQQQ##VBX...HLGGMANBAMHSKSOO.OVZo.QQQQQQQQQQQQQQQQQ",
"QQQQQQQQQQQQQQQQQ.+AZOXOXKSLGAVZZZmSDJF @oXAZ.oQQQQQQQQQQQQQQQQQ",
"QQQQQQQQQQQQQQQQQo#++HHLJCCABOXZNoXNCNmKKGL+X++QQQQQQQQQQQQQQQQQ",
"QQQQQQQQQQQQQQQQQ+...HKSGBmNm.OVA#@NAZmGDJK@X@@QQQQQQQQQQQQQQQQQ",
"QQQQQQQQQQQQQQQO.nxVNNZVCO@NV# VAo@MBo#mZMVBAcloXQQQQQQQQQQQQQQQ",
"QQQQQQQQQQQQQQQOObbMNVCAM+ ZCXoBA#+MN+#MVBMmBvx+@QQQQQQQQQQQQQQQ",
"QQQQQQQQQQQQQQQo klMMO+mCO#ZZ#+CZ oNB@ AV.#VNczoOQQQQQQQQQQQQQQQ",
"QQQQQQQQQQQQQQQX@vxCV XmM+@CmoONB..AM oNV#+ACvz+oQQQQQQQQQQQQQQQ",
"QQQQQQQQQQQQQQQ+.kllxOolz.#bb@ lk.Xzx@@vv.@xkxb.OQQQQQQQQQQQQQQQ",
"QQQQQQQQQQQQQQQ#XvbvnoOkv#+kx.@bk OcnO zko#lvnx#XQQQQQQQQQQQQQQQ",
"QQQQQQQQQQQQQQQQQ  nlxbnvvvbnxxkcbvcnvnklbxkx @QQQQQQQQQQQQQQQQQ",
"QQQQQQQQQQQQQQQQQO@zblbkkklbcbnvxnxvkxcckxcvv..QQQQQQQQQQQQQQQQQ",
"QQQQQQQQQQQQQQQQQ@@.#++.# oo# .ooooX+X#oO#+.# .QQQQQQQQQQQQQQQQQ",
"QQQQQQQQQQQQQQQQQOXoO O#.# OXX oo +  +#o Oo@O oQQQQQQQQQQQQQQQQQ",
"QQQQQQQQQQQQQQQ+.LDSLO+#XLLFLSHGJJFHGHH+#+#SHJH##QQQQQQQQQQQQQQQ",
"QQQQQQQQQQQQQQQ #FDKS..XoSSDKLSGJHDJHLH#@#@HHHH##QQQQQQQQQQQQQQQ",
"QQQQQQQQQQQQQ.oGSmVmm#.nlO@+.o+XXoo.#oo+#.Oo@.@#@# XOQQQQQQQQQQQ",
"QQQQQQQQQQQQQ @LFBNMA.+nkO# X@+O+@X#  XOO+.+@  X#o #+QQQQQQQQQQQ",
"QQQQQQQQQQQQQ5> ++o+@#@bnBMZMZN+oZA##PIYYPPIUTWIEEWSS +QQQQQQQQQ",
"QQQQQQQQQQQQQ2>oXoX##o#vbmMVNmM#.BBO#TPWTWEYTRUTITISDo@QQQQQQQQQ",
"QQQQQQQQQQQQQ5>#+FJSH .kkzcBZvc+@vnX#RP;$xvnkkznn$=KSXoQQQQQQQQQ",
"QQQQQQQQQQQQQ3,+oHHDS#+xvnvCmlb..kvX@RR*-lxbbzccc-*LG#XQQQQQQQQQ",
"QQQQQQQQQQQ4<we+#BBABX.oOkklk.Ozn#@O.WP-*;-ncnv$=%:GGooQQQQQQQQQ",
"QQQQQQQQQQQ23wq .NCmM@ oOlvln.#cnoO@@UY&=$;lbln&*-=FS#OQQQQQQQQQ",
"QQQQQQQQQQQ<28w@#zcvvo@,4XXO@@#+o@O@.TWda**zzll$*hsDJOOQQQQQQQQQ",
"QQQQQQQQQQQ2<6qXObcbx@X<2 OoOOo##Oo+.IRap&*lznl-=dfKJ+.QQQQQQQQQ",
"QQQQQQQQQ5,690qOooO OX.#X06qq67ryiiOOYWdfgslxkbgdagJKOXQQQQQQQQQ",
"QQQQQQQQQ2,97qw#.++XXO@..689qeqrurro WTjfdhkcxchssdJG.oQQQQQQQQQ",
"QQQQQQQQQ5499O@HLCZnlo#mm+++.@ O++#+ TYspssknxlgsdhHG# QQQQQQQQQ",
"QQQQQQQQQ1>8qo@KHZmvk+#ZCO#XO.@OX@ ++SHfhdjxvkzfhfgSG  QQQQQQQQQ",
"QQQQQQQQQ,1qq. CMZmkcoO. AmNNDKJDLDX#GFds:*kxkx*-djDS# QQQQQQQQQ",
"QQQQQQQQQ44eqXoCBNVzcOX#.mMCZGFHGSS .FShh$*xvcv%;jgKLO#QQQQQQQQQ",
"QQQQQQQQQ>307X lnnxnlX+mm.@X@@@@O.XX#SH&*&;nvbc-&*%GS..QQQQQQQQQ",
"QQQQQQQQQ1376oovkxbcl#.BM @@ #.X#+XOXDD-;%%vnbk*-%-KGX.QQQQQQQQQ",
"QQQQQQQQQ5,89tyOX@@@+#OCCkbzzXO07#+oOSL&$kvznklxk*;LJ.+QQQQQQQQQ",
"QQQQQQQQQ4<06tyX@.+XXo CBlkbk+Xq8.@#oKJ=:bxbcklnx=$FD+@QQQQQQQQQ",
"QQQQQQQQQ<40978wqe0qeo cxlzkvo.69 @kc@.GS:$$%%:**HL+X>2QQQQQQQQQ",
"QQQQQQQQQ>106w760q7q6@Xnbvxkco e0..nzXXHG:%:-&:-=HD @<3QQQQQQQQQ",
"QQQQQQQQQ14,42>353424,1+@O+O X@34OO#.+@. JJHDSFFG+O>,2<QQQQQQQQQ",
"QQQQQQQQQ,222>,,>,>,5<<o.+XO+@X1<X# X++O JLSHHFLF+o>>,,QQQQQQQQQ",
"QQQQQQQQQQQQQQQQQQQ O+o  JSKKo.QQoXSHHS.O. BNmZ +QQQQQQQQQQQQQQQ",
"QQQQQQQQQQQQQQQQQQQ@XX...JJJJ+.QQ+#KHHJ o#XmNMN@OQQQQQQQQQQQQQQQ",
"QQQQQQQQQQQQQQQQQQQXOVB@ ZCxxO QQ.XkcVN .MVOO+#QQQQQQQQQQQQQQQQQ",
"QQQQQQQQQQQQQQQQQQQ. mV +Vmlk#@QQ# cvBC#.MVo@.+QQQQQQQQQQQQQQQQQ",
"QQQQQQQQQQQQQQQQQoo XX#+#o+X+o+QQX#+ o@X  ..+  QQQQQQQQQQQQQQQQQ",
"QQQQQQQQQQQQQQQQQ@+O.O.o@#XX@# QQ.O@o+ ..o @o.oQQQQQQQQQQQQQQQQQ",
"QQQQQQQQQQQQQQQQQQQQQQQQQQQQQQQQQQQQQQQQQQQQQQQQQQQQQQQQQQQQQQQQ"
};
