/* XPM */
static char *result[] = {
/* columns rows colors chars-per-pixel */
"64 64 81 1 ",
"  c #0E061A",
". c #0F061A",
"X c #0E071A",
"o c #0F071A",
"O c #0E061B",
"+ c #0F061B",
"@ c #0E071B",
"# c #0F071B",
"$ c #223640",
"% c #233640",
"& c #223740",
"* c #233740",
"= c #223641",
"- c #233641",
"; c #223741",
": c #233741",
"> c #8C0402",
", c #8D0402",
"< c #8C0502",
"1 c #8D0502",
"2 c #8C0403",
"3 c #8D0403",
"4 c #8C0503",
"5 c #8D0503",
"6 c #DA0408",
"7 c #DB0408",
"8 c #DA0508",
"9 c #DB0508",
"0 c #DA0409",
"q c #DB0409",
"w c #DA0509",
"e c #DB0509",
"r c #EC1C24",
"t c #ED1C24",
"y c #EC1D24",
"u c #ED1D24",
"i c #EC1C25",
"p c #ED1C25",
"a c #EC1D25",
"s c #ED1D25",
"d c #546C8E",
"f c #556C8E",
"g c #546D8E",
"h c #556D8E",
"j c #546C8F",
"k c #556C8F",
"l c #546D8F",
"z c #556D8F",
"x c #647292",
"c c #657292",
"v c #647392",
"b c #657392",
"n c #647293",
"m c #657293",
"M c #647393",
"N c #657393",
"B c #92A0B8",
"V c #93A0B8",
"C c #92A1B8",
"Z c #93A1B8",
"A c #92A0B9",
"S c #93A0B9",
"D c #92A1B9",
"F c #93A1B9",
"G c #C6CEDC",
"H c #C7CEDC",
"J c #C6CFDC",
"K c #C7CFDC",
"L c #C6CEDD",
"P c #C7CEDD",
"I c #C6CFDD",
"U c #C7CFDD",
"Y c #FEFEFE",
"T c #FFFEFE",
"R c #FEFFFE",
"E c #FFFFFE",
"W c #FEFEFF",
"Q c #FFFEFF",
"! c #FEFFFF",
"~ c white",
"^ c None",
/* pixels */
"^^^^^^^^^^^^^^^^^^^^^^^^^^^^^^^^^^^^^^^^^^^^^^^^^^^^^^^^^^^^^^^^",
"^^^^^^^^^^^^^^^^^^^^^^^^^^^^^^^^^^^^^^^^^^^^^^^^^^^^^^^^^^^^^^^^",
"^^^^^^^^^^^^^^^^^^^^^^^^^^^^^^^^^^^^^^^^^^^^^^^^^^^^^^^^^^^^^^^^",
"^^^^^^^^^^^^^^^^^^^^^^^^^^^^^^^^^^^<1118w^^^^^^^^^^^^^^^^^^^^^^^",
"^^^^^^^^^^^^^^^^^^^^^^^^^^^^^^^^^^^2>5<0w^^^^^^^^^^^^^^^^^^^^^^^",
"^^^^^^^^^^^^^^^^^^^^^^^^^^^^^^^^^,580e9^^^^^^^^^^^^^^^^^^^^^^^^^",
"^^^^^^^^^^^^^^^^^^^^^^^^^^^^^^^^^3>709w^^^^^^^^^^^^^^^^^^^^^^^^^",
"^^^^^^^^^^^^^^^^^^^^^^^^^^^O.+@><q6Xo^^^^^^^^^^^^^^^^^^^^^^^^^^^",
"^^^^^^^^^^^^^^^^^^^^^^^^^^^Oo# >>eq#.^^^^^^^^^^^^^^^^^^^^^^^^^^^",
"^^^^^^^^^^^^^^^^^^^^^^^ .#.JHUP44IPIP # #^^^^^^^^^^^^^^^^^^^^^^^",
"^^^^^^^^^^^^^^^^^^^^^^^++@@KGII,1HGJPo+ @^^^^^^^^^^^^^^^^^^^^^^^",
"^^^^^^^^^^^^^^^^^^^^^XOKGUKDCBACBFBDSLJUP o^^^^^^^^^^^^^^^^^^^^^",
"^^^^^^^^^^^^^^^^^^^^^++UKIKVCACCCVSSCHPUG.X^^^^^^^^^^^^^^^^^^^^^",
"^^^^^^^^^^^^^^^^^^^. IJAVZBFFnN .MnDAAAVCKPoo^^^^^^^^^^^^^^^^^^^",
"^^^^^^^^^^^^^^^^^^^.oLHBFSFZCnc.oNmZBCVVVHH.+^^^^^^^^^^^^^^^^^^^",
"^^^^^^^^^^^^^^^^^^^#oGJCSNcbn@oPUOXmbmcAVJJ  ^^^^^^^^^^^^^^^^^^^",
"^^^^^^^^^^^^^^^^^^^  JKSSncNMO.PUOONvcxFFGLo.^^^^^^^^^^^^^^^^^^^",
"^^^^^^^^^^^^^^^^^#+BDCFAAo + GLPLUH+O +FDCZAF#+^^^^^^^^^^^^^^^^^",
"^^^^^^^^^^^^^^^^^@XZVZSAFo@XXGKLJLH#.  BCZBCAo#^^^^^^^^^^^^^^^^^",
"^^^^^^^^^^^^^^^^^o@BC .+#KIUUFSZVBFHHGHX+XOCV++^^^^^^^^^^^^^^^^^",
"^^^^^^^^^^^^^^^^^.OSZ Oo+UUKKDFSAFSHHGPoXXODA+o^^^^^^^^^^^^^^^^^",
"^^^^^^^^^^^^^^^^^ X# GHIUSCCFXOFZ##ZSZCIIHPOX@@^^^^^^^^^^^^^^^^^",
"^^^^^^^^^^^^^^^^^o+o.PUJLZCCS  CV#.FZDDPPHP+o.#^^^^^^^^^^^^^^^^^",
"^^^^^^^^^^^^^^^ omxBACSAZ #BA@oCSo+BFO FVVBZAbxO@^^^^^^^^^^^^^^^",
"^^^^^^^^^^^^^^^  NNBCBDCSooCS XZDO.ZC@oVSSADDnx.#^^^^^^^^^^^^^^^",
"^^^^^^^^^^^^^^^@+xmABX#VAX#SA#OVF+.AS@OBB .BVMv+O^^^^^^^^^^^^^^^",
"^^^^^^^^^^^^^^^o.mNSC .AVXXCV@ODVX@FD+#FS.XFBNMoO^^^^^^^^^^^^^^^",
"^^^^^^^^^^^^^^^o.bNnnXocx.@vbo@mN# xv# xbO.Mbnm@O^^^^^^^^^^^^^^^",
"^^^^^^^^^^^^^^^o.bMxb@@xN Xcm+@vn+ nN+XbM+XNMcb.X^^^^^^^^^^^^^^^",
"^^^^^^^^^^^^^^^^^X+xvvnxcNxvMMMcvxnnxMNcNnmnc .^^^^^^^^^^^^^^^^^",
"^^^^^^^^^^^^^^^^^X@bbnNcMvxbmMxMcMmnbvnbcNnmM o^^^^^^^^^^^^^^^^^",
"^^^^^^^^^^^^^^^^^+O##@o.O #@X.O@O#@. .#@X +O+++^^^^^^^^^^^^^^^^^",
"^^^^^^^^^^^^^^^^^+@...o+. ++o +oo.@X #.@ +@++++^^^^^^^^^^^^^^^^^",
"^^^^^^^^^^^^^^^XOHHLIX@.OGIHPIGHLUKLL+++.O.Oo OOO+O+o^^^^^^^^^^^",
"^^^^^^^^^^^^^^^ XJJUH#o@oIUUIPLJHIULL.++#++#X#O#+.oO.^^^^^^^^^^^",
"^^^^^^^^^^^^^+ KPDSFAO+mx+X+OooXX@..OT~YW!YW~R~WYTTJI# ^^^^^^^^^",
"^^^^^^^^^^^^^XXHHDBDV+.xxX#OO @+@Xo@#WRTRT~E!Y~!WYWGLXX^^^^^^^^^",
"^^^^^^^^^^^^^2>OX@OX@.+vbCSVFSAOOAS.O!E-$bMNcNMmc:&KP.O^^^^^^^^^",
"^^^^^^^^^^^^^55@o  .#oXbxZSVZVFX@FA@@!T-:bbMxbnNv*%KG#o^^^^^^^^^",
"^^^^^^^^^^^^^4<++LLLLX+xxbvZScNXOnn#oT~$&;-bnMb&;=-GJ.@^^^^^^^^^",
"^^^^^^^^^^^^^11++PLLLX@nMNcACbm #Mx@O!T*:&;cnNc-&=%UPX ^^^^^^^^^",
"^^^^^^^^^^^42w7OXbxmv#@++MvbnO Mm@ +@WThk=&mvbc$%zlPPo#^^^^^^^^^",
"^^^^^^^^^^^5187ooMxNvX  Obxcx@.mv@#. WQld%&MNMN-:dzIK#+^^^^^^^^^",
"^^^^^^^^^^^>26w@XO.XX .5<@.Xo.O. @oOO~EfdhjMnxMlgfdJJ@ ^^^^^^^^^",
"^^^^^^^^^^^,400@.###+O@2,#  oXX O+.# !!kddjnmcxlkzjPJ#.^^^^^^^^^",
"^^^^^^^^^3188+ GIVDbc+#.@07ww9esatt.@RRfhgfbNvczggfKU.+^^^^^^^^^",
"^^^^^^^^^5267@XLUSVnNO.#+0897e0ttst.+LJkgflxccbkflkLHX+^^^^^^^^^",
"^^^^^^^^^>5wq .CVSFnm.@SDX@+XO+@XO++OUGzd-*vNbb&$gdJI. ^^^^^^^^^",
"^^^^^^^^^>378@@DVVBxbOXBBXXO#+@O@.OX#LGhl;&nvNv%*dfKKOO^^^^^^^^^",
"^^^^^^^^^2187X#MNMnxM @. DAAVILJUPH+#KG$=%&xMcM&;;=HG.#^^^^^^^^^",
"^^^^^^^^^4<ewO#ccmNmb.  .DVSDLPUJKU@OUP*&-:MNxv-%;;UG#X^^^^^^^^^",
"^^^^^^^^^32qeip  OOXX@+ZD+#++OX@#+ ##LJ-;xxnvcxxc-=LJX ^^^^^^^^^",
"^^^^^^^^^1496aaXo+o@O. AB.o   XX++XO+LP&%vvMMcxcx=&LLo+^^^^^^^^^",
"^^^^^^^^^4>w9isssipuy.+DFmbxNo@9e@XvNX@PP-$-*-:&:KP o4>^^^^^^^^^",
"^^^^^^^^^5<w0rrirauir@ ABMnvv@@7eooNvo PH*&*;&:*$JP@+,>^^^^^^^^^",
"^^^^^^^^^,5qeq760708866X@#O#o.Oe6.oX#X+@oLLUJLLHP##69<3^^^^^^^^^",
"^^^^^^^^^<<6q976ee680e0#.+++X@X68 OOX# +#LLGJKGPUX+q7>3^^^^^^^^^",
"^^^^^^^^^2,4<223<<3O@O+XOHGKPo#<,oXIKHLo+  ADZD++323>42^^^^^^^^^",
"^^^^^^^^^>5,5<,2113#Oo#.OGGHHO@2> oUKLK.+OXVBAC.o>>>>23^^^^^^^^^",
"^^^^^^^^^^^^^^^^^^^o.AZ oFCxc# ^^+XvxDCoXSB@+O@^^^^^^^^^^^^^^^^^",
"^^^^^^^^^^^^^^^^^^^o#CAXOVBMb+#^^OXmMABooSD+o+O^^^^^^^^^^^^^^^^^",
"^^^^^^^^^^^^^^^^^X.O@o+X# + X +^^O. o+oXoXO#@.+^^^^^^^^^^^^^^^^^",
"^^^^^^^^^^^^^^^^^+#++@ +@XoO#O.^^..o@@@. @Oo+o ^^^^^^^^^^^^^^^^^",
"^^^^^^^^^^^^^^^^^^^^^^^^^^^^^^^^^^^^^^^^^^^^^^^^^^^^^^^^^^^^^^^^"
};
