/* XPM */
static char *result[] = {
/* columns rows colors chars-per-pixel */
"64 64 79 1 ",
"  c #0E061A",
". c #0F061A",
"X c #0E071A",
"o c #0F071A",
"O c #0E061B",
"+ c #0F061B",
"@ c #0E071B",
"# c #0F071B",
"$ c #223640",
"% c #233640",
"& c #223740",
"* c #233740",
"= c #223641",
"- c #233641",
"; c #223741",
": c #233741",
"> c #8C0402",
", c #8D0402",
"< c #8C0502",
"1 c #8D0502",
"2 c #8C0403",
"3 c #8D0403",
"4 c #8C0503",
"5 c #8D0503",
"6 c #DA0408",
"7 c #DB0408",
"8 c #DA0508",
"9 c #DB0508",
"0 c #DA0409",
"q c #DB0409",
"w c #DA0509",
"e c #DB0509",
"r c #EC1C24",
"t c #ED1C24",
"y c #EC1D24",
"u c #ED1D24",
"i c #EC1C25",
"p c #ED1C25",
"a c #EC1D25",
"s c #ED1D25",
"d c #546C8E",
"f c #546D8E",
"g c #556D8E",
"h c #546C8F",
"j c #546D8F",
"k c #556D8F",
"l c #647292",
"z c #657292",
"x c #647392",
"c c #657392",
"v c #647293",
"b c #657293",
"n c #647393",
"m c #657393",
"M c #92A0B8",
"N c #93A0B8",
"B c #92A1B8",
"V c #93A1B8",
"C c #92A0B9",
"Z c #93A0B9",
"A c #92A1B9",
"S c #93A1B9",
"D c #C6CEDC",
"F c #C7CEDC",
"G c #C6CFDC",
"H c #C7CFDC",
"J c #C6CEDD",
"K c #C7CEDD",
"L c #C6CFDD",
"P c #C7CFDD",
"I c #FEFEFE",
"U c #FFFEFE",
"Y c #FEFFFE",
"T c #FFFFFE",
"R c #FEFEFF",
"E c #FFFEFF",
"W c #FEFFFF",
"Q c white",
"! c None",
/* pixels */
"!!!!!!!!!!!!!!!!!!!!!!!!!!!!!!!!!!!!!!!!!!!!!!!!!!!!!!!!!!!!!!!!",
"!!!!!!!!!!!!!!!!!!!!!!!!!!!!!!!!!!!4<>,0q!!!!!!!!!!!!!!!!!!!!!!!",
"!!!!!!!!!!!!!!!!!!!!!!!!!!!!!!!!!!!<<1,qw!!!!!!!!!!!!!!!!!!!!!!!",
"!!!!!!!!!!!!!!!!!!!!!!!!!!!!!!!!!1460e0!!!!!!!!!!!!!!!!!!!!!!!!!",
"!!!!!!!!!!!!!!!!!!!!!!!!!!!!!!!!!119w08!!!!!!!!!!!!!!!!!!!!!!!!!",
"!!!!!!!!!!!!!!!!!!!!!!!!!!!O+.O1,8w. !!!!!!!!!!!!!!!!!!!!!!!!!!!",
"!!!!!!!!!!!!!!!!!!!!!!!!!!!+ +.,2qw o!!!!!!!!!!!!!!!!!!!!!!!!!!!",
"!!!!!!!!!!!!!!!!!!!!!!!. #ODKFJ>5HDLJ @. !!!!!!!!!!!!!!!!!!!!!!!",
"!!!!!!!!!!!!!!!!!!!!!!!@.oOFHLG1,HJPHX.+O!!!!!!!!!!!!!!!!!!!!!!!",
"!!!!!!!!!!!!!!!!!!!!!@ODJPPNVBBANBVSVLGJJ@.!!!!!!!!!!!!!!!!!!!!!",
"!!!!!!!!!!!!!!!!!!!!!#@GFKLZBVMCCZCVMHPPG.O!!!!!!!!!!!!!!!!!!!!!",
"!!!!!!!!!!!!!!!!!!!o.PGMCCVZBzm+ mlSABAZSFL#X!!!!!!!!!!!!!!!!!!!",
"!!!!!!!!!!!!!!!!!!!+oJDNBZZBAlc@XmmBCNBVSJLX+!!!!!!!!!!!!!!!!!!!",
"!!!!!!!!!!!!!!!!!!!#+FHZZcbcl @FG+#zxzvMCHK o!!!!!!!!!!!!!!!!!!!",
"!!!!!!!!!!!!!!!!!!!O@DKCSzlbz@OKF XnxbxVAJGoo!!!!!!!!!!!!!!!!!!!",
"!!!!!!!!!!!!!!!!!#@SCASMNO@ XJJJGLK@.X.NABNCS+O!!!!!!!!!!!!!!!!!",
"!!!!!!!!!!!!!!!!!@.NNSZAVO++ FFJHPH .OoSMZBNAO#!!!!!!!!!!!!!!!!!",
"!!!!!!!!!!!!!!!!!##CZXXO.FLPHNCVNSZHDPDo  OCA#.!!!!!!!!!!!!!!!!!",
"!!!!!!!!!!!!!!!!! #SSX  XPKPHCZAASCJKJG X. SZ# !!!!!!!!!!!!!!!!!",
"!!!!!!!!!!!!!!!!!o+@oKFPPNZBN+@ZV#XSZNBGLFPO +O!!!!!!!!!!!!!!!!!",
"!!!!!!!!!!!!!!!!!o#.+DGGKSNMB.OBA#@ZSSMHFDP @ @!!!!!!!!!!!!!!!!!",
"!!!!!!!!!!!!!!!OXcvCABCMZO@BA#XCV##VBXoMAABVNzz#X!!!!!!!!!!!!!!!",
"!!!!!!!!!!!!!!!@@nnVBCNVC.OAS oNA#.NA+@NMNBVScz+X!!!!!!!!!!!!!!!",
"!!!!!!!!!!!!!!!#@vbNM@OVC.#AA@oCAO.AS@XSN+@NMbx. !!!!!!!!!!!!!!!",
"!!!!!!!!!!!!!!!X#bzZCOXCMo VMo+AC @SM#oBZ.@ZBmcoo!!!!!!!!!!!!!!!",
"!!!!!!!!!!!!!!!O lxlcO.ll.Oxm@ cn#olmXOlbX@cccn+O!!!!!!!!!!!!!!!",
"!!!!!!!!!!!!!!!+Xbnzc@ bz++bn+Xnv  vc@Xxc@+lcvc@X!!!!!!!!!!!!!!!",
"!!!!!!!!!!!!!!!!!O+vcxvczvlxbxmlvxzvmmnlcbmllXX!!!!!!!!!!!!!!!!!",
"!!!!!!!!!!!!!!!!!O xxcnznzbnnxcmcbmbnmnvbzvzn.#!!!!!!!!!!!!!!!!!",
"!!!!!!!!!!!!!!!!!@@o.+#+O  #+..XooOXOO#@O #.#o#!!!!!!!!!!!!!!!!!",
"!!!!!!!!!!!!!!!!! Xo+.O+ #X.X@ oo.#X +#. +X@@O.!!!!!!!!!!!!!!!!!",
"!!!!!!!!!!!!!!!+ PFGF.+#XPLPHGJKKPJJPX X@o +@.o @@ . !!!!!!!!!!!",
"!!!!!!!!!!!!!!! oGFLK O@#GGFJKJGKLHGJ. .    ++X+.oXO.!!!!!!!!!!!",
"!!!!!!!!!!!!!.XGKMCMC@.ml+X+OoOXX o.oRYTQREUYRYIWYQGDo !!!!!!!!!",
"!!!!!!!!!!!!! @PPVASSo+bbO#Xo.####@@OIRURUIERUWYIRUDDXX!!!!!!!!!",
"!!!!!!!!!!!!!>1O.#.O@# xmSVBNAM@XSB .IY:$xcmlmlcn==FJ #!!!!!!!!!",
"!!!!!!!!!!!!!42o@.X+#@ovnNZCABN++NV@#RT%;mcclvblz%%GH# !!!!!!!!!",
"!!!!!!!!!!!!!5,+@BBAB.+vlzmBMmvoXmboOTI=&-=vnmx=;:-PH.X!!!!!!!!!",
"!!!!!!!!!!!!!,, .ZZBZ@+cxblCNlbo+nv@#WT&:$:zmzx$%-:KJ#O!!!!!!!!!",
"!!!!!!!!!!!4,qe+@xvcnXOX.llbv @nc#+++IQfg%:xlxz;*gdFH+o!!!!!!!!!",
"!!!!!!!!!!!33w0#@xlbn#+oOxvzzo+nm#o#@TQff%:nlmm==ffGLo !!!!!!!!!",
"!!!!!!!!!!!,4wwO.@@XO.@2>O+X#o+#X#++@TTfdffzcbnkjffDD@o!!!!!!!!!",
"!!!!!!!!!!!4>6e .o@#@#.<<OOo@+.#+.X..WEfhdflbmlfffgFL# !!!!!!!!!",
"!!!!!!!!!1,89@+KHCSzb@.#O000q6etasrXoYIffffxmbvgffgFGO+!!!!!!!!!",
"!!!!!!!!!>,6q#XHLNVmm.oX+06e6eqpttro.DFdfffnmzcdfjdDG@O!!!!!!!!!",
"!!!!!!!!!3<w9XOVSMCcv.XCB+.+X# O.o+.XDDff;:xnzn*-fkLJ@o!!!!!!!!!",
"!!!!!!!!!1280X.NNMCxvO#MNO o#. OX@o#.DDgf&*xmnm$;fhHLXO!!!!!!!!!",
"!!!!!!!!!519eX.lznmmlo  .CMBMDLDJFF#+DD&%$;zmnz%*&%HF. !!!!!!!!!",
"!!!!!!!!!44e7Xoblcxxz.XX.NMZZGHDPKJX@DD%**-lmxz$:$%LPX !!!!!!!!!",
"!!!!!!!!!,2w9ti+ooO@ O@MC #o@##O + +#DG:%cxlxlvml-&LF.+!!!!!!!!!",
"!!!!!!!!!<,06yu+#. +O#OVZ.@OO+ooo+o@.DF&%nnmzlczc=&GH+@!!!!!!!!!",
"!!!!!!!!!3>08sataatua@ BVzvnlo 09++ll@+KK:*$$%%*&HK @<>!!!!!!!!!",
"!!!!!!!!!4>q0ustppsipX MBxnxv+oq8X@mb@XDP-=:*:&=&LK  >3!!!!!!!!!",
"!!!!!!!!!>4q866ew0ww7X.vmzbvbX qw #xvvn.+FDJKFLGH #0e2<!!!!!!!!!",
"!!!!!!!!!2,w69ew0q7q0O@mlvnbvXO00 XmvznO.KGPDDFPD# 60>,!!!!!!!!!",
"!!!!!!!!!1<22>231,42<31X# +#O.X<2@O#.X@o+@ONMMAX@<3<41,!!!!!!!!!",
"!!!!!!!!!35<242,13>,3<< .X o+XX<2.++o# O#+OMMZNO.241315!!!!!!!!!",
"!!!!!!!!!!!!!!!!!!!oO+o@.KDDP@o!!+@JLHP##O#@O@o!!!!!!!!!!!!!!!!!",
"!!!!!!!!!!!!!!!!!!!#X.oo JJJJ.+!! #PJKG.## + oO!!!!!!!!!!!!!!!!!",
"!!!!!!!!!!!!!!!!!!!X@AV#.AZbm O!! XvlCV +MM+O!!!!!!!!!!!!!!!!!!!",
"!!!!!!!!!!!!!!!!!!!+ MC +VMzv+X!!@ lvAC#oMC#@!!!!!!!!!!!!!!!!!!!",
"!!!!!!!!!!!!!!!!!oo O.+o@o.X+X+!!X. oo#X@+ .#X@!!!!!!!!!!!!!!!!!",
"!!!!!!!!!!!!!!!!!@+@+O#o#XoXo@@!!..X@O  .XOX o !!!!!!!!!!!!!!!!!",
"!!!!!!!!!!!!!!!!!!!!!!!!!!!!!!!!!!!!!!!!!!!!!!!!!!!!!!!!!!!!!!!!"
};
