/* XPM */
static char *result[] = {
/* columns rows colors chars-per-pixel */
"64 64 57 1 ",
"  c #0E061A",
". c #0F061A",
"X c #0E071A",
"o c #0F071A",
"O c #0E061B",
"+ c #0F061B",
"@ c #0E071B",
"# c #0F071B",
"$ c #2E2EB0",
"% c #2F2EB0",
"& c #2E2FB0",
"* c #2F2FB0",
"= c #2E2EB1",
"- c #2F2EB1",
"; c #2E2FB1",
": c #2F2FB1",
"> c #546C8E",
", c #556C8E",
"< c #546D8E",
"1 c #556D8E",
"2 c #546C8F",
"3 c #556C8F",
"4 c #546D8F",
"5 c #556D8F",
"6 c #647292",
"7 c #657292",
"8 c #647392",
"9 c #657392",
"0 c #647293",
"q c #657293",
"w c #647393",
"e c #657393",
"r c #726EEA",
"t c #736EEA",
"y c #726FEA",
"u c #736FEA",
"i c #726EEB",
"p c #736EEB",
"a c #726FEB",
"s c #736FEB",
"d c #92A0B8",
"f c #93A0B8",
"g c #92A1B8",
"h c #93A1B8",
"j c #92A0B9",
"k c #93A0B9",
"l c #92A1B9",
"z c #93A1B9",
"x c #C6CEDC",
"c c #C7CEDC",
"v c #C6CFDC",
"b c #C7CFDC",
"n c #C6CEDD",
"m c #C7CEDD",
"M c #C6CFDD",
"N c #C7CFDD",
"B c None",
/* pixels */
"BBBBBBBBBBBBBBBBBBBBBBBBBBBBBBBBBBBBBBBBBBBBBBBBBBBBBBBBBBBBBBBB",
"BBBBBBBBBBBBBBBBBBBBBBBBBBBBBBBBBBBBBBBBBBBBBBBBBBBBBBBBBBBBBBBB",
"BBBBBBBBBBBBBBBBBBBBBBBBBBBBBBBBBBBBBBBBBBBBBBBBBBBBBBBBBBBBBBBB",
"BBBBBBBBBBBBBBBBBBBBBBBBBBBBBBBBBBBBBBBBBBBBBBBBBBBBBBBBBBBBBBBB",
"BBBBBBBBBBBBBBBBBBBBBBBBBBBBBBBBBBBBBBBBBBBBBBBBBBBBBBBBBBBBBBBB",
"BBBBBBBBBBBBBBBBBBBBBBBBB#@oX@X@O.X.OBBBBBBBBBBBBBBBBBBBBBBBBBBB",
"BBBBBBBBBBBBBBBBBBBBBBBBBX#@. @.+.+.#BBBBBBBBBBBBBBBBBBBBBBBBBBB",
"BBBBBBBBBBBBBBBBBBBBBBBBB#++o.o.o##XOBBBBBBBBBBBBBBBBBBBBBBBBBBB",
"BBBBBBBBBBBBBBBBBBB@ OO# Oo+iuapai@o.O@ OX.BBBBBBBBBBBBBBBBBBBBB",
"BBBBBBBBBBBBBBBBBBB@o. .o.@ tuyprp ooO +oOoBBBBBBBBBBBBBBBBBBBBB",
"BBBBBBBBBBBBBBBBBBB +..@@  +saasuioX+ ooX@@BBBBBBBBBBBBBBBBBBBBB",
"BBBBBBBBBBBBBBBB@  mmvmbvX+X:$%*$*+o@NNcMcb+ @BBBBBBBBBBBBBBBBBB",
"BBBBBBBBBBBBBBBB. XnbNmMvOo %:&$%$.O#bMxbcn+##BBBBBBBBBBBBBBBBBB",
"BBBBBBBBBBBBBBBB.OXxNNbcc+.@;&-&=*#o.bxxnvbX+#BBBBBBBBBBBBBBBBBB",
"BBBBBBBBBBBBBBBBo@ ncvlffo  *:::-;XX+lfjbvN.+@@@XBBBBBBBBBBBBBBB",
"BBBBBBBBBBBBBBBB OoMnvfzlOo.-=-$%*o. kldMnm+X oo#BBBBBBBBBBBBBBB",
"BBBBBBBBBBBBBBBBXO#cbcdgk.X ==*;=*O.ojdhxcv.+@@OXBBBBBBBBBBBBBBB",
"BBBBBBBBBBBBB+o#vxMjkjjjjzkdfggkzhhzgfhkhddvMc#ooBBBBBBBBBBBBBBB",
"BBBBBBBBBBBBB#  MMxdldghdhfdljhjfkghfjdllkfmnv@X BBBBBBBBBBBBBBB",
"BBBBBBBBBBBBB+O+MNmghhddjkhzjfjzzkdzghzgjhfcbN+XXBBBBBBBBBBBBBBB",
"BBBBBBBBBBBBB+OXkhgllgkhjljlkdgfdfffgdjkfjjhfk.XoBBBBBBBBBBBBBBB",
"BBBBBBBBBBBBBo@Olljkgdgjjjkdhhdllfzjdfjjddldfj#O BBBBBBBBBBBBBBB",
"BBBBBBBBBBBBB@+ ffhzjfjfjdzfjglfzjzzdddhlzlkllX@@BBBBBBBBBBBBBBB",
"BBBBBBBBBBBBBo..e7qwe8llhddfkddfdddfjldg766787.o#BBBBBBBBBBBBBBB",
"BBBBBBBBBBBBBX +8weq60dgdfjkjkfjggjjjgfd870ww6o+oBBBBBBBBBBBBBBB",
"BBBBBBBBBBBBBOoo9e99w9dhldfdgldlkddklzdd6we70wX OBBBBBBBBBBBBBBB",
"BBBBBBBBBBBBBBBBO oggfffjdzzggfgfkhgkhdlkhg.+@BBBBBBBBBBBBBBBBBB",
"BBBBBBBBBBBBBBBBo+Odflgfgjffhdddhjjjjddjgzf#@@BBBBBBBBBBBBBBBBBB",
"BBBBBBBBBBBBBBBBX#ofzhjdzdgfzlhhjhfdzgzfzjd+ooBBBBBBBBBBBBBBBBBB",
"BBBBBBBBBBBBBBBBoXO+ .ghjhhhfdgdfldfhhdhXX+#.@ o@ Oo..+BBBBBBBBB",
"BBBBBBBBBBBBBBBBX++X+ozfjfdfgglzjjlzdddd Xo@O#OO.@X##o#BBBBBBBBB",
"BBBBBBBBBBBBBBBB+@@@oOfhzkjkhfgzddjhhfdd+# XOX#oOo..O+XBBBBBBBBB",
"BBBBBBBBBBBBBo.#mnnNncOO.OXo#X# X+X+.XXoddd+##<>><<1X.OBBBBBBBBB",
"BBBBBBBBBBBBB+. MMncbm XO.+ #@O+ .@#@@# ddf+.@1<1<>5X+ BBBBBBBBB",
"BBBBBBBBBBBBBoX.MmvmxMo@ XX@X#X+X++o@oo.jjj#O#>3<1<2@XXBBBBBBBBB",
"BBBBBBBBBB.@+mbvwwezgh9q8ggh089967fzl79w0w80w0#+X,,,O@oBBBBBBBBB",
"BBBBBBBBBB.X+bmcw88lkl809dff8w7e77fdje7600q0w8.@+>><OXoBBBBBBBBB",
"BBBBBBBBBB+##Nvceqwklk980jzgw899qwhgf80qw6q600+o@44<#+.BBBBBBBBB",
"BBBBBBBBBBooouiayra###8e8flzljhhlfdgf8q6#o#uisO##2<< . BBBBBBBBB",
"BBBBBBBBBB .+tyuaur###806kzdkjkzgjzzfqwq.#Ossu.o@,>, +.BBBBBBBBB",
"BBBBBBBBBB# Xsuprsy###760gddjkjhghhfz069+@#ssa#@@322oo@BBBBBBBBB",
"BBBBBBBBBBo.#hlzewe#X 709q8e8806e67eq0e8#O#@#+><<,25++.BBBBBBBBB",
"BBBBBBBBBB @@gfh866.o.0q9q8776qq08qe8w60X@O#+o>3<4<4X+.BBBBBBBBB",
"BBBBBBBBBB +okglqe9+X+w0qqw67w66qe788w77X#OX+#<,4<<3+ oBBBBBBBBB",
"BBBBBBBBBBBBB +oX#OO@ lkfggjgfhgldhdkhgzOO@4211<5@.+BBBBBBBBBBBB",
"BBBBBBBBBBBBB oO+.o  #dhdljhlzfzhhggljllX++,2241<o..BBBBBBBBBBBB",
"BBBBBBBBBBBBB +XO XX #fzdkhkklfkzlhllkdlOX 1><142#.oBBBBBBBBBBBB",
"BBBBBBBBBBBBBBBBBBB@o.wq06qq@o.@ #7979w0.O@X@oO.OBBBBBBBBBBBBBBB",
"BBBBBBBBBBBBBBBBBBBX#.80q96eO..@+o9w0e7e. @@@X###BBBBBBBBBBBBBBB",
"BBBBBBBBBBBBBBBBBBB.+ 8q6898@ oX +70q600###oX@+XOBBBBBBBBBBBBBBB",
"BBBBBBBBBBBBBBBBBBBO.+kghfdh+++@.oflgddhO+ BBBBBBBBBBBBBBBBBBBBB",
"BBBBBBBBBBBBBBBBBBBX# zfgzjz OoO.ofkdfdd  #BBBBBBBBBBBBBBBBBBBBB",
"BBBBBBBBBBBBBBBBBBB +.hgfldk@@X.X#lhkgdjXoXBBBBBBBBBBBBBBBBBBBBB",
"BBBBBBBBBBBBBBBBBBBBBBBBBBBBBBBBBBBBBBBBBBBBBBBBBBBBBBBBBBBBBBBB",
"BBBBBBBBBBBBBBBBBBBBBBBBBBBBBBBBBBBBBBBBBBBBBBBBBBBBBBBBBBBBBBBB",
"BBBBBBBBBBBBBBBBBBBBBBBBBBBBBBBBBBBBBBBBBBBBBBBBBBBBBBBBBBBBBBBB",
"BBBBBBBBBBBBBBBBBBBBBBBBBBBBBBBBBBBBBBBBBBBBBBBBBBBBBBBBBBBBBBBB",
"BBBBBBBBBBBBBBBBBBBBBBBBBBBBBBBBBBBBBBBBBBBBBBBBBBBBBBBBBBBBBBBB",
"BBBBBBBBBBBBBBBBBBBBBBBBBBBBBBBBBBBBBBBBBBBBBBBBBBBBBBBBBBBBBBBB",
"BBBBBBBBBBBBBBBBBBBBBBBBBBBBBBBBBBBBBBBBBBBBBBBBBBBBBBBBBBBBBBBB",
"BBBBBBBBBBBBBBBBBBBBBBBBBBBBBBBBBBBBBBBBBBBBBBBBBBBBBBBBBBBBBBBB",
"BBBBBBBBBBBBBBBBBBBBBBBBBBBBBBBBBBBBBBBBBBBBBBBBBBBBBBBBBBBBBBBB",
"BBBBBBBBBBBBBBBBBBBBBBBBBBBBBBBBBBBBBBBBBBBBBBBBBBBBBBBBBBBBBBBB",
"BBBBBBBBBBBBBBBBBBBBBBBBBBBBBBBBBBBBBBBBBBBBBBBBBBBBBBBBBBBBBBBB"
};
