/* XPM */
static char *result[] = {
/* columns rows colors chars-per-pixel */
"64 64 49 1 ",
"  c #0E061A",
". c #0F061A",
"X c #0E071A",
"o c #0F071A",
"O c #0E061B",
"+ c #0F061B",
"@ c #0E071B",
"# c #0F071B",
"$ c #2E2EB0",
"% c #2F2EB0",
"& c #2E2FB0",
"* c #2F2FB0",
"= c #2E2EB1",
"- c #2F2EB1",
"; c #2E2FB1",
": c #2F2FB1",
"> c #647292",
", c #657292",
"< c #647392",
"1 c #657392",
"2 c #647293",
"3 c #657293",
"4 c #647393",
"5 c #657393",
"6 c #726EEA",
"7 c #736EEA",
"8 c #726FEA",
"9 c #736FEA",
"0 c #726EEB",
"q c #736EEB",
"w c #726FEB",
"e c #736FEB",
"r c #92A0B8",
"t c #93A0B8",
"y c #92A1B8",
"u c #93A1B8",
"i c #92A0B9",
"p c #93A0B9",
"a c #92A1B9",
"s c #93A1B9",
"d c #C6CEDC",
"f c #C7CEDC",
"g c #C6CFDC",
"h c #C7CFDC",
"j c #C6CEDD",
"k c #C7CEDD",
"l c #C6CFDD",
"z c #C7CFDD",
"x c None",
/* pixels */
"xxxxxxxxxxxxxxxxxxxxxxxxxxxxxxxxxxxxxxxxxxxxxxxxxxxxxxxxxxxxxxxx",
"xxxxxxxxxxxxxxxxxxxxxxxxxxxxxxxxxxxxxxxxxxxxxxxxxxxxxxxxxxxxxxxx",
"xxxxxxxxxxxxxxxxxxxxxxxxxxxxxxxxxxxxxxxxxxxxxxxxxxxxxxxxxxxxxxxx",
"xxxxxxxxxxxxxxxxxxxxxxxxxxxxxxxxxxxxxxxxxxxxxxxxxxxxxxxxxxxxxxxx",
"xxxxxxxxxxxxxxxxxxxxxxxxxxxxxxxxxxxxxxxxxxxxxxxxxxxxxxxxxxxxxxxx",
"xxxxxxxxxxxxxxxxxxxxxxxxxxxxxxxxxxxxxxxxxxxxxxxxxxxxxxxxxxxxxxxx",
"xxxxxxxxxxxxxxxxxxxxxxxxxxxxxxxxxxxxxxxxxxxxxxxxxxxxxxxxxxxxxxxx",
"xxxxxxxxxxxxxxxxxxxxxxxxxxxxxxxxxxxxxxxxxxxxxxxxxxxxxxxxxxxxxxxx",
"xxxxxxxxxxxxxxxxxxxO.+#Oo#@ . #+X.OX@Xo+# XX@+xxxxxxxxxxxxxxxxxx",
"xxxxxxxxxxxxxxxxxxx+@##.@XX+XX+X .OO .oo+o.#.Xxxxxxxxxxxxxxxxxxx",
"xxxxxxxxxxxxxxxxxxx o@oO####OO+o #oO@.XX+#o ++xxxxxxxxxxxxxxxxxx",
"xxxxxxxxxxxxxxxx .O89qwwe6e7770q99q97989e6767eo@+xxxxxxxxxxxxxxx",
"xxxxxxxxxxxxxxxxo.O696q66q6e80q8e706666096q67woOXxxxxxxxxxxxxxxx",
"xxxxxxxxxxxxxxxxXO qqeee7qe60007q909w60q7q809q#Xoxxxxxxxxxxxxxxx",
"xxxxxxxxxxxxx@.X-$=***=-%;*-=$%:*%:-%*=*q69q6q@o.xxxxxxxxxxxxxxx",
"xxxxxxxxxxxxxo#+=*=$:&=&;&:%&$;&&;=;%;*=q8w6w8O@ xxxxxxxxxxxxxxx",
"xxxxxxxxxxxxxo+X%&--=-%::%=:&-$*$=;$;;$&w9w886.o#xxxxxxxxxxxxxxx",
"xxxxxxxxxxxxxO+X;&$=&&gkztiulfgkjffgkhlzqw77w6X.@xxxxxxxxxxxxxxx",
"xxxxxxxxxxxxx OX;$%;:%kdfsrillkggdzfzzlf8w7q08 ##xxxxxxxxxxxxxxx",
"xxxxxxxxxxxxxOO.&:$:--zzhsppfzkkdhlfllgj6w079w#X#xxxxxxxxxxxxxxx",
"xxxxxxxxxxxxxXOX=$$ypisiptypuyptapsayrypglgX+#xxxxxxxxxxxxxxxxxx",
"xxxxxxxxxxxxxo# $;$tprttptyyrsyrpariisaphjl# .xxxxxxxxxxxxxxxxxx",
"xxxxxxxxxxxxx @.&;:pipiiryrsyusrussrairpdfd #Oxxxxxxxxxxxxxxxxxx",
"xxxxxxxxxxxxx.@ ;;%ttsarapaa2<<>>1+O. @oO @O+@xxxxxxxxxxxxxxxxxx",
"xxxxxxxxxxxxx#@ :%-iapaatsyr24,322.OOooOoX@@oXxxxxxxxxxxxxxxxxxx",
"xxxxxxxxxxxxx.# =&&rrpuiaysu22>4<,.X+ +..@+OO+xxxxxxxxxxxxxxxxxx",
"xxxxxxxxxxxxxxxx+#+usiyra221225214# .# #@@.o #xxxxxxxxxxxxxxxxxx",
"xxxxxxxxxxxxxxxxo +yiuaru>2<>52>22+ ####oXoOo#xxxxxxxxxxxxxxxxxx",
"xxxxxxxxxxxxxxxx Ooatppra2,5222,<<X.#O@O## o  xxxxxxxxxxxxxxxxxx",
"xxxxxxxxxxxxxxxx@. ,54ptritt54<>24rruO##X@.X##+#Xxxxxxxxxxxxxxxx",
"xxxxxxxxxxxxxxxx@ #4>2iruris4,4>>2tpt o .ooo@ #+Xxxxxxxxxxxxxxxx",
"xxxxxxxxxxxxxxxx+@#215ttapay52<125yit+#o .+ +#O oxxxxxxxxxxxxxxx",
"xxxxxxxxxxxxxxxxxxx@o+323rtuauustayty#O.ddjkzdO@Xxxxxxxxxxxxxxxx",
"xxxxxxxxxxxxxxxxxxx . 2,4itttrsrtsisa@@ kkfjfloO#xxxxxxxxxxxxxxx",
"xxxxxxxxxxxxxxxxxxxO+ ,32atyryppsysipo+.fljgkgo#@xxxxxxxxxxxxxxx",
"xxxxxxxxxxxxxxxxxxxxxx#X o#XO@.+XO@ @#X.jfgw7e  Oxxxxxxxxxxxxxxx",
"xxxxxxxxxxxxxxxxxxxxxxX#oXX+o.o@ X@o@#+odjdq7eoO#xxxxxxxxxxxxxxx",
"xxxxxxxxxxxxxxxxxxxxxx +Oo+ .@@@OooOO@@+klf978..@xxxxxxxxxxxxxxx",
"xxxxxxxxxxxxxxxxxxxxxxxxx@O.rptriy::%#+Xrys$%:X+oxxxxxxxxxxxxxxx",
"xxxxxxxxxxxxxxxxxxxxxxxxx+ Xauuust===@+ ria;&=@  xxxxxxxxxxxxxxx",
"xxxxxxxxxxxxxxxxxxxxxxxxx.+.rrtira$=;Xo.iuy$:=+O#xxxxxxxxxxxxxxx",
"xxxxxxxxxxxxxxxxxxxxxxxxxoX##o.ryiw98.X.trt-;%#+oxxxxxxxxxxxxxxx",
"xxxxxxxxxxxxxxxxxxxxxxxxxo..   ypp780#.Orya%=*.XOxxxxxxxxxxxxxxx",
"xxxxxxxxxxxxxxxxxxxxxxxxxoO XX+iupqe0.+#ppu$*=oo xxxxxxxxxxxxxxx",
"xxxxxxxxxxxxxxxxxxxxxxxxxo@o54<O@  XXO#.Oo+tuuX.@xxxxxxxxxxxxxxx",
"xxxxxxxxxxxxxxxxxxxxxxxxx+oX432.+.+O+.@ @@ ayr.ooxxxxxxxxxxxxxxx",
"xxxxxxxxxxxxxxxxxxxxxxxxx o.441++#X@#O#XO.@put#oOxxxxxxxxxxxxxxx",
"xxxxxxxxxxxxxxxxxxxxxxxxxOX#yyysppput#o+@+o O+xxxxxxxxxxxxxxxxxx",
"xxxxxxxxxxxxxxxxxxxxxxxxxo.opairasrarXOXo @OO+xxxxxxxxxxxxxxxxxx",
"xxxxxxxxxxxxxxxxxxxxxxxxxXo+paryyaupu.OX+.@#X@xxxxxxxxxxxxxxxxxx",
"xxxxxxxxxxxxxxxxxxxxxxxxxO@#rsaaii.+++O xxxxxxxxxxxxxxxxxxxxxxxx",
"xxxxxxxxxxxxxxxxxxxxxxxxxO+oparutt XO#o+xxxxxxxxxxxxxxxxxxxxxxxx",
"xxxxxxxxxxxxxxxxxxxxxxxxx.X+yitrrr oX+ @xxxxxxxxxxxxxxxxxxxxxxxx",
"xxxxxxxxxxxxxxxxxxxxxxxxxxxxxxxxxxxxxxxxxxxxxxxxxxxxxxxxxxxxxxxx",
"xxxxxxxxxxxxxxxxxxxxxxxxxxxxxxxxxxxxxxxxxxxxxxxxxxxxxxxxxxxxxxxx",
"xxxxxxxxxxxxxxxxxxxxxxxxxxxxxxxxxxxxxxxxxxxxxxxxxxxxxxxxxxxxxxxx",
"xxxxxxxxxxxxxxxxxxxxxxxxxxxxxxxxxxxxxxxxxxxxxxxxxxxxxxxxxxxxxxxx",
"xxxxxxxxxxxxxxxxxxxxxxxxxxxxxxxxxxxxxxxxxxxxxxxxxxxxxxxxxxxxxxxx",
"xxxxxxxxxxxxxxxxxxxxxxxxxxxxxxxxxxxxxxxxxxxxxxxxxxxxxxxxxxxxxxxx",
"xxxxxxxxxxxxxxxxxxxxxxxxxxxxxxxxxxxxxxxxxxxxxxxxxxxxxxxxxxxxxxxx",
"xxxxxxxxxxxxxxxxxxxxxxxxxxxxxxxxxxxxxxxxxxxxxxxxxxxxxxxxxxxxxxxx",
"xxxxxxxxxxxxxxxxxxxxxxxxxxxxxxxxxxxxxxxxxxxxxxxxxxxxxxxxxxxxxxxx",
"xxxxxxxxxxxxxxxxxxxxxxxxxxxxxxxxxxxxxxxxxxxxxxxxxxxxxxxxxxxxxxxx",
"xxxxxxxxxxxxxxxxxxxxxxxxxxxxxxxxxxxxxxxxxxxxxxxxxxxxxxxxxxxxxxxx"
};
