/* XPM */
static char *result[] = {
/* columns rows colors chars-per-pixel */
"64 64 49 1 ",
"  c #0E061A",
". c #0F061A",
"X c #0E071A",
"o c #0F071A",
"O c #0E061B",
"+ c #0F061B",
"@ c #0E071B",
"# c #0F071B",
"$ c #2E2EB0",
"% c #2F2EB0",
"& c #2E2FB0",
"* c #2F2FB0",
"= c #2E2EB1",
"- c #2F2EB1",
"; c #2E2FB1",
": c #2F2FB1",
"> c #647292",
", c #657292",
"< c #647392",
"1 c #657392",
"2 c #647293",
"3 c #657293",
"4 c #647393",
"5 c #657393",
"6 c #726EEA",
"7 c #736EEA",
"8 c #726FEA",
"9 c #736FEA",
"0 c #726EEB",
"q c #736EEB",
"w c #726FEB",
"e c #736FEB",
"r c #92A0B8",
"t c #93A0B8",
"y c #92A1B8",
"u c #93A1B8",
"i c #92A0B9",
"p c #93A0B9",
"a c #92A1B9",
"s c #93A1B9",
"d c #C6CEDC",
"f c #C7CEDC",
"g c #C6CFDC",
"h c #C7CFDC",
"j c #C6CEDD",
"k c #C7CEDD",
"l c #C6CFDD",
"z c #C7CFDD",
"x c None",
/* pixels */
"xxxxxxxxxxxxxxxxxxxxxxxxxxxxxxxxxxxxxxxxxxxxxxxxxxxxxxxxxxxxxxxx",
"xxxxxxxxxxxxxxxxxxxxxxxxxxxxxxxxxxxxxxxxxxxxxxxxxxxxxxxxxxxxxxxx",
"xxxxxxxxxxxxxxxxxxxxxxxxxxxxxxxxxxxxxxxxxxxxxxxxxxxxxxxxxxxxxxxx",
"xxxxxxxxxxxxxxxxxxxxxxxxxxxxxxxxxxxxxxxxxxxxxxxxxxxxxxxxxxxxxxxx",
"xxxxxxxxxxxxxxxxxxxxxxxxxxxxxxxxxxxxxxxxxxxxxxxxxxxxxxxxxxxxxxxx",
"xxxxxxxxxxxxxxxxxxxxxxxxxxxxxxxxxxxxxxxxxxxxxxxxxxxxxxxxxxxxxxxx",
"xxxxxxxxxxxxxxxxxxxxxxxxxxxxxxxxxxxxxxxxxxxxxxxxxxxxxxxxxxxxxxxx",
"xxxxxxxxxxxxxxxxxxxxxxxxxxxxxxxxxxxxxxxxxxxxxxxxxxxxxxxxxxxxxxxx",
"xxxxxxxxxxxxxxxxxxxX.O#+o#@ + #OX. X@Xo+#.XX@#xxxxxxxxxxxxxxxxxx",
"xxxxxxxxxxxxxxxxxxx+o##o@XX+X +@ .O@O...+o.@+oxxxxxxxxxxxxxxxxxx",
"xxxxxxxxxxxxxxxxxxx o#oO####O++o #.+#. X+o..++xxxxxxxxxxxxxxxxxx",
"xxxxxxxxxxxxxxxx .+89ewwe6e7q6wq99q96989e678qeoO+xxxxxxxxxxxxxxx",
"xxxxxxxxxxxxxxxxo.O698q6668e800ee96q8w6096767w.OXxxxxxxxxxxxxxxx",
"xxxxxxxxxxxxxxxxo+ qee7e77e6606q0909w70q9q889q@Xoxxxxxxxxxxxxxxx",
"xxxxxxxxxxxxx@.X-$=*&*$--;*-=$%:*%:-%*=*q09q6q@o.xxxxxxxxxxxxxxx",
"xxxxxxxxxxxxxoo+=*=%;&$&&&;%$$=&&;-;%;:=q8w6w8O@Xxxxxxxxxxxxxxxx",
"xxxxxxxxxxxxxo+X%$-%=--::%=:&%$*&=;$:;%&w98w86o#@xxxxxxxxxxxxxxx",
"xxxxxxxxxxxxx@+X;&==&&gkktiyzfgzjdfgjflz7w7707X+Oxxxxxxxxxxxxxxx",
"xxxxxxxxxxxxx.O.:%%;*%kgfsrsllkgddkfhjlfwe9q06 o#xxxxxxxxxxxxxxx",
"xxxxxxxxxxxxx++.&:$;--zlhpppfzkjdhjfzlgj6w0796#X+xxxxxxxxxxxxxxx",
"xxxxxxxxxxxxxXOo;$$ytipiptypsyptassayirpdgg +#xxxxxxxxxxxxxxxxxx",
"xxxxxxxxxxxxx+# =;$pprppptyurauypataisaizjl# .xxxxxxxxxxxxxxxxxx",
"xxxxxxxxxxxxxX@.&;-sipipryrsuusrsapiyirpdfd.#Oxxxxxxxxxxxxxxxxxx",
"xxxxxxxxxxxxx.@ &;%ttssiauaa441>>1+@  @X+ @+.@xxxxxxxxxxxxxxxxxx",
"xxxxxxxxxxxxx#OO:%-iapaitayi24,333.OOooOoXO@o xxxxxxxxxxxxxxxxxx",
"xxxxxxxxxxxxx.#o=&&rtiuiaysu3214<,.X+ #..@OX +xxxxxxxxxxxxxxxxxx",
"xxxxxxxxxxxxxxxx+#+ysiyry225225354# .o #@@.oX#xxxxxxxxxxxxxxxxxx",
"xxxxxxxxxxxxxxxxo.+uiusru>2<,52>22+.##@@oXoOo#xxxxxxxxxxxxxxxxxx",
"xxxxxxxxxxxxxxxx.OXartpri2,5>22,<<X.#O@O+# oX.xxxxxxxxxxxxxxxxxx",
"xxxxxxxxxxxxxxxx@..>54ptritt44<>24iry3>2+++xxxxxxxxxxxxxxxxxxxxx",
"xxxxxxxxxxxxxxxx@ @<<2iisrts3>4>>2tsp222+++xxxxxxxxxxxxxxxxxxxxx",
"xxxxxxxxxxxxxxxx.@#255trapau524135yit222+.+xxxxxxxxxxxxxxxxxxxxx",
"xxxxxxxxxxxxxxxxxxxO.O3>3rttausstartyO+.o@ X#X +Xxxxxxxxxxxxxxxx",
"xxxxxxxxxxxxxxxxxxx .O214itttrsytsipa+..+.@oO+#+Xxxxxxxxxxxxxxxx",
"xxxxxxxxxxxxxxxxxxxO+ ,32artrypppysiu #@ o+O#oO.oxxxxxxxxxxxxxxx",
"xxxxxxxxxxxxxxxxxxxxxxoO.X#X@@.#@ @ @@# kgjjkl.@oxxxxxxxxxxxxxxx",
"xxxxxxxxxxxxxxxxxxxxxxX.ooX ooX@.o@#@oO+dkfffz@O@xxxxxxxxxxxxxxx",
"xxxxxxxxxxxxxxxxxxxxxx +Oo+ .@@O ooOO@#+fjfhkgO#oxxxxxxxxxxxxxxx",
"xxxxxxxxxxxxxxxxxxxxxxxxxOO+rptrir::%XX jfd889.. xxxxxxxxxxxxxxx",
"xxxxxxxxxxxxxxxxxxxxxxxxx# @atuuat===X#@kjf7q0o@.xxxxxxxxxxxxxxx",
"xxxxxxxxxxxxxxxxxxxxxxxxx.+.irtpty$=;X@.klj99w.#@xxxxxxxxxxxxxxx",
"xxxxxxxxxxxxxxxxxxxxxxxxxoo+#o.ryi878o+#irs-%*##@xxxxxxxxxxxxxxx",
"xxxxxxxxxxxxxxxxxxxxxxxxxo..   yps780@o iar:&= X xxxxxxxxxxxxxxx",
"xxxxxxxxxxxxxxxxxxxxxxxxx#O XX+pupqq0@o.rty&*= OXxxxxxxxxxxxxxxx",
"xxxxxxxxxxxxxxxxxxxxxxxxxo@X14<O@.XXX   irs%&=X#@xxxxxxxxxxxxxxx",
"xxxxxxxxxxxxxxxxxxxxxxxxxO X452+ .+O.Oo@rra==;. .xxxxxxxxxxxxxxx",
"xxxxxxxxxxxxxxxxxxxxxxxxxXo.241++#X@#.#Xrpu$%*ooOxxxxxxxxxxxxxxx",
"xxxxxxxxxxxxxxxxxxxxxxxxx@X@ayaysppttO#. o.puu #Xxxxxxxxxxxxxxxx",
"xxxxxxxxxxxxxxxxxxxxxxxxx.Xopatyasryr O #@ urp.+#xxxxxxxxxxxxxxx",
"xxxxxxxxxxxxxxxxxxxxxxxxxXo+parytaussO+OO+#tur#o.xxxxxxxxxxxxxxx",
"xxxxxxxxxxxxxxxxxxxxxxxxxO@#rsiair ++@o.#OoOO xxxxxxxxxxxxxxxxxx",
"xxxxxxxxxxxxxxxxxxxxxxxxxO#opaputsO@ X@o# @O .xxxxxxxxxxxxxxxxxx",
"xxxxxxxxxxxxxxxxxxxxxxxxx.X.yiurrr oX.@o oX#O#xxxxxxxxxxxxxxxxxx",
"xxxxxxxxxxxxxxxxxxxxxxxxxxxxxxxxxxxxxxxxxxxxxxxxxxxxxxxxxxxxxxxx",
"xxxxxxxxxxxxxxxxxxxxxxxxxxxxxxxxxxxxxxxxxxxxxxxxxxxxxxxxxxxxxxxx",
"xxxxxxxxxxxxxxxxxxxxxxxxxxxxxxxxxxxxxxxxxxxxxxxxxxxxxxxxxxxxxxxx",
"xxxxxxxxxxxxxxxxxxxxxxxxxxxxxxxxxxxxxxxxxxxxxxxxxxxxxxxxxxxxxxxx",
"xxxxxxxxxxxxxxxxxxxxxxxxxxxxxxxxxxxxxxxxxxxxxxxxxxxxxxxxxxxxxxxx",
"xxxxxxxxxxxxxxxxxxxxxxxxxxxxxxxxxxxxxxxxxxxxxxxxxxxxxxxxxxxxxxxx",
"xxxxxxxxxxxxxxxxxxxxxxxxxxxxxxxxxxxxxxxxxxxxxxxxxxxxxxxxxxxxxxxx",
"xxxxxxxxxxxxxxxxxxxxxxxxxxxxxxxxxxxxxxxxxxxxxxxxxxxxxxxxxxxxxxxx",
"xxxxxxxxxxxxxxxxxxxxxxxxxxxxxxxxxxxxxxxxxxxxxxxxxxxxxxxxxxxxxxxx",
"xxxxxxxxxxxxxxxxxxxxxxxxxxxxxxxxxxxxxxxxxxxxxxxxxxxxxxxxxxxxxxxx",
"xxxxxxxxxxxxxxxxxxxxxxxxxxxxxxxxxxxxxxxxxxxxxxxxxxxxxxxxxxxxxxxx"
};
