/* XPM */
static char *result[] = {
/* columns rows colors chars-per-pixel */
"64 64 49 1 ",
"  c #0E061A",
". c #0F061A",
"X c #0E071A",
"o c #0F071A",
"O c #0E061B",
"+ c #0F061B",
"@ c #0E071B",
"# c #0F071B",
"$ c #2E2EB0",
"% c #2F2EB0",
"& c #2E2FB0",
"* c #2F2FB0",
"= c #2E2EB1",
"- c #2F2EB1",
"; c #2E2FB1",
": c #2F2FB1",
"> c #647292",
", c #657292",
"< c #647392",
"1 c #657392",
"2 c #647293",
"3 c #657293",
"4 c #647393",
"5 c #657393",
"6 c #726EEA",
"7 c #736EEA",
"8 c #726FEA",
"9 c #736FEA",
"0 c #726EEB",
"q c #736EEB",
"w c #726FEB",
"e c #736FEB",
"r c #92A0B8",
"t c #93A0B8",
"y c #92A1B8",
"u c #93A1B8",
"i c #92A0B9",
"p c #93A0B9",
"a c #92A1B9",
"s c #93A1B9",
"d c #C6CEDC",
"f c #C7CEDC",
"g c #C6CFDC",
"h c #C7CFDC",
"j c #C6CEDD",
"k c #C7CEDD",
"l c #C6CFDD",
"z c #C7CFDD",
"x c None",
/* pixels */
"xxxxxxxxxxxxxxxxxxxxxxxxxxxxxxxxxxxxxxxxxxxxxxxxxxxxxxxxxxxxxxxx",
"xxxxxxxxxxxxxxxxxxxxxxxxxxxxxxxxxxxxxxxxxxxxxxxxxxxxxxxxxxxxxxxx",
"xxxxxxxxxxxxxxxxxxxxxxxxxxxxxxxxxxxxxxxxxxxxxxxxxxxxxxxxxxxxxxxx",
"xxxxxxxxxxxxxxxxxxxxxxxxxxxxxxxxxxxxxxxxxxxxxxxxxxxxxxxxxxxxxxxx",
"xxxxxxxxxxxxxxxxxxxxxxxxxxxxxxxxxxxxxxxxxxxxxxxxxxxxxxxxxxxxxxxx",
"xxxxxxxxxxxxxxxx##@X#X.@O ..@Oo#Xo.o#o.@. @xxxxxxxxxxxxxxxxxxxxx",
"xxxxxxxxxxxxxxxx.+@#o@.X+#@O..#+  .X # XOo@xxxxxxxxxxxxxxxxxxxxx",
"xxxxxxxxxxxxxxxxO+@#X##@##..oO#. +.oX@O#+ .xxxxxxxxxxxxxxxxxxxxx",
"xxxxxxxxxxxxx+@@w0086888wqw9e770700qqqeww7e . xxxxxxxxxxxxxxxxxx",
"xxxxxxxxxxxxx @O68q08e00e9098688e0ee9608887+o.xxxxxxxxxxxxxxxxxx",
"xxxxxxxxxxxxx+ #e7ew88ww6w9600q0q6609987qq9oO@xxxxxxxxxxxxxxxxxx",
"xxxxxxxxxxxxx@#@787qeq&;;$-:;$&$:-;*;;;=%*;$**X+Oxxxxxxxxxxxxxxx",
"xxxxxxxxxxxxx.@ 6e0e67=%::%%%**&%=;$::*&;=-===X+oxxxxxxxxxxxxxxx",
"xxxxxxxxxxxxxo.o876868$--&&&%$;%%=*;=-:$:;-**$oO xxxxxxxxxxxxxxx",
"xxxxxxxxxxxxx+#Xq07q76zlhlgdfgkglzyaijzl$;:$&:.+#xxxxxxxxxxxxxxx",
"xxxxxxxxxxxxx@..6we008gdjhgdgkzfjjpasjhf=;*$-*+ .xxxxxxxxxxxxxxx",
"xxxxxxxxxxxxxO++e960e0ffghzhhlhklfyptlhz$%:-$:@o+xxxxxxxxxxxxxxx",
"xxxxxxxxxxxxxxxxo##zjjuiyupusrraypaayprriiu:;&@Ooxxxxxxxxxxxxxxx",
"xxxxxxxxxxxxxxxxoookkztruiauupypatatttpsypp:=$##Oxxxxxxxxxxxxxxx",
"xxxxxxxxxxxxxxxx+#.jjfyarirratpptytsyrspiis%:%#@ xxxxxxxxxxxxxxx",
"xxxxxxxxxxxxxxxxX  OX @  O#X5<4222aaasraaip$;&OX xxxxxxxxxxxxxxx",
"xxxxxxxxxxxxxxxx@  +o.O #+Oo2,>>3,ruryyupat::;.O xxxxxxxxxxxxxxx",
"xxxxxxxxxxxxxxxx#ooXX+o@#+ .153123ysyisuiuy%:=@o#xxxxxxxxxxxxxxx",
"xxxxxxxxxxxxxxxxo  .@+X@@ XO42345314<putpts.OOxxxxxxxxxxxxxxxxxx",
"xxxxxxxxxxxxxxxx+O.O O@#X ..>4421<442iyuyiuX+oxxxxxxxxxxxxxxxxxx",
"xxxxxxxxxxxxxxxxO o@o++ #oo+1,21<45,2rrtuus@OOxxxxxxxxxxxxxxxxxx",
"xxxxxxxxxxxxxxxxxxxOO <>,yty<>>352tuutut451O.+xxxxxxxxxxxxxxxxxx",
"xxxxxxxxxxxxxxxxxxx+#O24,sta514<22rypysi4>>O  xxxxxxxxxxxxxxxxxx",
"xxxxxxxxxxxxxxxxxxx.o+32,pas43114,yprayp>1<o #xxxxxxxxxxxxxxxxxx",
"xxxxxxxxxxxxxxxxxxx++O3>2iptratiryayy321. @xxxxxxxxxxxxxxxxxxxxx",
"xxxxxxxxxxxxxxxxxxx+++222aupiruiatttu1>1+.+xxxxxxxxxxxxxxxxxxxxx",
"xxxxxxxxxxxxxxxxxxx+#O223yspyrstrytys>,,. Oxxxxxxxxxxxxxxxxxxxxx",
"xxxxxxxxxxxxxOoO O+#X #O+..@oX#oO.OX@o+.xxxxxxxxxxxxxxxxxxxxxxxx",
"xxxxxxxxxxxxx# #.O@o++. #@X#o@X .X@O+X Oxxxxxxxxxxxxxxxxxxxxxxxx",
"xxxxxxxxxxxxxXXO#+ X#O.+@  oo..#OX@ X #Xxxxxxxxxxxxxxxxxxxxxxxxx",
"xxxxxxxxxxxxxoOolkdjhk.oo&&-suirrpo#+xxxxxxxxxxxxxxxxxxxxxxxxxxx",
"xxxxxxxxxxxxx##Xgffhfd. +--:ptrssaO##xxxxxxxxxxxxxxxxxxxxxxxxxxx",
"xxxxxxxxxxxxx.+@ljhfdg.+#*-$ryirauO+ xxxxxxxxxxxxxxxxxxxxxxxxxxx",
"xxxxxxxxxxxxxX.+996ffj. #6w8rruX .Oo@xxxxxxxxxxxxxxxxxxxxxxxxxxx",
"xxxxxxxxxxxxxXOX787klj @ wweria #ooO@xxxxxxxxxxxxxxxxxxxxxxxxxxx",
"xxxxxxxxxxxxxXo w06kgz+@oq96isu. @O@oxxxxxxxxxxxxxxxxxxxxxxxxxxx",
"xxxxxxxxxxxxxX@X&&-srso##+.Xo+.453 X@xxxxxxxxxxxxxxxxxxxxxxxxxxx",
"xxxxxxxxxxxxx   %&:rrp@@#Oo   X2<4+ Xxxxxxxxxxxxxxxxxxxxxxxxxxxx",
"xxxxxxxxxxxxxo. ;&&pup.oO#o@o..4<4. #xxxxxxxxxxxxxxxxxxxxxxxxxxx",
"xxxxxxxxxxxxx@#X;%%ayr+.OtyrtiirirO.oxxxxxxxxxxxxxxxxxxxxxxxxxxx",
"xxxxxxxxxxxxxo@#;&-utr@+ iapirrury+.Oxxxxxxxxxxxxxxxxxxxxxxxxxxx",
"xxxxxxxxxxxxxO #%-&uspX@#rrrrtiriy.X+xxxxxxxxxxxxxxxxxxxxxxxxxxx",
"xxxxxxxxxxxxxo..ypa#+. X@O+.333>1>+##xxxxxxxxxxxxxxxxxxxxxxxxxxx",
"xxxxxxxxxxxxx O.trs.@..O #.O,>>,12@. xxxxxxxxxxxxxxxxxxxxxxxxxxx",
"xxxxxxxxxxxxx.o+rpr#+O#++O++2>>>51+OXxxxxxxxxxxxxxxxxxxxxxxxxxxx",
"xxxxxxxxxxxxxxxxO+#X+@xxx@.opryryy.# xxxxxxxxxxxxxxxxxxxxxxxxxxx",
"xxxxxxxxxxxxxxxx+o@#X.xxx+#Xppuypto# xxxxxxxxxxxxxxxxxxxxxxxxxxx",
"xxxxxxxxxxxxxxxx##O@. xxxXXXstruauO@oxxxxxxxxxxxxxxxxxxxxxxxxxxx",
"xxxxxxxxxxxxxxxxxxxxxxxxxxxxxxxxxxxxxxxxxxxxxxxxxxxxxxxxxxxxxxxx",
"xxxxxxxxxxxxxxxxxxxxxxxxxxxxxxxxxxxxxxxxxxxxxxxxxxxxxxxxxxxxxxxx",
"xxxxxxxxxxxxxxxxxxxxxxxxxxxxxxxxxxxxxxxxxxxxxxxxxxxxxxxxxxxxxxxx",
"xxxxxxxxxxxxxxxxxxxxxxxxxxxxxxxxxxxxxxxxxxxxxxxxxxxxxxxxxxxxxxxx",
"xxxxxxxxxxxxxxxxxxxxxxxxxxxxxxxxxxxxxxxxxxxxxxxxxxxxxxxxxxxxxxxx",
"xxxxxxxxxxxxxxxxxxxxxxxxxxxxxxxxxxxxxxxxxxxxxxxxxxxxxxxxxxxxxxxx",
"xxxxxxxxxxxxxxxxxxxxxxxxxxxxxxxxxxxxxxxxxxxxxxxxxxxxxxxxxxxxxxxx",
"xxxxxxxxxxxxxxxxxxxxxxxxxxxxxxxxxxxxxxxxxxxxxxxxxxxxxxxxxxxxxxxx",
"xxxxxxxxxxxxxxxxxxxxxxxxxxxxxxxxxxxxxxxxxxxxxxxxxxxxxxxxxxxxxxxx",
"xxxxxxxxxxxxxxxxxxxxxxxxxxxxxxxxxxxxxxxxxxxxxxxxxxxxxxxxxxxxxxxx",
"xxxxxxxxxxxxxxxxxxxxxxxxxxxxxxxxxxxxxxxxxxxxxxxxxxxxxxxxxxxxxxxx"
};
