/* XPM */
static char *result[] = {
/* columns rows colors chars-per-pixel */
"64 64 49 1 ",
"  c #0E061A",
". c #0F061A",
"X c #0E071A",
"o c #0F071A",
"O c #0E061B",
"+ c #0F061B",
"@ c #0E071B",
"# c #0F071B",
"$ c #2E2EB0",
"% c #2F2EB0",
"& c #2E2FB0",
"* c #2F2FB0",
"= c #2E2EB1",
"- c #2F2EB1",
"; c #2E2FB1",
": c #2F2FB1",
"> c #647292",
", c #657292",
"< c #647392",
"1 c #657392",
"2 c #647293",
"3 c #657293",
"4 c #647393",
"5 c #657393",
"6 c #726EEA",
"7 c #736EEA",
"8 c #726FEA",
"9 c #736FEA",
"0 c #726EEB",
"q c #736EEB",
"w c #726FEB",
"e c #736FEB",
"r c #92A0B8",
"t c #93A0B8",
"y c #92A1B8",
"u c #93A1B8",
"i c #92A0B9",
"p c #93A0B9",
"a c #92A1B9",
"s c #93A1B9",
"d c #C6CEDC",
"f c #C7CEDC",
"g c #C6CFDC",
"h c #C7CFDC",
"j c #C6CEDD",
"k c #C7CEDD",
"l c #C6CFDD",
"z c #C7CFDD",
"x c None",
/* pixels */
"xxxxxxxxxxxxxxxxxxxxxxxxxxxxxxxxxxxxxxxxxxxxxxxxxxxxxxxxxxxxxxxx",
"xxxxxxxxxxxxxxxxxxxxxxxxxxxxxxxxxxxxxxxxxxxxxxxxxxxxxxxxxxxxxxxx",
"xxxxxxxxxxxxxxxxxxxxxxxxxxxxxxxxxxxxxxxxxxxxxxxxxxxxxxxxxxxxxxxx",
"xxxxxxxxxxxxxxxxxxxxxxxxxxxxxxxxxxxxxxxxxxxxxxxxxxxxxxxxxxxxxxxx",
"xxxxxxxxxxxxxxxxxxxxxxxxxxxxxxxxxxxxxxxxxxxxxxxxxxxxxxxxxxxxxxxx",
"xxxxxxxxxxxxxxxxxxxxxxxxxxxxxxxxxxxxxxxxxxxxxxxxxxxxxxxxxxxxxxxx",
"xxxxxxxxxxxxxxxxxxxxxxxxxxxxxxxxxxxxxxxxxxxxxxxxxxxxxxxxxxxxxxxx",
"xxxxxxxxxxxxxxxxxxxxxxxxxxxxxxxxxxxxxxxxxxxxxxxxxxxxxxxxxxxxxxxx",
"xxxxxxxxxxxxxxxx+OX X# oX#XO+X+#X.OO#XO#+.Oxxxxxxxxxxxxxxxxxxxxx",
"xxxxxxxxxxxxxxxxX.#.o.oo. +O+ X X@  X@o##@ xxxxxxxxxxxxxxxxxxxxx",
"xxxxxxxxxxxxxxxx++ @++oX.@O@#XoO@O####OoX#Oxxxxxxxxxxxxxxxxxxxxx",
"xxxxxxxxxxxxx+@@e8676w9897e087909eqe690wq98O. xxxxxxxxxxxxxxxxxx",
"xxxxxxxxxxxxx@O#w66q880666807e9qw998q760677.oXxxxxxxxxxxxxxxxxxx",
"xxxxxxxxxxxxx# @090ee7qw6w978q70006q77qeeeq OXxxxxxxxxxxxxxxxxxx",
"xxxxxxxxxxxxx.o@q0q96q*=;%-:%%;%&-%%:$-=*%*=&;Xo#xxxxxxxxxxxxxxx",
"xxxxxxxxxxxxx @Oe06w87;*%%=-&&&*$*-%*&$=;-%-*= ##xxxxxxxxxxxxxxx",
"xxxxxxxxxxxxx#o.68809w**$&&;=$*%%;*=$:=%-;--&%@+#xxxxxxxxxxxxxxx",
"xxxxxxxxxxxxx@# 7wq6wqzzhkgfzjklfluitzkl&&$$&;@#+xxxxxxxxxxxxxxx",
"xxxxxxxxxxxxxo+O8067w8flzkfldghkjlarafdk-:;%&;@O xxxxxxxxxxxxxxx",
"xxxxxxxxxxxxx# Oe996w6jdlzfjfdkfzfppazzz:-*%-&.OOxxxxxxxxxxxxxxx",
"xxxxxxxxxxxxxxxx#+ozlgrytaistaapyuprrpisrpy$&;XOXxxxxxxxxxxxxxxx",
"xxxxxxxxxxxxxxxx+ @gjhpiuiiryarusryypprprpp$=$ #Xxxxxxxxxxxxxxxx",
"xxxxxxxxxxxxxxxx+# fhdprtarasursuyururaipip:=&+@ xxxxxxxxxxxxxxx",
"xxxxxxxxxxxxxxxx@..X O#@  OO1>31<2aitayystt%;; @.xxxxxxxxxxxxxxx",
"xxxxxxxxxxxxxxxx@oX@Xo ooO  24,,42rrstaatat%*: OOxxxxxxxxxxxxxxx",
"xxxxxxxxxxxxxxxx+@O+O .+.+X+,>4>>2ssuspypip&$= +.xxxxxxxxxxxxxxx",
"xxxxxxxxxxxxxxxx#o#.O@o o. @41>522,42ayaisu++Oxxxxxxxxxxxxxxxxxx",
"xxxxxxxxxxxxxxxx## XoXo#@@XO2>,233<4>urayai+ oxxxxxxxxxxxxxxxxxx",
"xxxxxxxxxxxxxxxx+ o  @ @O#.X1>,32241,arprua#OOxxxxxxxxxxxxxxxxxx",
"xxxxxxxxxxxxxX++o+o.@@#+.urt42,<45ttittp452 .@xxxxxxxxxxxxxxxxxx",
"xxxxxxxxxxxxxX+@.O#oo  . rit>>,<,2piruri2>4@X#xxxxxxxxxxxxxxxxxx",
"xxxxxxxxxxxxx#  @+ +o.o@+piu5<1121yataui514#O+xxxxxxxxxxxxxxxxxx",
"xxxxxxxxxxxxxX@Okzfjdk+@@utyaraytaytr>22..@xxxxxxxxxxxxxxxxxxxxx",
"xxxxxxxxxxxxx#OXlfjhkl  Xusputpuyttui4>3O. xxxxxxxxxxxxxxxxxxxxx",
"xxxxxxxxxxxxx@# gkgjlf.Oopisyrptaryua>3,O+.xxxxxxxxxxxxxxxxxxxxx",
"xxxxxxxxxxxxxO .97wghk+X@@ XOX+.@+ #@ oXxxxxxxxxxxxxxxxxxxxxxxxx",
"xxxxxxxxxxxxx#Oow76fjdo#@@o@X X..X.XX#+Xxxxxxxxxxxxxxxxxxxxxxxxx",
"xxxxxxxxxxxxx@..w79dlk+@O OX#O#@@. +#O+Oxxxxxxxxxxxxxxxxxxxxxxxx",
"xxxxxxxxxxxxxo#X;$$sypX#o%-:yiippp+OOxxxxxxxxxxxxxxxxxxxxxxxxxxx",
"xxxxxxxxxxxxx.Xo%$;yirX#@==-tsuusa@O+xxxxxxxxxxxxxxxxxxxxxxxxxxx",
"xxxxxxxxxxxxx#@+$:$uyi.oX;=$yyitrr.+ xxxxxxxxxxxxxxxxxxxxxxxxxxx",
"xxxxxxxxxxxxx#+#-==trr.X w79iyr+o@#XXxxxxxxxxxxxxxxxxxxxxxxxxxxx",
"xxxxxxxxxxxxxO +*=%aarX.#q96ppuO X++oxxxxxxxxxxxxxxxxxxxxxxxxxxx",
"xxxxxxxxxxxxx oX-*%upi## 0eqtuiO@XOOoxxxxxxxxxxxxxxxxxxxxxxxxxxx",
"xxxxxxxxxxxxx#. aui.oO.#OXX  X@1,5o#.xxxxxxxxxxxxxxxxxxxxxxxxxxx",
"xxxxxxxxxxxxx#o.tryO@@ @.+O+.+.234@o xxxxxxxxxxxxxxxxxxxxxxxxxxx",
"xxxxxxxxxxxxx+o#ttp@.+X+O# Xo++125.o xxxxxxxxxxxxxxxxxxxxxxxxxxx",
"xxxxxxxxxxxxxxxx+@ o+@+o#tuipssayyo @xxxxxxxxxxxxxxxxxxxxxxxxxxx",
"xxxxxxxxxxxxxxxx+@O@ #XOXtatsirraiX.oxxxxxxxxxxxxxxxxxxxxxxxxxxx",
"xxxxxxxxxxxxxxxx@ #@ .@O+spuaryrpp+.Xxxxxxxxxxxxxxxxxxxxxxxxxxxx",
"xxxxxxxxxxxxxxxxxxxxxx O+.#oiiausto@Oxxxxxxxxxxxxxxxxxxxxxxxxxxx",
"xxxxxxxxxxxxxxxxxxxxxx+o#O  puuraio+#xxxxxxxxxxxxxxxxxxxxxxxxxxx",
"xxxxxxxxxxxxxxxxxxxxxx@ +Xo irrtia+  xxxxxxxxxxxxxxxxxxxxxxxxxxx",
"xxxxxxxxxxxxxxxxxxxxxxxxxxxxxxxxxxxxxxxxxxxxxxxxxxxxxxxxxxxxxxxx",
"xxxxxxxxxxxxxxxxxxxxxxxxxxxxxxxxxxxxxxxxxxxxxxxxxxxxxxxxxxxxxxxx",
"xxxxxxxxxxxxxxxxxxxxxxxxxxxxxxxxxxxxxxxxxxxxxxxxxxxxxxxxxxxxxxxx",
"xxxxxxxxxxxxxxxxxxxxxxxxxxxxxxxxxxxxxxxxxxxxxxxxxxxxxxxxxxxxxxxx",
"xxxxxxxxxxxxxxxxxxxxxxxxxxxxxxxxxxxxxxxxxxxxxxxxxxxxxxxxxxxxxxxx",
"xxxxxxxxxxxxxxxxxxxxxxxxxxxxxxxxxxxxxxxxxxxxxxxxxxxxxxxxxxxxxxxx",
"xxxxxxxxxxxxxxxxxxxxxxxxxxxxxxxxxxxxxxxxxxxxxxxxxxxxxxxxxxxxxxxx",
"xxxxxxxxxxxxxxxxxxxxxxxxxxxxxxxxxxxxxxxxxxxxxxxxxxxxxxxxxxxxxxxx",
"xxxxxxxxxxxxxxxxxxxxxxxxxxxxxxxxxxxxxxxxxxxxxxxxxxxxxxxxxxxxxxxx",
"xxxxxxxxxxxxxxxxxxxxxxxxxxxxxxxxxxxxxxxxxxxxxxxxxxxxxxxxxxxxxxxx",
"xxxxxxxxxxxxxxxxxxxxxxxxxxxxxxxxxxxxxxxxxxxxxxxxxxxxxxxxxxxxxxxx"
};
