/* XPM */
static char *result[] = {
/* columns rows colors chars-per-pixel */
"64 64 49 1 ",
"  c #0E061A",
". c #0F061A",
"X c #0E071A",
"o c #0F071A",
"O c #0E061B",
"+ c #0F061B",
"@ c #0E071B",
"# c #0F071B",
"$ c #2E2EB0",
"% c #2F2EB0",
"& c #2E2FB0",
"* c #2F2FB0",
"= c #2E2EB1",
"- c #2F2EB1",
"; c #2E2FB1",
": c #2F2FB1",
"> c #647292",
", c #657292",
"< c #647392",
"1 c #657392",
"2 c #647293",
"3 c #657293",
"4 c #647393",
"5 c #657393",
"6 c #726EEA",
"7 c #736EEA",
"8 c #726FEA",
"9 c #736FEA",
"0 c #726EEB",
"q c #736EEB",
"w c #726FEB",
"e c #736FEB",
"r c #92A0B8",
"t c #93A0B8",
"y c #92A1B8",
"u c #93A1B8",
"i c #92A0B9",
"p c #93A0B9",
"a c #92A1B9",
"s c #93A1B9",
"d c #C6CEDC",
"f c #C7CEDC",
"g c #C6CFDC",
"h c #C7CFDC",
"j c #C6CEDD",
"k c #C7CEDD",
"l c #C6CFDD",
"z c #C7CFDD",
"x c None",
/* pixels */
"xxxxxxxxxxxxxxxxxxxxxxxxxxxxxxxxxxxxxxxxxxxxxxxxxxxxxxxxxxxxxxxx",
"xxxxxxxxxxxxxxxxxxxxxxxxxxxxxxxxxxxxxxxxxxxxxxxxxxxxxxxxxxxxxxxx",
"xxxxxxxxxxxxxxxxxxxxxxxxxxxxxxxxxxxxxxxxxxxxxxxxxxxxxxxxxxxxxxxx",
"xxxxxxxxxxxxxxxxxxxxxxxxxxxxxxxxxxxxxxxxxxxxxxxxxxxxxxxxxxxxxxxx",
"xxxxxxxxxxxxxxxxxxxxxxxxxxxxxxxxxxxxxxxxxxxxxxxxxxxxxxxxxxxxxxxx",
"xxxxxxxxxxxxxxxxxxxO+OXOo@@ oX@+ .O @#o+XX@oO.xxxxxxxxxxxxxxxxxx",
"xxxxxxxxxxxxxxxxxxx+@#@.@.X+X  X   OOo.@## @ooxxxxxxxxxxxxxxxxxx",
"xxxxxxxxxxxxxxxxxxx.o@@ ##o@OO+X +oXX+X#O#@ O+xxxxxxxxxxxxxxxxxx",
"xxxxxxxxxxxxxxxxOo 87qeee9e7776099q96889e80779@OOxxxxxxxxxxxxxxx",
"xxxxxxxxxxxxxxxx@. 6e6q66q7e9878eq66666q96669e@@#xxxxxxxxxxxxxxx",
"xxxxxxxxxxxxxxxx @ e7e9e9eq68067q97986870q6670XX@xxxxxxxxxxxxxxx",
"xxxxxxxxxxxxx@.X-$%*::=-%;*-$$%:*%:-%*=*68eq60 . xxxxxxxxxxxxxxx",
"xxxxxxxxxxxxxX++:*-%:&--:&**&&;%*&-;&:*$6686wwo@ xxxxxxxxxxxxxxx",
"xxxxxxxxxxxxxo+X-$--=--:=*=&&-=*$-&&;&&:wq99qe..oxxxxxxxxxxxxxxx",
"xxxxxxxxxxxxxO+X&&=;&&hkztrszhfjlffgjhjlq07000XX+xxxxxxxxxxxxxxx",
"xxxxxxxxxxxxxXO.;&%=-=fgkpiillklgdfhlhldww6q09.+#xxxxxxxxxxxxxxx",
"xxxxxxxxxxxxxOO.*:$*:=jdhasrfzjddhzflgdd70868w.X#xxxxxxxxxxxxxxx",
"xxxxxxxxxxxxxX@X=$$usiurppytirptstsayrupjll@#@xxxxxxxxxxxxxxxxxx",
"xxxxxxxxxxxxxX#.==$pprttityyrsyisyiarsirzdh@ .xxxxxxxxxxxxxxxxxx",
"xxxxxxxxxxxxx.@ &;:papyaryasrasiussystrrfgdo++xxxxxxxxxxxxxxxxxx",
"xxxxxxxxxxxxx.@O;:%rtyatytas22<2,<.O.O@@O.+O++xxxxxxxxxxxxxxxxxx",
"xxxxxxxxxxxxx#@ **-isiaytsyr24,222.@+#.O@X@@.Xxxxxxxxxxxxxxxxxxx",
"xxxxxxxxxxxxx.o.-$&rtpuayasu24><<>.XO++.+@  @ xxxxxxxxxxxxxxxxxx",
"xxxxxxxxxxxxxxxx+@.usryru24>225>>1@X #@ .O+#@@xxxxxxxxxxxxxxxxxx",
"xxxxxxxxxxxxxxxxo +yiyiru224352,22o @##XX o+o#xxxxxxxxxxxxxxxxxx",
"xxxxxxxxxxxxxxxx.Ooatuiry2,42223<1@.o.@OX# # .xxxxxxxxxxxxxxxxxx",
"xxxxxxxxxxxxxxxx@o ,4<rtiirt55<>24yruarto.#.#Oxxxxxxxxxxxxxxxxxx",
"xxxxxxxxxxxxxxxx@ O423rystas4,3>>2tutpus+ #+#.xxxxxxxxxxxxxxxxxx",
"xxxxxxxxxxxxxxxx.@#213auaiaa52>545aipritO X#+oxxxxxxxxxxxxxxxxxx",
"xxxxxxxxxxxxxxxxxxx#..222rtuasuptrytyO##X@o.#++#Xxxxxxxxxxxxxxxx",
"xxxxxxxxxxxxxxxxxxx..+214rurtaprtspus@oOoXXoX ++ xxxxxxxxxxxxxxx",
"xxxxxxxxxxxxxxxxxxx # 222stsprsssysir@#oO.+X.#O oxxxxxxxxxxxxxxx",
"xxxxxxxxxxxxxxxxxxxxxxoX o+o@@## .XX@#O.ddjkzd.@oxxxxxxxxxxxxxxx",
"xxxxxxxxxxxxxxxxxxxxxxX#o@X o.@@ X@XX@@ zkfjfgoO#xxxxxxxxxxxxxxx",
"xxxxxxxxxxxxxxxxxxxxxx #O##OOO@XOO#@ oO.fljgkgoo@xxxxxxxxxxxxxxx",
"xxxxxxxxxxxxxxxxxxxxxxxxx@+.pptiau:%%oX.jhlq6e OOxxxxxxxxxxxxxxx",
"xxxxxxxxxxxxxxxxxxxxxxxxx+ooaususr%=-#+ojjdq79o##xxxxxxxxxxxxxxx",
"xxxxxxxxxxxxxxxxxxxxxxxxx.#.rarpya$==@O.klf978..@xxxxxxxxxxxxxxx",
"xxxxxxxxxxxxxxxxxxxxxxxxxXX#o#.tri998#+Xtys$$; +oxxxxxxxxxxxxxxx",
"xxxxxxxxxxxxxxxxxxxxxxxxxoo.  +appe6wX+.tia=*:X Xxxxxxxxxxxxxxxx",
"xxxxxxxxxxxxxxxxxxxxxxxxxoOOo +iup790Xo+iuy$:-.@#xxxxxxxxxxxxxxx",
"xxxxxxxxxxxxxxxxxxxxxxxxx#@o441@@+OXX.X urt$;-+ooxxxxxxxxxxxxxxx",
"xxxxxxxxxxxxxxxxxxxxxxxxx.oX432+# .O+@XOrya%=*.XOxxxxxxxxxxxxxxx",
"xxxxxxxxxxxxxxxxxxxxxxxxx .o524+@#X##.+#ppu%*=oo xxxxxxxxxxxxxxx",
"xxxxxxxxxxxxxxxxxxxxxxxxxOX+arrstppyp@++OoOttuX.@xxxxxxxxxxxxxxx",
"xxxxxxxxxxxxxxxxxxxxxxxxxo.opiuriutii.@ X@ yui+ooxxxxxxxxxxxxxxx",
"xxxxxxxxxxxxxxxxxxxxxxxxxoX+uaryysuiuO#@@.@ptt+#Oxxxxxxxxxxxxxxx",
"xxxxxxxxxxxxxxxxxxxxxxxxxO#+3<2,1> ..#o+X+o O+xxxxxxxxxxxxxxxxxx",
"xxxxxxxxxxxxxxxxxxxxxxxxxXoX4,2,>>X@# OX# @O@Oxxxxxxxxxxxxxxxxxx",
"xxxxxxxxxxxxxxxxxxxxxxxxxO.+<,4325@OO.O #.@#X@xxxxxxxxxxxxxxxxxx",
"xxxxxxxxxxxxxxxxxxxxxxxxxO#@rtaaiy.+@+O xxxxxxxxxxxxxxxxxxxxxxxx",
"xxxxxxxxxxxxxxxxxxxxxxxxxO+oparuut XO#oOxxxxxxxxxxxxxxxxxxxxxxxx",
"xxxxxxxxxxxxxxxxxxxxxxxxx+@.yrtrrtOoX+ @xxxxxxxxxxxxxxxxxxxxxxxx",
"xxxxxxxxxxxxxxxxxxxxxxxxxxxxxxxxxxxxxxxxxxxxxxxxxxxxxxxxxxxxxxxx",
"xxxxxxxxxxxxxxxxxxxxxxxxxxxxxxxxxxxxxxxxxxxxxxxxxxxxxxxxxxxxxxxx",
"xxxxxxxxxxxxxxxxxxxxxxxxxxxxxxxxxxxxxxxxxxxxxxxxxxxxxxxxxxxxxxxx",
"xxxxxxxxxxxxxxxxxxxxxxxxxxxxxxxxxxxxxxxxxxxxxxxxxxxxxxxxxxxxxxxx",
"xxxxxxxxxxxxxxxxxxxxxxxxxxxxxxxxxxxxxxxxxxxxxxxxxxxxxxxxxxxxxxxx",
"xxxxxxxxxxxxxxxxxxxxxxxxxxxxxxxxxxxxxxxxxxxxxxxxxxxxxxxxxxxxxxxx",
"xxxxxxxxxxxxxxxxxxxxxxxxxxxxxxxxxxxxxxxxxxxxxxxxxxxxxxxxxxxxxxxx",
"xxxxxxxxxxxxxxxxxxxxxxxxxxxxxxxxxxxxxxxxxxxxxxxxxxxxxxxxxxxxxxxx",
"xxxxxxxxxxxxxxxxxxxxxxxxxxxxxxxxxxxxxxxxxxxxxxxxxxxxxxxxxxxxxxxx",
"xxxxxxxxxxxxxxxxxxxxxxxxxxxxxxxxxxxxxxxxxxxxxxxxxxxxxxxxxxxxxxxx",
"xxxxxxxxxxxxxxxxxxxxxxxxxxxxxxxxxxxxxxxxxxxxxxxxxxxxxxxxxxxxxxxx"
};
