/* XPM */
static char *result[] = {
/* columns rows colors chars-per-pixel */
"64 64 49 1 ",
"  c #0E061A",
". c #0F061A",
"X c #0E071A",
"o c #0F071A",
"O c #0E061B",
"+ c #0F061B",
"@ c #0E071B",
"# c #0F071B",
"$ c #2E2EB0",
"% c #2F2EB0",
"& c #2E2FB0",
"* c #2F2FB0",
"= c #2E2EB1",
"- c #2F2EB1",
"; c #2E2FB1",
": c #2F2FB1",
"> c #647292",
", c #657292",
"< c #647392",
"1 c #657392",
"2 c #647293",
"3 c #657293",
"4 c #647393",
"5 c #657393",
"6 c #726EEA",
"7 c #736EEA",
"8 c #726FEA",
"9 c #736FEA",
"0 c #726EEB",
"q c #736EEB",
"w c #726FEB",
"e c #736FEB",
"r c #92A0B8",
"t c #93A0B8",
"y c #92A1B8",
"u c #93A1B8",
"i c #92A0B9",
"p c #93A0B9",
"a c #92A1B9",
"s c #93A1B9",
"d c #C6CEDC",
"f c #C7CEDC",
"g c #C6CFDC",
"h c #C7CFDC",
"j c #C6CEDD",
"k c #C7CEDD",
"l c #C6CFDD",
"z c #C7CFDD",
"x c None",
/* pixels */
"xxxxxxxxxxxxxxxxxxxxxxxxxxxxxxxxxxxxxxxxxxxxxxxxxxxxxxxxxxxxxxxx",
"xxxxxxxxxxxxxxxxxxxxxxxxxxxxxxxxxxxxxxxxxxxxxxxxxxxxxxxxxxxxxxxx",
"xxxxxxxxxxxxxxxxxxxxxxxxxxxxxxxxxxxxxxxxxxxxxxxxxxxxxxxxxxxxxxxx",
"xxxxxxxxxxxxxxxxxxxxxxxxxxxxxxxxxxxxxxxxxxxxxxxxxxxxxxxxxxxxxxxx",
"xxxxxxxxxxxxxxxxxxxxxxxxxxxxxxxxxxxxxxxxxxxxxxxxxxxxxxxxxxxxxxxx",
"xxxxxxxxxxxxxxxxxxxxxxxxxxxxxxxxxxxxxxxxxxxxxxxxxxxxxxxxxxxxxxxx",
"xxxxxxxxxxxxxxxxxxxxxxxxxxxxxxxxxxxxxxxxxxxxxxxxxxxxxxxxxxxxxxxx",
"xxxxxxxxxxxxxxxxxxxxxxxxxxxxxxxxxxxxxxxxxxxxxxxxxxxxxxxxxxxxxxxx",
"xxxxxxxxxxxxxxxx#@XOo++oX@X . O#X+X#OX.#..Xxxxxxxxxxxxxxxxxxxxxx",
"xxxxxxxxxxxxxxxx.#o.oo.o++OO. @o o+@.@o##. xxxxxxxxxxxxxxxxxxxxx",
"xxxxxxxxxxxxxxxx+@..oOXX o# #XX++O####OX#. xxxxxxxxxxxxxxxxxxxxx",
"xxxxxxxxxxxxx++owq878e98906q996e607e0e0wq78.oOxxxxxxxxxxxxxxxxxx",
"xxxxxxxxxxxxx#@.w90q6867e8q79ee0w99w6067879+o#xxxxxxxxxxxxxxxxxx",
"xxxxxxxxxxxxxo @0998q7607870ew07860e77e7eeqO+#xxxxxxxxxxxxxxxxxx",
"xxxxxxxxxxxxx.o@q8qe00-;&%=:%*:%$==%;--=&=*=$-o.#xxxxxxxxxxxxxxx",
"xxxxxxxxxxxxxXO+8w788q=:;%;-;&;$$$$=*=&$;=%=%=+ooxxxxxxxxxxxxxxx",
"xxxxxxxxxxxxx +o08869w;***&;&$*$%$&;%:-%%;$=&%@+oxxxxxxxxxxxxxxx",
"xxxxxxxxxxxxx@+o7w6707zlfkgddjlghzairfkh&&$=&*X#@xxxxxxxxxxxxxxx",
"xxxxxxxxxxxxx#o q0q9e8dljzfkddgklgsyafdh-%=%%*.X.xxxxxxxxxxxxxxx",
"xxxxxxxxxxxxx. #w9q006jglzhkhdjzzftpphjl$-;%:*.++xxxxxxxxxxxxxxx",
"xxxxxxxxxxxxxxxx@# dgdtyiyaysatpyyrrttippuy$&&oOXxxxxxxxxxxxxxxx",
"xxxxxxxxxxxxxxxx. #ljzpyyiatasysaruaripippp$;= #+xxxxxxxxxxxxxxx",
"xxxxxxxxxxxxxxxx+#.jhjiyraiiastuupsyarpitis==&.@Xxxxxxxxxxxxxxxx",
"xxxxxxxxxxxxxxxx@.+# +#@. @.5>><54aasyiaput%&&XO xxxxxxxxxxxxxxx",
"xxxxxxxxxxxxxxxx o+ X@OooOO.23>3<,iyatiypar-*;O+#xxxxxxxxxxxxxxx",
"xxxxxxxxxxxxxxxx XX @+X+ +X.,>4142upuyruita;;%o+.xxxxxxxxxxxxxxx",
"xxxxxxxxxxxxxxxx# oOO@#.o+X#43352>122araipr+@ xxxxxxxxxxxxxxxxxx",
"xxxxxxxxxxxxxxxx#oOoXoX@##.+>2>23,<4>uysaiyO.Xxxxxxxxxxxxxxxxxxx",
"xxxxxxxxxxxxxxxx+XX #+OOOo.X4<3222,,2iritrsX@.xxxxxxxxxxxxxxxxxx",
"xxxxxxxxxxxxxxxxxxxO++312yrp422524ttprui433 .#xxxxxxxxxxxxxxxxxx",
"xxxxxxxxxxxxxxxxxxx.++222ist3>>5<3usruri><1@ @xxxxxxxxxxxxxxxxxx",
"xxxxxxxxxxxxxxxxxxx+.O242raa43<425yipayr5,2#O xxxxxxxxxxxxxxxxxx",
"xxxxxxxxxxxxx#+ X#@ @#++Oiuripssuatyt3<3 o xxxxxxxxxxxxxxxxxxxxx",
"xxxxxxxxxxxxx@.#+@oX+Oo +apratusrttti<12Oo.xxxxxxxxxxxxxxxxxxxxx",
"xxxxxxxxxxxxx#oOo#O+o @+#uauyspryrpra233 #Oxxxxxxxxxxxxxxxxxxxxx",
"xxxxxxxxxxxxxo@.lkdlhhO#o@ @ @#.X@X+X.Ooxxxxxxxxxxxxxxxxxxxxxxxx",
"xxxxxxxxxxxxxXO#zhfkkd  oo+#o.@X#XO oo.Xxxxxxxxxxxxxxxxxxxxxxxxx",
"xxxxxxxxxxxxx##.gzhkjf+##OOXo O @O +@O++xxxxxxxxxxxxxxxxxxxxxxxx",
"xxxxxxxxxxxxxX .968dzj  X%;:ritpir+OOxxxxxxxxxxxxxxxxxxxxxxxxxxx",
"xxxxxxxxxxxxx.@o6q7flk@+@$==pauuts@X#xxxxxxxxxxxxxxxxxxxxxxxxxxx",
"xxxxxxxxxxxxx@+.w9ejlf.@X===atitrt.+ xxxxxxxxxxxxxxxxxxxxxxxxxxx",
"xxxxxxxxxxxxx#+@**-uyi##o979prrOoo+ooxxxxxxxxxxxxxxxxxxxxxxxxxxx",
"xxxxxxxxxxxxx@X =$;iai #@087api   ..Xxxxxxxxxxxxxxxxxxxxxxxxxxxx",
"xxxxxxxxxxxxxXO %**atr+.#0q0pap.XX O#xxxxxxxxxxxxxxxxxxxxxxxxxxx",
"xxxxxxxxxxxxx@#@=$%srp   X X+@O144@Ooxxxxxxxxxxxxxxxxxxxxxxxxxxx",
"xxxxxxxxxxxxx+X.%==ayr@oO.O@. +254XXOxxxxxxxxxxxxxxxxxxxxxxxxxxx",
"xxxxxxxxxxxxxOo@**$usrX# #Oo#++143.#@xxxxxxxxxxxxxxxxxxxxxxxxxxx",
"xxxxxxxxxxxxx@+ yup....OOutipiyayi@o@xxxxxxxxxxxxxxxxxxxxxxxxxxx",
"xxxxxxxxxxxxx#o tus @# O iyrsaytai#O.xxxxxxxxxxxxxxxxxxxxxxxxxxx",
"xxxxxxxxxxxxx.##rtt#+O # uusataripOoXxxxxxxxxxxxxxxxxxxxxxxxxxxx",
"xxxxxxxxxxxxxxxxOOOo@o+o#++ rauaar@Ooxxxxxxxxxxxxxxxxxxxxxxxxxxx",
"xxxxxxxxxxxxxxxx+ +@ ##XX @+suurato@+xxxxxxxxxxxxxxxxxxxxxxxxxxx",
"xxxxxxxxxxxxxxxx#O@ oOo@.Xo rriusu.X.xxxxxxxxxxxxxxxxxxxxxxxxxxx",
"xxxxxxxxxxxxxxxxxxxxxxxxxxxxxxxxxxxxxxxxxxxxxxxxxxxxxxxxxxxxxxxx",
"xxxxxxxxxxxxxxxxxxxxxxxxxxxxxxxxxxxxxxxxxxxxxxxxxxxxxxxxxxxxxxxx",
"xxxxxxxxxxxxxxxxxxxxxxxxxxxxxxxxxxxxxxxxxxxxxxxxxxxxxxxxxxxxxxxx",
"xxxxxxxxxxxxxxxxxxxxxxxxxxxxxxxxxxxxxxxxxxxxxxxxxxxxxxxxxxxxxxxx",
"xxxxxxxxxxxxxxxxxxxxxxxxxxxxxxxxxxxxxxxxxxxxxxxxxxxxxxxxxxxxxxxx",
"xxxxxxxxxxxxxxxxxxxxxxxxxxxxxxxxxxxxxxxxxxxxxxxxxxxxxxxxxxxxxxxx",
"xxxxxxxxxxxxxxxxxxxxxxxxxxxxxxxxxxxxxxxxxxxxxxxxxxxxxxxxxxxxxxxx",
"xxxxxxxxxxxxxxxxxxxxxxxxxxxxxxxxxxxxxxxxxxxxxxxxxxxxxxxxxxxxxxxx",
"xxxxxxxxxxxxxxxxxxxxxxxxxxxxxxxxxxxxxxxxxxxxxxxxxxxxxxxxxxxxxxxx",
"xxxxxxxxxxxxxxxxxxxxxxxxxxxxxxxxxxxxxxxxxxxxxxxxxxxxxxxxxxxxxxxx",
"xxxxxxxxxxxxxxxxxxxxxxxxxxxxxxxxxxxxxxxxxxxxxxxxxxxxxxxxxxxxxxxx"
};
