/* XPM */
static char *result[] = {
/* columns rows colors chars-per-pixel */
"64 64 49 1 ",
"  c #0E061A",
". c #0F061A",
"X c #0E071A",
"o c #0F071A",
"O c #0E061B",
"+ c #0F061B",
"@ c #0E071B",
"# c #0F071B",
"$ c #2E2EB0",
"% c #2F2EB0",
"& c #2E2FB0",
"* c #2F2FB0",
"= c #2E2EB1",
"- c #2F2EB1",
"; c #2E2FB1",
": c #2F2FB1",
"> c #647292",
", c #657292",
"< c #647392",
"1 c #657392",
"2 c #647293",
"3 c #657293",
"4 c #647393",
"5 c #657393",
"6 c #726EEA",
"7 c #736EEA",
"8 c #726FEA",
"9 c #736FEA",
"0 c #726EEB",
"q c #736EEB",
"w c #726FEB",
"e c #736FEB",
"r c #92A0B8",
"t c #93A0B8",
"y c #92A1B8",
"u c #93A1B8",
"i c #92A0B9",
"p c #93A0B9",
"a c #92A1B9",
"s c #93A1B9",
"d c #C6CEDC",
"f c #C7CEDC",
"g c #C6CFDC",
"h c #C7CFDC",
"j c #C6CEDD",
"k c #C7CEDD",
"l c #C6CFDD",
"z c #C7CFDD",
"x c None",
/* pixels */
"xxxxxxxxxxxxxxxxxxxxxxxxxxxxxxxxxxxxxxxxxxxxxxxxxxxxxxxxxxxxxxxx",
"xxxxxxxxxxxxxxxxxxxxxxxxxxxxxxxxxxxxxxxxxxxxxxxxxxxxxxxxxxxxxxxx",
"xxxxxxxxxxxxxxxxxxxxxxxxxxxxxxxxxxxxxxxxxxxxxxxxxxxxxxxxxxxxxxxx",
"xxxxxxxxxxxxxxxxxxxxxxxxxxxxxxxxxxxxxxxxxxxxxxxxxxxxxxxxxxxxxxxx",
"xxxxxxxxxxxxxxxxxxxxxxxxxxxxxxxxxxxxxxxxxxxxxxxxxxxxxxxxxxxxxxxx",
"xxxxxxxxxxxxxxxxxxxxxxxxxxxxxxxxxxxxxxxxxxxxxxxxxxxxxxxxxxxxxxxx",
"xxxxxxxxxxxxxxxxxxxxxxxxxxxxxxxxxxxxxxxxxxxxxxxxxxxxxxxxxxxxxxxx",
"xxxxxxxxxxxxxxxxxxxxxxxxxxxxxxxxxxxxxxxxxxxxxxxxxxxxxxxxxxxxxxxx",
"xxxxxxxxxxxxxxxxxxxxxxxxxxxx. Oo+XOXo##@xxxxxxxxxxxxxxxxxxxxxxxx",
"xxxxxxxxxxxxxxxxxxxxxxxxxxxx .O@+@ @#O#oxxxxxxxxxxxxxxxxxxxxxxxx",
"xxxxxxxxxxxxxxxxxxxxxxxxxxxx#.@.. XO #@#xxxxxxxxxxxxxxxxxxxxxxxx",
"xxxxxxxxxxxxxxxxxxxxxx@@O+oo#..7e9qqq.##X# o.Oxxxxxxxxxxxxxxxxxx",
"xxxxxxxxxxxxxxxxxxxxxx @ XX.@ .06807wXXX@ X..Xxxxxxxxxxxxxxxxxxx",
"xxxxxxxxxxxxxxxxxxxxxxXOo+O o+#8q86e9.oX.oXX @xxxxxxxxxxxxxxxxxx",
"xxxxxxxxxxxxxxxxxxxOo zhlgzg +O-=*$$-o odjfldz.O xxxxxxxxxxxxxxx",
"xxxxxxxxxxxxxxxxxxx@o+gdkkgk X -=$%-:Oo+zldfkf  #xxxxxxxxxxxxxxx",
"xxxxxxxxxxxxxxxxxxx++ ghhzfjOoX-:%=::. .fdhkdz X#xxxxxxxxxxxxxxx",
"xxxxxxxxxxxxxxxxX++O. kkztrr. O%**$-& .ottidgd@@#xxxxxxxxxxxxxxx",
"xxxxxxxxxxxxxxxx @@@+ jhdris+  &:****XoXssyjkd@ @xxxxxxxxxxxxxxx",
"xxxxxxxxxxxxxxxxX.+O.@fdfrst@O.=-%&;=@#+uutfhf OOxxxxxxxxxxxxxxx",
"xxxxxxxxxxxxxxxx@o#jfzsytittasirupsiissuupsrtthkj#+Xxxxxxxxxxxxx",
"xxxxxxxxxxxxxxxx+@@zdjartiusaauarratauurtayassgjg#OXxxxxxxxxxxxx",
"xxxxxxxxxxxxxxxxo@@gdgaypuaratytyystautytrpsushdgO+oxxxxxxxxxxxx",
"xxxxxxxxxxxxxxxx..Otypysy X.+.oo+oO.#@O.o#Xtriaus.@@xxxxxxxxxxxx",
"xxxxxxxxxxxxxxxxX# itsiia+#O#+.#+ #+ @O++X riyrsa+@+xxxxxxxxxxxx",
"xxxxxxxxxxxxxxxx. .supspy#X OO+#O.O#.o..+o+tptryaO. xxxxxxxxxxxx",
"xxxxxxxxxxxxxxxx+.O2>,224 oo.OXXo@@.O+XO#X+<,43<5#O#xxxxxxxxxxxx",
"xxxxxxxxxxxxxxxx@..353>>5OOOO#.oO o#X@.+.o+11345<+.+xxxxxxxxxxxx",
"xxxxxxxxxxxxxxxx##O<<<415X#O .#X.@.#@+X#@O@35,,5>XOXxxxxxxxxxxxx",
"xxxxxxxxxx+OOo@oOO+Xo#X#+Oo..Oo ..+@+fhdgzhair#Ooxxxxxxxxxxxxxxx",
"xxxxxxxxxxXO+. Xo@@@@O@ X   . @ o.o+Ogzlhzjytu +@xxxxxxxxxxxxxxx",
"xxxxxxxxxxX  .o+#.O@@+##.@   X #+O#@@ljhhjftir#+#xxxxxxxxxxxxxxx",
"xxxxxxxxxx O#uaiapihzflzjklkXX@o+.+@#ppuury#.#+# xxxxxxxxxxxxxxx",
"xxxxxxxxxx#+#tratardlhhflfjkOoO+ XX XtiatypX@@.#@xxxxxxxxxxxxxxx",
"xxxxxxxxxxXo+ausspsfkgfzjkzz#.o  #O #psrtuaXoX+oOxxxxxxxxxxxxxxx",
"xxxxxxxxxxOX rir*%=weww7qhkk@@+X..o+@+ooO@@jzlkfz+.Xxxxxxxxxxxxx",
"xxxxxxxxxxo@.tpa;%-687678gdg+o+ @@#oO .oO Ohddlzj+#oxxxxxxxxxxxx",
"xxxxxxxxxxo. ara$*$8977eqjgzOX #o@. XoOX#oozfgdhk#+ xxxxxxxxxxxx",
"xxxxxxxxxx@ #41,=$%-$&w76yaa#oX414>>5tsp>1<ssseeeq98 +.xxxxxxxxx",
"xxxxxxxxxxX#X4<,==&%$%0qqari+Oo1,3,>5uat5>5sasw68w0e+##xxxxxxxxx",
"xxxxxxxxxx Oo,5,-:%$&=980rar# O1522,3pau<15sasqw009e #@xxxxxxxxx",
"xxxxxxxxxx.#@,3<**:%*-w6wttp @@yppsyapau,>,@+O551yyuO.@xxxxxxxxx",
"xxxxxxxxxxoX.<13;$-*::we6uau#..usrusaptu1<4.@O511rur +.xxxxxxxxx",
"xxxxxxxxxx.X#111$:-%-*7q0ytu.##itutspitr<3> ..4<1auiX.oxxxxxxxxx",
"xxxxxxxxxxxxx++.,>2<55tyi OX>3,144,,5<25,4<o+##O#@#Xxxxxxxxxxxxx",
"xxxxxxxxxxxxxO+ 4><>41asao@.4531,445412<123o #OoXO@ xxxxxxxxxxxx",
"xxxxxxxxxxxxxXoO<22141siuO O3221<13>515,<24o@o#.#.+oxxxxxxxxxxxx",
"xxxxxxxxxxxxxxxx##Xo O..+zzdstptpssuptsttysOooxxxxxxxxxxxxxxxxxx",
"xxxxxxxxxxxxxxxx #@+o O##zghtssysasuttutuys.OXxxxxxxxxxxxxxxxxxx",
"xxxxxxxxxxxxxxxx@oOX++X#@fhfisssrusattsrsuuXO+xxxxxxxxxxxxxxxxxx",
"xxxxxxxxxxxxxxxxxxxxxx.XXlfhhhhO.#o .ptiriio@#xxxxxxxxxxxxxxxxxx",
"xxxxxxxxxxxxxxxxxxxxxxoOXflhfhhX@O.O+piryia###xxxxxxxxxxxxxxxxxx",
"xxxxxxxxxxxxxxxxxxxxxx#o#kdzhhh+@oo OirrrprO.+xxxxxxxxxxxxxxxxxx",
"xxxxxxxxxxxxxxxxxxxxxxxxxxxxxxxxxxxxxxxxxxxxxxxxxxxxxxxxxxxxxxxx",
"xxxxxxxxxxxxxxxxxxxxxxxxxxxxxxxxxxxxxxxxxxxxxxxxxxxxxxxxxxxxxxxx",
"xxxxxxxxxxxxxxxxxxxxxxxxxxxxxxxxxxxxxxxxxxxxxxxxxxxxxxxxxxxxxxxx",
"xxxxxxxxxxxxxxxxxxxxxxxxxxxxxxxxxxxxxxxxxxxxxxxxxxxxxxxxxxxxxxxx",
"xxxxxxxxxxxxxxxxxxxxxxxxxxxxxxxxxxxxxxxxxxxxxxxxxxxxxxxxxxxxxxxx",
"xxxxxxxxxxxxxxxxxxxxxxxxxxxxxxxxxxxxxxxxxxxxxxxxxxxxxxxxxxxxxxxx",
"xxxxxxxxxxxxxxxxxxxxxxxxxxxxxxxxxxxxxxxxxxxxxxxxxxxxxxxxxxxxxxxx",
"xxxxxxxxxxxxxxxxxxxxxxxxxxxxxxxxxxxxxxxxxxxxxxxxxxxxxxxxxxxxxxxx",
"xxxxxxxxxxxxxxxxxxxxxxxxxxxxxxxxxxxxxxxxxxxxxxxxxxxxxxxxxxxxxxxx",
"xxxxxxxxxxxxxxxxxxxxxxxxxxxxxxxxxxxxxxxxxxxxxxxxxxxxxxxxxxxxxxxx",
"xxxxxxxxxxxxxxxxxxxxxxxxxxxxxxxxxxxxxxxxxxxxxxxxxxxxxxxxxxxxxxxx"
};
