/* XPM */
static char *result[] = {
/* columns rows colors chars-per-pixel */
"64 64 49 1 ",
"  c #0E061A",
". c #0F061A",
"X c #0E071A",
"o c #0F071A",
"O c #0E061B",
"+ c #0F061B",
"@ c #0E071B",
"# c #0F071B",
"$ c #2E2EB0",
"% c #2F2EB0",
"& c #2E2FB0",
"* c #2F2FB0",
"= c #2E2EB1",
"- c #2F2EB1",
"; c #2E2FB1",
": c #2F2FB1",
"> c #647292",
", c #657292",
"< c #647392",
"1 c #657392",
"2 c #647293",
"3 c #657293",
"4 c #647393",
"5 c #657393",
"6 c #726EEA",
"7 c #736EEA",
"8 c #726FEA",
"9 c #736FEA",
"0 c #726EEB",
"q c #736EEB",
"w c #726FEB",
"e c #736FEB",
"r c #92A0B8",
"t c #93A0B8",
"y c #92A1B8",
"u c #93A1B8",
"i c #92A0B9",
"p c #93A0B9",
"a c #92A1B9",
"s c #93A1B9",
"d c #C6CEDC",
"f c #C7CEDC",
"g c #C6CFDC",
"h c #C7CFDC",
"j c #C6CEDD",
"k c #C7CEDD",
"l c #C6CFDD",
"z c #C7CFDD",
"x c None",
/* pixels */
"xxxxxxxxxxxxxxxxxxxxxxxxxxxxxxxxxxxxxxxxxxxxxxxxxxxxxxxxxxxxxxxx",
"xxxxxxxxxxxxxxxxxxxxxxxxxxxxxxxxxxxxxxxxxxxxxxxxxxxxxxxxxxxxxxxx",
"xxxxxxxxxxxxxxxxxxxxxxxxxxxxxxxxxxxxxxxxxxxxxxxxxxxxxxxxxxxxxxxx",
"xxxxxxxxxxxxxxxxxxxxxxxxxxxxxxxxxxxxxxxxxxxxxxxxxxxxxxxxxxxxxxxx",
"xxxxxxxxxxxxxxxxxxxxxxxxxxxxxxxxxxxxxxxxxxxxxxxxxxxxxxxxxxxxxxxx",
"xxxxxxxxxxxxxxxxxxxxxxxxxxxx ++X#@+  @O.xxxxxxxxxxxxxxxxxxxxxxxx",
"xxxxxxxxxxxxxxxxxxxxxxxxxxxx O+Xo +X+XX xxxxxxxxxxxxxxxxxxxxxxxx",
"xxxxxxxxxxxxxxxxxxxxxxxxxxxxX@   ..+OX Xxxxxxxxxxxxxxxxxxxxxxxxx",
"xxxxxxxxxxxxxxxxxxxxxx.+oO.@+OX706877++X.O+o. xxxxxxxxxxxxxxxxxx",
"xxxxxxxxxxxxxxxxxxxxxxO #O+@++.0e0q07@.+@o XO+xxxxxxxxxxxxxxxxxx",
"xxxxxxxxxxxxxxxxxxxxxxO@o#O@X#.e9we7qO O.+#+ Xxxxxxxxxxxxxxxxxxx",
"xxxxxxxxxxxxxxxxxxx#o dfzdgj+@#=-&%:=#o+hdfkzg.oXxxxxxxxxxxxxxxx",
"xxxxxxxxxxxxxxxxxxx+@#gfhhkgo..&=&%&=O#OgkfzdhX@+xxxxxxxxxxxxxxx",
"xxxxxxxxxxxxxxxxxxxo++dzfkjg Xo$=%=%;O.#hhhfgh+@ xxxxxxxxxxxxxxx",
"xxxxxxxxxxxxxxxx#@X+X.hjzsya++o;;%&&$#  rushlz+ #xxxxxxxxxxxxxxx",
"xxxxxxxxxxxxxxxx.XXO.@zjdurs +@$$:&:-#o parjfz@+oxxxxxxxxxxxxxxx",
"xxxxxxxxxxxxxxxxOX# o llfptuX.X=&%&&-X Oaptzhl@O+xxxxxxxxxxxxxxx",
"xxxxxxxxxxxxxxxxo#XjgkpytaspryapraaptyssrsuisidffXo@xxxxxxxxxxxx",
"xxxxxxxxxxxxxxxx.#+zjlyaypprptspytpiiiruarutapddhoXoxxxxxxxxxxxx",
"xxxxxxxxxxxxxxxx@Oolkfaystiuyaarptysuparttsrpizkk##Oxxxxxxxxxxxx",
"xxxxxxxxxxxxxxxx.#@sytutuO#o.@.+o +@+.O+O@@ayaiuro.@xxxxxxxxxxxx",
"xxxxxxxxxxxxxxxx  #puypur# O @ O.#o OX#Oo#OutrupaOXOxxxxxxxxxxxx",
"xxxxxxxxxxxxxxxx..Xpssyruo+X@X   @ O+o@. Xoauuiua o+xxxxxxxxxxxx",
"xxxxxxxxxxxxxxxx@O+1<,4>3X@o@O+@O##OO  +OoX<,3212++.xxxxxxxxxxxx",
"xxxxxxxxxxxxxxxxX+.<212,2++X+@X@.oX#+.+OoX+51<5,,O++xxxxxxxxxxxx",
"xxxxxxxxxxxxxxxx@O#2<,354o# .+ .#. O #@.#X+52<31,.X.xxxxxxxxxxxx",
"xxxxxxxxxxxxxxxxxxx+XXusyjdjhzho#+++#jdjjkdpasO#Oxxxxxxxxxxxxxxx",
"xxxxxxxxxxxxxxxxxxx@oOspthdhdjzoX+X##lklkghtra o+xxxxxxxxxxxxxxx",
"xxxxxxxxxxxxxxxxxxx..oapsgdjflkOXX# @hkhdjgraro..xxxxxxxxxxxxxxx",
"xxxxxxxxxxxxxxxxxxxO+#@#+pppyau# O.+Xapasyr@+# . xxxxxxxxxxxxxxx",
"xxxxxxxxxxxxxxxxxxx#@@X#@pappsiX o.+.pautuu#. ++oxxxxxxxxxxxxxxx",
"xxxxxxxxxxxxxxxxxxxOX.@@+piiptsoX@o#.uurpyt+@+oo#xxxxxxxxxxxxxxx",
"xxxxxxxxxx++#OOX@Xo.OXX. o.#X.X+ OO.##@o@@@fllfdd@O+xxxxxxxxxxxx",
"xxxxxxxxxxX# .OoX.#o@ O@#@#OoXOXXo+.oO#X#X.gfddlfo++xxxxxxxxxxxx",
"xxxxxxxxxxX@.@.X.@o +. #  Xo+#@O# X.X+X#+o#llkfkh@.oxxxxxxxxxxxx",
"xxxxxxxxxx.+Oaapytadzlddldhl.#+131,3>iir<3,pra25<zgjX@.xxxxxxxxx",
"xxxxxxxxxx#X.rssyuukzzggdhkl@o#3>3>42iaa515upp4><lzlX#@xxxxxxxxx",
"xxxxxxxxxx X@yriitufjzgzfzfz oX>3,>4<tia,3<rst<5,dlh@X@xxxxxxxxx",
"xxxxxxxxxx+ @sia=:;q6eeqegff +oasayprati5,5>2<454gdko#+xxxxxxxxx",
"xxxxxxxxxx+O.ata;;*0eeqw0dglX+.riiatptps2,<4>4<>4lzd@#+xxxxxxxxx",
"xxxxxxxxxxOOXstp%$-08eqq6zkk+#+tsiuyrpaa314233324dgkX#@xxxxxxxxx",
"xxxxxxxxxx+ #<,2&-%&&&qe9uri+.X,3>15>><>spsO@.678896X+@xxxxxxxxx",
"xxxxxxxxxxoO+><2=%-==*ee6prpX  1,,55>343sss+ Ow9w0q8#XOxxxxxxxxx",
"xxxxxxxxxxo@#545&&--%*eq7asy.oO3144,2215ppsoX+ww0qe8  @xxxxxxxxx",
"xxxxxxxxxxX+#>15&;;*;$679paao..irs2>4uttyss++ ,>5yru@#oxxxxxxxxx",
"xxxxxxxxxxOX 1>,-$&-%$w99istX+@pts32>tpiurtO.X235rai.o+xxxxxxxxx",
"xxxxxxxxxx oX,45:*&=:-7w0yyy+# pau>4<ssripr +@,23ust .Xxxxxxxxxx",
"xxxxxxxxxxxxxX# 14,314uiuX@#554 #.OO <,4<11@+@+@ +# xxxxxxxxxxxx",
"xxxxxxxxxxxxxO +2,251<ssuOXo554#oOX X2<<344+.X#@##.Oxxxxxxxxxxxx",
"xxxxxxxxxxxxx@ .31>515prt O@555+. # +5<2>34.XXO.oOX.xxxxxxxxxxxx",
"xxxxxxxxxxxxxxxxoOX.@@+.Xzfgsss.@@oO@iaarit  Oxxxxxxxxxxxxxxxxxx",
"xxxxxxxxxxxxxxxxo+X+ .#  hjksssoo.+ ouyysstXO#xxxxxxxxxxxxxxxxxx",
"xxxxxxxxxxxxxxxx   O.+#+XdhlsspOo.Oo ysirspOoOxxxxxxxxxxxxxxxxxx",
"xxxxxxxxxxxxxxxxxxxxxxxxxxxxxxxxxxxxxxxxxxxxxxxxxxxxxxxxxxxxxxxx",
"xxxxxxxxxxxxxxxxxxxxxxxxxxxxxxxxxxxxxxxxxxxxxxxxxxxxxxxxxxxxxxxx",
"xxxxxxxxxxxxxxxxxxxxxxxxxxxxxxxxxxxxxxxxxxxxxxxxxxxxxxxxxxxxxxxx",
"xxxxxxxxxxxxxxxxxxxxxxxxxxxxxxxxxxxxxxxxxxxxxxxxxxxxxxxxxxxxxxxx",
"xxxxxxxxxxxxxxxxxxxxxxxxxxxxxxxxxxxxxxxxxxxxxxxxxxxxxxxxxxxxxxxx",
"xxxxxxxxxxxxxxxxxxxxxxxxxxxxxxxxxxxxxxxxxxxxxxxxxxxxxxxxxxxxxxxx",
"xxxxxxxxxxxxxxxxxxxxxxxxxxxxxxxxxxxxxxxxxxxxxxxxxxxxxxxxxxxxxxxx",
"xxxxxxxxxxxxxxxxxxxxxxxxxxxxxxxxxxxxxxxxxxxxxxxxxxxxxxxxxxxxxxxx",
"xxxxxxxxxxxxxxxxxxxxxxxxxxxxxxxxxxxxxxxxxxxxxxxxxxxxxxxxxxxxxxxx",
"xxxxxxxxxxxxxxxxxxxxxxxxxxxxxxxxxxxxxxxxxxxxxxxxxxxxxxxxxxxxxxxx",
"xxxxxxxxxxxxxxxxxxxxxxxxxxxxxxxxxxxxxxxxxxxxxxxxxxxxxxxxxxxxxxxx"
};
