/* XPM */
static char *result[] = {
/* columns rows colors chars-per-pixel */
"64 64 49 1 ",
"  c #0E061A",
". c #0F061A",
"X c #0E071A",
"o c #0F071A",
"O c #0E061B",
"+ c #0F061B",
"@ c #0E071B",
"# c #0F071B",
"$ c #2E2EB0",
"% c #2F2EB0",
"& c #2E2FB0",
"* c #2F2FB0",
"= c #2E2EB1",
"- c #2F2EB1",
"; c #2E2FB1",
": c #2F2FB1",
"> c #647292",
", c #657292",
"< c #647392",
"1 c #657392",
"2 c #647293",
"3 c #657293",
"4 c #647393",
"5 c #657393",
"6 c #726EEA",
"7 c #736EEA",
"8 c #726FEA",
"9 c #736FEA",
"0 c #726EEB",
"q c #736EEB",
"w c #726FEB",
"e c #736FEB",
"r c #92A0B8",
"t c #93A0B8",
"y c #92A1B8",
"u c #93A1B8",
"i c #92A0B9",
"p c #93A0B9",
"a c #92A1B9",
"s c #93A1B9",
"d c #C6CEDC",
"f c #C7CEDC",
"g c #C6CFDC",
"h c #C7CFDC",
"j c #C6CEDD",
"k c #C7CEDD",
"l c #C6CFDD",
"z c #C7CFDD",
"x c None",
/* pixels */
"xxxxxxxxxxxxxxxxxxxxxxxxxxxxxxxxxxxxxxxxxxxxxxxxxxxxxxxxxxxxxxxx",
"xxxxxxxxxxxxxxxxxxxxxxxxxxxxxxxxxxxxxxxxxxxxxxxxxxxxxxxxxxxxxxxx",
"xxxxxxxxxxxxxxxxxxxxxxxxxxxxxxxxxxxxxxxxxxxxxxxxxxxxxxxxxxxxxxxx",
"xxxxxxxxxxxxxxxxxxxxxxxxxxxxxxxxxxxxxxxxxxxxxxxxxxxxxxxxxxxxxxxx",
"xxxxxxxxxxxxxxxxxxxxxxxxxxxxxxxxxxxxxxxxxxxxxxxxxxxxxxxxxxxxxxxx",
"xxxxxxxxxxxxxxxxxxxxxxxxxxxxoooo@@ ###@@xxxxxxxxxxxxxxxxxxxxxxxx",
"xxxxxxxxxxxxxxxxxxxxxxxxxxxxo#@#o.@X O#.xxxxxxxxxxxxxxxxxxxxxxxx",
"xxxxxxxxxxxxxxxxxxxxxxxxxxxxo@##..@   o.xxxxxxxxxxxxxxxxxxxxxxxx",
"xxxxxxxxxxxxxxxxxxxxxxX++O..X..999q77X++XX.@X xxxxxxxxxxxxxxxxxx",
"xxxxxxxxxxxxxxxxxxxxxx@++Oooooo0888we.O@X@@X#+xxxxxxxxxxxxxxxxxx",
"xxxxxxxxxxxxxxxxxxxxxx@+++ ..oo0886ww.@@@@#X++xxxxxxxxxxxxxxxxxx",
"xxxxxxxxxxxxxxxxxxxo++dddgff.. =;;$$$ +#jfkghh+@Oxxxxxxxxxxxxxxx",
"xxxxxxxxxxxxxxxxxxxXXokfffddO@@%--=%*   hggkll ++xxxxxxxxxxxxxxx",
"xxxxxxxxxxxxxxxxxxx.XXkkkkdd@o@%-=$:; O.fdgkll #+xxxxxxxxxxxxxxx",
"xxxxxxxxxxxxxxxxo+#@++kljuii XO&::$;=X#+iiakdf@ooxxxxxxxxxxxxxxx",
"xxxxxxxxxxxxxxxx#O @OOklzyss#Xo;-:-%$...rttjhk+++xxxxxxxxxxxxxxx",
"xxxxxxxxxxxxxxxx+OO@+Okdgrss#XX&:::&= ..rttjff+O+xxxxxxxxxxxxxxx",
"xxxxxxxxxxxxxxxxoo fddirituuytuysauuuyssuriuptlgfoo.xxxxxxxxxxxx",
"xxxxxxxxxxxxxxxx+O@hkdurtattsarpttyssattrsuaspgll+OXxxxxxxxxxxxx",
"xxxxxxxxxxxxxxxx.@@hhdsrryutuystttpptytrryysprkjl.@@xxxxxxxxxxxx",
"xxxxxxxxxxxxxxxx ++tpyyai#O+#+o@## ++..oOoXyrratt.oXxxxxxxxxxxxx",
"xxxxxxxxxxxxxxxxO++trryyy+. .OO+@@OXX#X #  ruuiry   xxxxxxxxxxxx",
"xxxxxxxxxxxxxxxxOo+trryyu+...OO.@@O XX. @ .rtyiya XXxxxxxxxxxxxx",
"xxxxxxxxxxxxxxxx ..322244o..##oXoo.#@.#+@+#>45,34oO@xxxxxxxxxxxx",
"xxxxxxxxxxxxxxxxXo.<1,,4<oOO#++   O@#X X@XO1355>>OX#xxxxxxxxxxxx",
"xxxxxxxxxxxxxxxxX.o411345o@O.o+X. O#+X .X  3335<>@.oxxxxxxxxxxxx",
"xxxxxxxxxxxxxxxxxxx #@saajggzlf. O.##jdflkjyyy#X xxxxxxxxxxxxxxx",
"xxxxxxxxxxxxxxxxxxx OOysadlzdfhO..O##hjzfjkyrtO+#xxxxxxxxxxxxxxx",
"xxxxxxxxxxxxxxxxxxx @OuaagzldhhO..+#@gfkhzkytt .#xxxxxxxxxxxxxxx",
"xxxxxxxxxx.###OO@+@X.oOO@@Xo++++#+.Xoptturr@#o+Xoxxxxxxxxxxxxxxx",
"xxxxxxxxxxXX .@OX##X##@  o@@O+.OX@@oXaaaittXX #  xxxxxxxxxxxxxxx",
"xxxxxxxxxxo ..OO###X##@X @@@    XX@ooaaapttXXX#  xxxxxxxxxxxxxxx",
"xxxxxxxxxxXOOrutrppllldfkjjkX#+X .+O+o#++OOjzzzhz+..xxxxxxxxxxxx",
"xxxxxxxxxx#+.rtttssfkkfzldzzOoo@.++OOXoo@X hkkdjk+O@xxxxxxxxxxxx",
"xxxxxxxxxx#++rtttssfkjdjldkzOoo#o.#@@X#o+X.hkkfkk#O@xxxxxxxxxxxx",
"xxxxxxxxxx@@@taa---w7q8eezkk##O145,<1ptr224tpp144jgg# Xxxxxxxxxx",
"xxxxxxxxxx  oaii=%%877q06lhh.##533>55ytr4,1aip3,3kdjoXXxxxxxxxxx",
"xxxxxxxxxx oosii=*%877q66lhh.@#333>51ytu4,1rii233kjjo Xxxxxxxxxx",
"xxxxxxxxxx+.#3,,&%%*$%w79usi@#.pssputprr244#oo0ee766.+Oxxxxxxxxx",
"xxxxxxxxxx @@141;-%-;=900utto@+iaatusius545+ O6eewqq+##xxxxxxxxx",
"xxxxxxxxxx.@@145&::*;;900uttXOOpaattuiuu455#OO6ew0eq@o@xxxxxxxxx",
"xxxxxxxxxx X@<4<%;:=*%q69rssXXX5442<<5<<444X##455yuuo @xxxxxxxxx",
"xxxxxxxxxxo..1,,&--$;=600uuu+.o1552<<<22145.Xo<55utuX..xxxxxxxxx",
"xxxxxxxxxxo..13,;-:%=-00quuu..o1<52><<23544+oo<55uuyX..xxxxxxxxx",
"xxxxxxxxxxxxx+o.<22451tirO+Xsttipspttyrtpsso##+++@#oxxxxxxxxxxxx",
"xxxxxxxxxxxxxX  <,114<apso##yssirysspauuaiso@#Oo @@ xxxxxxxxxxxx",
"xxxxxxxxxxxxxX  <55144aus###ysairrappausaiaX@#@..XO.xxxxxxxxxxxx",
"xxxxxxxxxxxxxxxx@XooOO+OO33,311@X .oo2<1115#ooxxxxxxxxxxxxxxxxxx",
"xxxxxxxxxxxxxxxxO++OooO++422>55XOO OO11<,<<#OOxxxxxxxxxxxxxxxxxx",
"xxxxxxxxxxxxxxxx@#++##O+.<23355@OOO++1<,,<<#+Oxxxxxxxxxxxxxxxxxx",
"xxxxxxxxxxxxxxxxxxxxxxo#@jzziyu.....+tsaraa @@xxxxxxxxxxxxxxxxxx",
"xxxxxxxxxxxxxxxxxxxxxxooojjjtrtoo.#XOiyriau ##xxxxxxxxxxxxxxxxxx",
"xxxxxxxxxxxxxxxxxxxxxxooojljtpt#oX+XOrtsauu ##xxxxxxxxxxxxxxxxxx",
"xxxxxxxxxxxxxxxxxxxxxxxxxxxxxxxxxxxxxxxxxxxxxxxxxxxxxxxxxxxxxxxx",
"xxxxxxxxxxxxxxxxxxxxxxxxxxxxxxxxxxxxxxxxxxxxxxxxxxxxxxxxxxxxxxxx",
"xxxxxxxxxxxxxxxxxxxxxxxxxxxxxxxxxxxxxxxxxxxxxxxxxxxxxxxxxxxxxxxx",
"xxxxxxxxxxxxxxxxxxxxxxxxxxxxxxxxxxxxxxxxxxxxxxxxxxxxxxxxxxxxxxxx",
"xxxxxxxxxxxxxxxxxxxxxxxxxxxxxxxxxxxxxxxxxxxxxxxxxxxxxxxxxxxxxxxx",
"xxxxxxxxxxxxxxxxxxxxxxxxxxxxxxxxxxxxxxxxxxxxxxxxxxxxxxxxxxxxxxxx",
"xxxxxxxxxxxxxxxxxxxxxxxxxxxxxxxxxxxxxxxxxxxxxxxxxxxxxxxxxxxxxxxx",
"xxxxxxxxxxxxxxxxxxxxxxxxxxxxxxxxxxxxxxxxxxxxxxxxxxxxxxxxxxxxxxxx",
"xxxxxxxxxxxxxxxxxxxxxxxxxxxxxxxxxxxxxxxxxxxxxxxxxxxxxxxxxxxxxxxx",
"xxxxxxxxxxxxxxxxxxxxxxxxxxxxxxxxxxxxxxxxxxxxxxxxxxxxxxxxxxxxxxxx",
"xxxxxxxxxxxxxxxxxxxxxxxxxxxxxxxxxxxxxxxxxxxxxxxxxxxxxxxxxxxxxxxx"
};
