/* XPM */
static char *result[] = {
/* columns rows colors chars-per-pixel */
"64 64 49 1 ",
"  c #0E061A",
". c #0F061A",
"X c #0E071A",
"o c #0F071A",
"O c #0E061B",
"+ c #0F061B",
"@ c #0E071B",
"# c #0F071B",
"$ c #2E2EB0",
"% c #2F2EB0",
"& c #2E2FB0",
"* c #2F2FB0",
"= c #2E2EB1",
"- c #2F2EB1",
"; c #2E2FB1",
": c #2F2FB1",
"> c #647292",
", c #657292",
"< c #647392",
"1 c #657392",
"2 c #647293",
"3 c #657293",
"4 c #647393",
"5 c #657393",
"6 c #726EEA",
"7 c #736EEA",
"8 c #726FEA",
"9 c #736FEA",
"0 c #726EEB",
"q c #736EEB",
"w c #726FEB",
"e c #736FEB",
"r c #92A0B8",
"t c #93A0B8",
"y c #92A1B8",
"u c #93A1B8",
"i c #92A0B9",
"p c #93A0B9",
"a c #92A1B9",
"s c #93A1B9",
"d c #C6CEDC",
"f c #C7CEDC",
"g c #C6CFDC",
"h c #C7CFDC",
"j c #C6CEDD",
"k c #C7CEDD",
"l c #C6CFDD",
"z c #C7CFDD",
"x c None",
/* pixels */
"xxxxxxxxxxxxxxxxxxxxxxxxxxxxxxxxxxxxxxxxxxxxxxxxxxxxxxxxxxxxxxxx",
"xxxxxxxxxxxxxxxxxxxxxxxxxxxxxxxxxxxxxxxxxxxxxxxxxxxxxxxxxxxxxxxx",
"xxxxxxxxxxxxxxxxxxxxxxxxxxxxxxxxxxxxxxxxxxxxxxxxxxxxxxxxxxxxxxxx",
"xxxxxxxxxxxxxxxxxxxxxxxxxxxxxxxxxxxxxxxxxxxxxxxxxxxxxxxxxxxxxxxx",
"xxxxxxxxxxxxxxxxxxxxxxxxxxxxxxxxxxxxxxxxxxxxxxxxxxxxxxxxxxxxxxxx",
"xxxxxxxxxxxxxxxx Oo..O+@X@  @XO@o+.@##OX #oxxxxxxxxxxxxxxxxxxxxx",
"xxxxxxxxxxxxxxxx+oX+#Oo.o#oO. XO  @ oo@#.@+xxxxxxxxxxxxxxxxxxxxx",
"xxxxxxxxxxxxxxxx#++## . +o+X@XX++O#XO+X.+# xxxxxxxxxxxxxxxxxxxxx",
"xxxxxxxxxxxxxO@ 7qqw9ew6w67q980q70709q9eqq8 # xxxxxxxxxxxxxxxxxx",
"xxxxxxxxxxxxx#@@99769ww806878e970w99086w6q0+.@xxxxxxxxxxxxxxxxxx",
"xxxxxxxxxxxxx XX0q66q07768978790q98qq9e9q77.O.xxxxxxxxxxxxxxxxxx",
"xxxxxxxxxxxxxO. 860qw9-;$%-&%%&-&$-%*:-=-=*$&: oXxxxxxxxxxxxxxxx",
"xxxxxxxxxxxxx @#w80868$*:$;%&*%:$;%%&:-;$-%:$;++ xxxxxxxxxxxxxxx",
"xxxxxxxxxxxxxo++eq99q0$*%;;*;&$=:-;:**-=*=:%%-@@oxxxxxxxxxxxxxxx",
"xxxxxxxxxxxxxO@Xq7qqwellfjgljfkfdzurtzjg&$;%=%XX@xxxxxxxxxxxxxxx",
"xxxxxxxxxxxxxo+.w06600jdglhdkjlklzaiajdk=-*-*$.+#xxxxxxxxxxxxxxx",
"xxxxxxxxxxxxx# .89896wdfglzfffdjkkppahjj$;:$-:+@ xxxxxxxxxxxxxxx",
"xxxxxxxxxxxxxxxx@@@jjkustyyarsppriyyrttyaru$&$X oxxxxxxxxxxxxxxx",
"xxxxxxxxxxxxxxxx..Xfzlriyraryspssisuprttapp$:- +@xxxxxxxxxxxxxxx",
"xxxxxxxxxxxxxxxxO##jdfstupiupursaspiuispras==-.#.xxxxxxxxxxxxxxx",
"xxxxxxxxxxxxxxxx.+O+XO@# .O.4,25,1upyurpyuy::&@O xxxxxxxxxxxxxxx",
"xxxxxxxxxxxxxxxx@.o@ @O.++++432,<4raautyisp-$& Ooxxxxxxxxxxxxxxx",
"xxxxxxxxxxxxxxxx O +X++#@OX+>,<,22ssuaauiua;$=O. xxxxxxxxxxxxxxx",
"xxxxxxxxxxxxxxxx@ @OOo O@#O#4>2522,42uyurps.@+xxxxxxxxxxxxxxxxxx",
"xxxxxxxxxxxxxxxx.O+o.#oXo@O+22<2,3>43prsaisX.Xxxxxxxxxxxxxxxxxxx",
"xxxxxxxxxxxxxxxxoX# #o+O.oO#14<2,<433aypttyo@oxxxxxxxxxxxxxxxxxx",
"xxxxxxxxxxxxxxxxO+ #+#siauyu42>443rtpirt<4>Oo@xxxxxxxxxxxxxxxxxx",
"xxxxxxxxxxxxxxxx X+o +yuiipr2<<514uapsri2<4+ Oxxxxxxxxxxxxxxxxxx",
"xxxxxxxxxxxxxxxx#.+X .tirris<45>15yyiata<1>#O+xxxxxxxxxxxxxxxxxx",
"xxxxxxxxxxxxxX#+.+X+@X#+.ypypuaitiupy,42+@@xxxxxxxxxxxxxxxxxxxxx",
"xxxxxxxxxxxxx##o  o@X@ooopipsitprpast5,1+.Oxxxxxxxxxxxxxxxxxxxxx",
"xxxxxxxxxxxxxo..#+#++Oo+#rpuyaasriuus252 +Oxxxxxxxxxxxxxxxxxxxxx",
"xxxxxxxxxxxxx#@#dlkkdg#O#X@X+X+##.#.X.o.xxxxxxxxxxxxxxxxxxxxxxxx",
"xxxxxxxxxxxxx@+#zzjdkk O@ X## O#+XoX X##xxxxxxxxxxxxxxxxxxxxxxxx",
"xxxxxxxxxxxxx o.lkgkgf+Oo +oX XXOO@+@ + xxxxxxxxxxxxxxxxxxxxxxxx",
"xxxxxxxxxxxxx+@ e87lkjXXo-&-saptpi.@#xxxxxxxxxxxxxxxxxxxxxxxxxxx",
"xxxxxxxxxxxxx#O 677djjX@X--%tssuri# @xxxxxxxxxxxxxxxxxxxxxxxxxxx",
"xxxxxxxxxxxxxO.O899gjk+@@&**uyprst o.xxxxxxxxxxxxxxxxxxxxxxxxxxx",
"xxxxxxxxxxxxxo+o*$$yytXO#w77piroOX+XXxxxxxxxxxxxxxxxxxxxxxxxxxxx",
"xxxxxxxxxxxxx@ @:$-urt .#q80iss+ X @#xxxxxxxxxxxxxxxxxxxxxxxxxxx",
"xxxxxxxxxxxxx#@o--*usp.o#677iriO.. O@xxxxxxxxxxxxxxxxxxxxxxxxxxx",
"xxxxxxxxxxxxxO @:;*trs#  XX #@#554o@#xxxxxxxxxxxxxxxxxxxxxxxxxxx",
"xxxxxxxxxxxxx X+&-%yrrOX@+OO.##251X .xxxxxxxxxxxxxxxxxxxxxxxxxxx",
"xxxxxxxxxxxxx.  --%pit#O.oOXo@o325+.Xxxxxxxxxxxxxxxxxxxxxxxxxxxx",
"xxxxxxxxxxxxx@ Xsyr.Xo+.Oprtptsras#X#xxxxxxxxxxxxxxxxxxxxxxxxxxx",
"xxxxxxxxxxxxx@..iuu.@o #otitsitrpt+.#xxxxxxxxxxxxxxxxxxxxxxxxxxx",
"xxxxxxxxxxxxxO+Otupo.O#@+uatsruyru@ #xxxxxxxxxxxxxxxxxxxxxxxxxxx",
"xxxxxxxxxxxxxxxxo  o.X+X@.. >5>2<4++#xxxxxxxxxxxxxxxxxxxxxxxxxxx",
"xxxxxxxxxxxxxxxx+#O@.+XO.oOo,>,324o.Xxxxxxxxxxxxxxxxxxxxxxxxxxxx",
"xxxxxxxxxxxxxxxxO #@+O+o@+X@325511.#@xxxxxxxxxxxxxxxxxxxxxxxxxxx",
"xxxxxxxxxxxxxxxxxxxxxxOO+@+Orsastr XOxxxxxxxxxxxxxxxxxxxxxxxxxxx",
"xxxxxxxxxxxxxxxxxxxxxx+o+OX psursi##Oxxxxxxxxxxxxxxxxxxxxxxxxxxx",
"xxxxxxxxxxxxxxxxxxxxxx@ +@oOyaipry. oxxxxxxxxxxxxxxxxxxxxxxxxxxx",
"xxxxxxxxxxxxxxxxxxxxxxxxxxxxxxxxxxxxxxxxxxxxxxxxxxxxxxxxxxxxxxxx",
"xxxxxxxxxxxxxxxxxxxxxxxxxxxxxxxxxxxxxxxxxxxxxxxxxxxxxxxxxxxxxxxx",
"xxxxxxxxxxxxxxxxxxxxxxxxxxxxxxxxxxxxxxxxxxxxxxxxxxxxxxxxxxxxxxxx",
"xxxxxxxxxxxxxxxxxxxxxxxxxxxxxxxxxxxxxxxxxxxxxxxxxxxxxxxxxxxxxxxx",
"xxxxxxxxxxxxxxxxxxxxxxxxxxxxxxxxxxxxxxxxxxxxxxxxxxxxxxxxxxxxxxxx",
"xxxxxxxxxxxxxxxxxxxxxxxxxxxxxxxxxxxxxxxxxxxxxxxxxxxxxxxxxxxxxxxx",
"xxxxxxxxxxxxxxxxxxxxxxxxxxxxxxxxxxxxxxxxxxxxxxxxxxxxxxxxxxxxxxxx",
"xxxxxxxxxxxxxxxxxxxxxxxxxxxxxxxxxxxxxxxxxxxxxxxxxxxxxxxxxxxxxxxx",
"xxxxxxxxxxxxxxxxxxxxxxxxxxxxxxxxxxxxxxxxxxxxxxxxxxxxxxxxxxxxxxxx",
"xxxxxxxxxxxxxxxxxxxxxxxxxxxxxxxxxxxxxxxxxxxxxxxxxxxxxxxxxxxxxxxx",
"xxxxxxxxxxxxxxxxxxxxxxxxxxxxxxxxxxxxxxxxxxxxxxxxxxxxxxxxxxxxxxxx"
};
