/* XPM */
static char *result[] = {
/* columns rows colors chars-per-pixel */
"64 64 49 1 ",
"  c #0E061A",
". c #0F061A",
"X c #0E071A",
"o c #0F071A",
"O c #0E061B",
"+ c #0F061B",
"@ c #0E071B",
"# c #0F071B",
"$ c #2E2EB0",
"% c #2F2EB0",
"& c #2E2FB0",
"* c #2F2FB0",
"= c #2E2EB1",
"- c #2F2EB1",
"; c #2E2FB1",
": c #2F2FB1",
"> c #647292",
", c #657292",
"< c #647392",
"1 c #657392",
"2 c #647293",
"3 c #657293",
"4 c #647393",
"5 c #657393",
"6 c #726EEA",
"7 c #736EEA",
"8 c #726FEA",
"9 c #736FEA",
"0 c #726EEB",
"q c #736EEB",
"w c #726FEB",
"e c #736FEB",
"r c #92A0B8",
"t c #93A0B8",
"y c #92A1B8",
"u c #93A1B8",
"i c #92A0B9",
"p c #93A0B9",
"a c #92A1B9",
"s c #93A1B9",
"d c #C6CEDC",
"f c #C7CEDC",
"g c #C6CFDC",
"h c #C7CFDC",
"j c #C6CEDD",
"k c #C7CEDD",
"l c #C6CFDD",
"z c #C7CFDD",
"x c None",
/* pixels */
"xxxxxxxxxxxxxxxxxxxxxxxxxxxxxxxxxxxxxxxxxxxxxxxxxxxxxxxxxxxxxxxx",
"xxxxxxxxxxxxxxxxxxxxxxxxxxxxxxxxxxxxxxxxxxxxxxxxxxxxxxxxxxxxxxxx",
"xxxxxxxxxxxxxxxxxxxxxxxxxxxxxxxxxxxxxxxxxxxxxxxxxxxxxxxxxxxxxxxx",
"xxxxxxxxxxxxxxxxxxxxxxxxxxxxxxxxxxxxxxxxxxxxxxxxxxxxxxxxxxxxxxxx",
"xxxxxxxxxxxxxxxxxxxxxxxxxxxxxxxxxxxxxxxxxxxxxxxxxxxxxxxxxxxxxxxx",
"xxxxxxxxxxxxxxxxxxx@..X.o#o.#X#o@XO.  OoX+@@+#xxxxxxxxxxxxxxxxxx",
"xxxxxxxxxxxxxxxxxxx@oOXX@ X.+ ++..O@#+.O@X##+.xxxxxxxxxxxxxxxxxx",
"xxxxxxxxxxxxxxxxxxx O+#O@Xo.+ .oOo..#X@##X#XoOxxxxxxxxxxxxxxxxxx",
"xxxxxxxxxxxxxxxxO. e7w0eqqw067077e9q7e8988800e+@+xxxxxxxxxxxxxxx",
"xxxxxxxxxxxxxxxx o+7688069we0w8e889w9ew0960080 @ xxxxxxxxxxxxxxx",
"xxxxxxxxxxxxxxxx@Oo9qq7999w76q000069w6ww988eew@ +xxxxxxxxxxxxxxx",
"xxxxxxxxxxxxxO+X&*=;*%=;;;*;%:$&$;:=$:;&qqqq67##@xxxxxxxxxxxxxxx",
"xxxxxxxxxxxxx#.@=:=-;;**;:$;=**&**-%:*%=78e0q6.@.xxxxxxxxxxxxxxx",
"xxxxxxxxxxxxx.+o$%$%;&%--==*$:&&$%;$*;:%968678Xo@xxxxxxxxxxxxxxx",
"xxxxxxxxxxxxx##.:$=:;$gzjpsuzggfggdglhlz68q7w7Xo+xxxxxxxxxxxxxxx",
"xxxxxxxxxxxxx. +:-=*;$khjsapkjjlzldgjjghw06ww6 .@xxxxxxxxxxxxxxx",
"xxxxxxxxxxxxx+##:&%;%%hhlrpudjfdjghzzlhd070699+#Oxxxxxxxxxxxxxxx",
"xxxxxxxxxxxxxXO@;;*uiipypyiaiyyrrsupusaujjl.#oxxxxxxxxxxxxxxxxxx",
"xxxxxxxxxxxxxO+#$;:ppysptttsripypusaiuypzzz@ooxxxxxxxxxxxxxxxxxx",
"xxxxxxxxxxxxx O#%;%aiiisryspyupttyrrprasflk #+xxxxxxxxxxxxxxxxxx",
"xxxxxxxxxxxxx.@O*=$iiaaysaaa222545o#O  @OX.OXXxxxxxxxxxxxxxxxxxx",
"xxxxxxxxxxxxxOO+;:*tapuryrui14>>,2 @.@ O.o+  @xxxxxxxxxxxxxxxxxx",
"xxxxxxxxxxxxx#oX=:-atpuprupy321351.X+@@X+X #.#xxxxxxxxxxxxxxxxxx",
"xxxxxxxxxxxxxxxx+O.uuptup<21,55324@X #@#O@..X#xxxxxxxxxxxxxxxxxx",
"xxxxxxxxxxxxxxxx@+ uauara244<1,442+o+##@ XOOO@xxxxxxxxxxxxxxxxxx",
"xxxxxxxxxxxxxxxxOO@ayupri2154<4211O.X@X+.oOoX xxxxxxxxxxxxxxxxxx",
"xxxxxxxxxxxxxxxx+.X154tutyut>5<>><yyy,<<OO+xxxxxxxxxxxxxxxxxxxxx",
"xxxxxxxxxxxxxxxx+ @><4isypyr341213sss242+#+xxxxxxxxxxxxxxxxxxxxx",
"xxxxxxxxxxxxxxxx# @<<3pyarts,41135syt>23+o+xxxxxxxxxxxxxxxxxxxxx",
"xxxxxxxxxxxxxxxxxxx@ .123ytayrirartpp2>2+++xxxxxxxxxxxxxxxxxxxxx",
"xxxxxxxxxxxxxxxxxxx+.+5>5uutyiruyipta222+++xxxxxxxxxxxxxxxxxxxxx",
"xxxxxxxxxxxxxxxxxxxO +,,,sytyrtsyapay222O++xxxxxxxxxxxxxxxxxxxxx",
"xxxxxxxxxxxxxxxxxxxxxx +o#  .O@#X@@..OOoO@o+O  o xxxxxxxxxxxxxxx",
"xxxxxxxxxxxxxxxxxxxxxxO X+@@Xo@XOo#X@# .++XoO+# #xxxxxxxxxxxxxxx",
"xxxxxxxxxxxxxxxxxxxxxxX#.o X#@#..##  @+@+#X +o+X@xxxxxxxxxxxxxxx",
"xxxxxxxxxxxxxxxxxxxxxxxxx.+Xpyipus:$&ooOfhjdzlo@oxxxxxxxxxxxxxxx",
"xxxxxxxxxxxxxxxxxxxxxxxxx#+@aputtp*--+ .dfhffhX+#xxxxxxxxxxxxxxx",
"xxxxxxxxxxxxxxxxxxxxxxxxx +Ouariri%-*##.gdfhkg@+.xxxxxxxxxxxxxxx",
"xxxxxxxxxxxxxxxxxxxxxxxxx@o . Xurree6# .jhfw89+.Xxxxxxxxxxxxxxxx",
"xxxxxxxxxxxxxxxxxxxxxxxxx@@oo+ ssrewwX@ jjk76qX@Xxxxxxxxxxxxxxxx",
"xxxxxxxxxxxxxxxxxxxxxxxxxoOO@ .upi077o@ zgk60w+oXxxxxxxxxxxxxxxx",
"xxxxxxxxxxxxxxxxxxxxxxxxx@  354.+oX.+#+oays-$*X@@xxxxxxxxxxxxxxx",
"xxxxxxxxxxxxxxxxxxxxxxxxxX .5<,X  OoOX@Xirr:&$  .xxxxxxxxxxxxxxx",
"xxxxxxxxxxxxxxxxxxxxxxxxx#X+421.oXXooOo.ttp**; .oxxxxxxxxxxxxxxx",
"xxxxxxxxxxxxxxxxxxxxxxxxxo.Orirrirrrr+o+tya%*;X##xxxxxxxxxxxxxxx",
"xxxxxxxxxxxxxxxxxxxxxxxxxO+Oyrurrrrar+.@rts-&&#@oxxxxxxxxxxxxxxx",
"xxxxxxxxxxxxxxxxxxxxxxxxx+ .rirrrrrrro@Xrps*%%#XOxxxxxxxxxxxxxxx",
"xxxxxxxxxxxxxxxxxxxxxxxxxX#+>1>232+++@X..+#ast..oxxxxxxxxxxxxxxx",
"xxxxxxxxxxxxxxxxxxxxxxxxx  o2,>>>,+.#  ..@.srr O xxxxxxxxxxxxxxx",
"xxxxxxxxxxxxxxxxxxxxxxxxxXO+13>>>>++O++#O##tst+..xxxxxxxxxxxxxxx",
"xxxxxxxxxxxxxxxxxxxxxxxxx #+yyiariX.#xxx@+X@#Oxxxxxxxxxxxxxxxxxx",
"xxxxxxxxxxxxxxxxxxxxxxxxx #otsuupto#+xxxOXXXo+xxxxxxxxxxxxxxxxxx",
"xxxxxxxxxxxxxxxxxxxxxxxxxoOOyaurtsXXXxxx oXO+#xxxxxxxxxxxxxxxxxx",
"xxxxxxxxxxxxxxxxxxxxxxxxxxxxxxxxxxxxxxxxxxxxxxxxxxxxxxxxxxxxxxxx",
"xxxxxxxxxxxxxxxxxxxxxxxxxxxxxxxxxxxxxxxxxxxxxxxxxxxxxxxxxxxxxxxx",
"xxxxxxxxxxxxxxxxxxxxxxxxxxxxxxxxxxxxxxxxxxxxxxxxxxxxxxxxxxxxxxxx",
"xxxxxxxxxxxxxxxxxxxxxxxxxxxxxxxxxxxxxxxxxxxxxxxxxxxxxxxxxxxxxxxx",
"xxxxxxxxxxxxxxxxxxxxxxxxxxxxxxxxxxxxxxxxxxxxxxxxxxxxxxxxxxxxxxxx",
"xxxxxxxxxxxxxxxxxxxxxxxxxxxxxxxxxxxxxxxxxxxxxxxxxxxxxxxxxxxxxxxx",
"xxxxxxxxxxxxxxxxxxxxxxxxxxxxxxxxxxxxxxxxxxxxxxxxxxxxxxxxxxxxxxxx",
"xxxxxxxxxxxxxxxxxxxxxxxxxxxxxxxxxxxxxxxxxxxxxxxxxxxxxxxxxxxxxxxx",
"xxxxxxxxxxxxxxxxxxxxxxxxxxxxxxxxxxxxxxxxxxxxxxxxxxxxxxxxxxxxxxxx",
"xxxxxxxxxxxxxxxxxxxxxxxxxxxxxxxxxxxxxxxxxxxxxxxxxxxxxxxxxxxxxxxx",
"xxxxxxxxxxxxxxxxxxxxxxxxxxxxxxxxxxxxxxxxxxxxxxxxxxxxxxxxxxxxxxxx"
};
