/* XPM */
static char *result[] = {
/* columns rows colors chars-per-pixel */
"64 64 57 1 ",
"  c #0E061A",
". c #0F061A",
"X c #0E071A",
"o c #0F071A",
"O c #0E061B",
"+ c #0F061B",
"@ c #0E071B",
"# c #0F071B",
"$ c #2E2EB0",
"% c #2F2EB0",
"& c #2E2FB0",
"* c #2F2FB0",
"= c #2E2EB1",
"- c #2F2EB1",
"; c #2E2FB1",
": c #2F2FB1",
"> c #546C8E",
", c #556C8E",
"< c #546D8E",
"1 c #556D8E",
"2 c #546C8F",
"3 c #556C8F",
"4 c #546D8F",
"5 c #556D8F",
"6 c #647292",
"7 c #657292",
"8 c #647392",
"9 c #657392",
"0 c #647293",
"q c #657293",
"w c #647393",
"e c #657393",
"r c #726EEA",
"t c #736EEA",
"y c #726FEA",
"u c #736FEA",
"i c #726EEB",
"p c #736EEB",
"a c #726FEB",
"s c #736FEB",
"d c #92A0B8",
"f c #93A0B8",
"g c #92A1B8",
"h c #93A1B8",
"j c #92A0B9",
"k c #93A0B9",
"l c #92A1B9",
"z c #93A1B9",
"x c #C6CEDC",
"c c #C7CEDC",
"v c #C6CFDC",
"b c #C7CFDC",
"n c #C6CEDD",
"m c #C7CEDD",
"M c #C6CFDD",
"N c #C7CFDD",
"B c None",
/* pixels */
"BBBBBBBBBBBBBBBBBBBBBBBBBBBBBBBBBBBBBBBBBBBBBBBBBBBBBBBBBBBBBBBB",
"BBBBBBBBBBBBBBBBBBBBBBBBBBBBBBBBBBBBBBBBBBBBBBBBBBBBBBBBBBBBBBBB",
"BBBBBBBBBBBBBBBBBBBBBBBBBBBBBBBBBBBBBBBBBBBBBBBBBBBBBBBBBBBBBBBB",
"BBBBBBBBBBBBBBBBBBBBBBBBBBBBBBBBBBBBBBBBBBBBBBBBBBBBBBBBBBBBBBBB",
"BBBBBBBBBBBBBBBBBBBBBBBBBBBBBBBBBBBBBBBBBBBBBBBBBBBBBBBBBBBBBBBB",
"BBBBBBBBBBBBBBBBBBBBBBBBB#@oo@X@+.@ @BBBBBBBBBBBBBBBBBBBBBBBBBBB",
"BBBBBBBBBBBBBBBBBBBBBBBBBX# . @o.o++OBBBBBBBBBBBBBBBBBBBBBBBBBBB",
"BBBBBBBBBBBBBBBBBBBBBBBBB@+...oOX@# @BBBBBBBBBBBBBBBBBBBBBBBBBBB",
"BBBBBBBBBBBBBBBBBBB@ OO#  o+pusuai@#.+@ @ +BBBBBBBBBBBBBBBBBBBBB",
"BBBBBBBBBBBBBBBBBBB@+. ooX@ ttypri #.O .XOoBBBBBBBBBBBBBBBBBBBBB",
"BBBBBBBBBBBBBBBBBBB +. X@  +srappi#X# oX ##BBBBBBBBBBBBBBBBBBBBB",
"BBBBBBBBBBBBBBBB.O nmvmcvX@X-$-:$%++XNbcmcN+O@BBBBBBBBBBBBBBBBBB",
"BBBBBBBBBBBBBBBBX XnbbNMv+o %:&$*$.@#vMxcbxO@oBBBBBBBBBBBBBBBBBB",
"BBBBBBBBBBBBBBBB#@@nbNbbb+o@;%=:=&#o.Nxxxxc .#BBBBBBBBBBBBBBBBBB",
"BBBBBBBBBBBBBBBBo@Xnmvhjzo .::*::-XX+lfjvvm..@ # BBBBBBBBBBBBBBB",
"BBBBBBBBBBBBBBBBX XMnbkjj#oo%=%$=*o+.fgdMnc#X oo+BBBBBBBBBBBBBBB",
"BBBBBBBBBBBBBBBBXO+cbchlk.X.$-*&=* .ofdlxcM.O@OoXBBBBBBBBBBBBBBB",
"BBBBBBBBBBBBB#.@MncjjzjjjfzdfdgzzhfhghgkzgjMNc#XoBBBBBBBBBBBBBBB",
"BBBBBBBBBBBBB#  MMcdgjhhdhfdljhlffgfkkdlzfhmnbX@ BBBBBBBBBBBBBBB",
"BBBBBBBBBBBBB+ +MvmghhdjgjhzdfjhlkdghhkdlffvbMOX BBBBBBBBBBBBBBB",
"BBBBBBBBBBBBB+ XzzgjggkhjzklkddfdfzfgdjffjjhkkOX#BBBBBBBBBBBBBBB",
"BBBBBBBBBBBBB.OOhhjzgdgkdgkhhhdllhzkdhdjgdldfj+OoBBBBBBBBBBBBBBB",
"BBBBBBBBBBBBBX#OfkgzjzdfddhfjgjhkkhzddghlzlzllX@@BBBBBBBBBBBBBBB",
"BBBBBBBBBBBBB# .e67ee6llfdlhkdddfggfjgjh606667XX@BBBBBBBBBBBBBBB",
"BBBBBBBBBBBBB@ #7wqe60fggfjljffjdhjjjhfd97q8e6   BBBBBBBBBBBBBBB",
"BBBBBBBBBBBBB.oo9w98wqjgldddlldhfdgklzdj6ww70eXo+BBBBBBBBBBBBBBB",
"BBBBBBBBBBBBBBBB XXhdffkjkzkggklfghgjhglkdg.+@BBBBBBBBBBBBBBBBBB",
"BBBBBBBBBBBBBBBBo#+dkjhflkffhdggfdjjjdddgzh. #BBBBBBBBBBBBBBBBBB",
"BBBBBBBBBBBBBBBBX+ofzhldzdgfglhhjgdgkhzhzlg.XoBBBBBBBBBBBBBBBBBB",
"BBBBBBBBBBBBBBBB.XOO  gzjlhfffgjjdjfhfffXX+#.OBBBBBBBBBBBBBBBBBB",
"BBBBBBBBBBBBBBBBX++@+Xkfjddfldlhkjgzjddl Xo#O#BBBBBBBBBBBBBBBBBB",
"BBBBBBBBBBBBBBBB.@@O@#fhzkjkhfgzdfkggkhd+o.XO BBBBBBBBBBBBBBBBBB",
"BBBBBBBBBBBBBX.#nNnbMxO@oO.+@@+@#+@+ Xooddd@### # @# o BBBBBBBBB",
"BBBBBBBBBBBBBooXMnncbn.@O +X#@O#X.@+@@# djf###@+#oX##.@BBBBBBBBB",
"BBBBBBBBBBBBB#X.MmMNcMo X O@X# +X++oXXo ljjO#@#.@  ..#oBBBBBBBBB",
"BBBBBBBBBB.#.MNv8wqlhf7e8ghh099969fzg09eqw8000##+42<oo BBBBBBBBB",
"BBBBBBBBBB.o+bmbw86lkk9w7dkf8w9e77kdk676080000###5<2@#.BBBBBBBBB",
"BBBBBBBBBB..#Nbme00jlfw9wjzgqqe9qwfgfe0q86q600#@@<>>  .BBBBBBBBB",
"BBBBBBBBBBoooupayts#O#8w6flzljhhgfffd8q6+o#q06#+X>,1OOoBBBBBBBBB",
"BBBBBBBBBB .@tusssu@##867kzdfzkzhjzzkqw6o#@009 O.>>1 X#BBBBBBBBB",
"BBBBBBBBBB# Xsusrsy##@770zkdkzkhghlfz079+.#767+##44<o++BBBBBBBBB",
"BBBBBBBBBB#+Ozlzewq#X 70998e0800e67eq0ee#OX+####+5<1#oOBBBBBBBBB",
"BBBBBBBBBB @#gfz880oo.0qe98777q0w8q99www #O@#++.@,,,o#XBBBBBBBBB",
"BBBBBBBBBBX+Xkgl009+XOw0qqw66e66q9e888q7X#O###+@X453 o@BBBBBBBBB",
"BBBBBBBBBBBBB.+oX@OO@Oljgggjgkffgdldkhgz+ +,,,><<,24@+.BBBBBBBBB",
"BBBBBBBBBBBBB X++.# .#gzdkjhgzkzhzgdljglX++,,,,>3<>>o  BBBBBBBBB",
"BBBBBBBBBBBBB +@.. X ozzjjhkzzdkzlhjlkdl X ,,,,11112.oXBBBBBBBBB",
"BBBBBBBBBBBBBBBBBBBXoowe07qq@..X #e70980.+@13,,<4XX@BBBBBBBBBBBB",
"BBBBBBBBBBBBBBBBBBBooo80q80e+#o@#+9w0w07. O53><1<#.+BBBBBBBBBBBB",
"BBBBBBBBBBBBBBBBBBB.+ 8q8898@ooo.O76q6q6##@1<522>#o#BBBBBBBBBBBB",
"BBBBBBBBBBBBBBBBBBBOo+khhfdf.O+ .oflgdgf@+@##Xo..BBBBBBBBBBBBBBB",
"BBBBBBBBBBBBBBBBBBBX@Xzkgzjk Oo o#fkdddd X@ X#X+#BBBBBBBBBBBBBBB",
"BBBBBBBBBBBBBBBBBBB.o.hgfhhf@@X o@lhkgdjoooX o# +BBBBBBBBBBBBBBB",
"BBBBBBBBBBBBBBBBBBBBBBBBBBBBBBBBBBBBBBBBBBBBBBBBBBBBBBBBBBBBBBBB",
"BBBBBBBBBBBBBBBBBBBBBBBBBBBBBBBBBBBBBBBBBBBBBBBBBBBBBBBBBBBBBBBB",
"BBBBBBBBBBBBBBBBBBBBBBBBBBBBBBBBBBBBBBBBBBBBBBBBBBBBBBBBBBBBBBBB",
"BBBBBBBBBBBBBBBBBBBBBBBBBBBBBBBBBBBBBBBBBBBBBBBBBBBBBBBBBBBBBBBB",
"BBBBBBBBBBBBBBBBBBBBBBBBBBBBBBBBBBBBBBBBBBBBBBBBBBBBBBBBBBBBBBBB",
"BBBBBBBBBBBBBBBBBBBBBBBBBBBBBBBBBBBBBBBBBBBBBBBBBBBBBBBBBBBBBBBB",
"BBBBBBBBBBBBBBBBBBBBBBBBBBBBBBBBBBBBBBBBBBBBBBBBBBBBBBBBBBBBBBBB",
"BBBBBBBBBBBBBBBBBBBBBBBBBBBBBBBBBBBBBBBBBBBBBBBBBBBBBBBBBBBBBBBB",
"BBBBBBBBBBBBBBBBBBBBBBBBBBBBBBBBBBBBBBBBBBBBBBBBBBBBBBBBBBBBBBBB",
"BBBBBBBBBBBBBBBBBBBBBBBBBBBBBBBBBBBBBBBBBBBBBBBBBBBBBBBBBBBBBBBB",
"BBBBBBBBBBBBBBBBBBBBBBBBBBBBBBBBBBBBBBBBBBBBBBBBBBBBBBBBBBBBBBBB"
};
