/* XPM */
static char *result[] = {
/* columns rows colors chars-per-pixel */
"64 64 49 1 ",
"  c #0E061A",
". c #0F061A",
"X c #0E071A",
"o c #0F071A",
"O c #0E061B",
"+ c #0F061B",
"@ c #0E071B",
"# c #0F071B",
"$ c #2E2EB0",
"% c #2F2EB0",
"& c #2E2FB0",
"* c #2F2FB0",
"= c #2E2EB1",
"- c #2F2EB1",
"; c #2E2FB1",
": c #2F2FB1",
"> c #647292",
", c #657292",
"< c #647392",
"1 c #657392",
"2 c #647293",
"3 c #657293",
"4 c #647393",
"5 c #657393",
"6 c #726EEA",
"7 c #736EEA",
"8 c #726FEA",
"9 c #736FEA",
"0 c #726EEB",
"q c #736EEB",
"w c #726FEB",
"e c #736FEB",
"r c #92A0B8",
"t c #93A0B8",
"y c #92A1B8",
"u c #93A1B8",
"i c #92A0B9",
"p c #93A0B9",
"a c #92A1B9",
"s c #93A1B9",
"d c #C6CEDC",
"f c #C7CEDC",
"g c #C6CFDC",
"h c #C7CFDC",
"j c #C6CEDD",
"k c #C7CEDD",
"l c #C6CFDD",
"z c #C7CFDD",
"x c None",
/* pixels */
"xxxxxxxxxxxxxxxxxxxxxxxxxxxxxxxxxxxxxxxxxxxxxxxxxxxxxxxxxxxxxxxx",
"xxxxxxxxxxxxxxxxxxxxxxxxxxxxxxxxxxxxxxxxxxxxxxxxxxxxxxxxxxxxxxxx",
"xxxxxxxxxxxxxxxxxxxxxxxxxxxxxxxxxxxxxxxxxxxxxxxxxxxxxxxxxxxxxxxx",
"xxxxxxxxxxxxxxxxxxxxxxxxxxxxxxxxxxxxxxxxxxxxxxxxxxxxxxxxxxxxxxxx",
"xxxxxxxxxxxxxxxxxxxxxxxxxxxxxxxxxxxxxxxxxxxxxxxxxxxxxxxxxxxxxxxx",
"xxxxxxxxxxxxxxxxxxxxxxxxxxxxxxxxxxxxxxxxxxxxxxxxxxxxxxxxxxxxxxxx",
"xxxxxxxxxxxxxxxxxxxxxxxxxxxxxxxxxxxxxxxxxxxxxxxxxxxxxxxxxxxxxxxx",
"xxxxxxxxxxxxxxxxxxxxxxxxxxxxxxxxxxxxxxxxxxxxxxxxxxxxxxxxxxxxxxxx",
"xxxxxxxxxxxxxxxxxxxxxxxxxxxx#@@ #@.XX#O#xxxxxxxxxxxxxxxxxxxxxxxx",
"xxxxxxxxxxxxxxxxxxxxxxxxxxxx o+@.Oo+#OO xxxxxxxxxxxxxxxxxxxxxxxx",
"xxxxxxxxxxxxxxxxxxxxxxxxxxxxO @OXXO..+XXxxxxxxxxxxxxxxxxxxxxxxxx",
"xxxxxxxxxxxxxxxxxxxxxxo#O@.#+ #7w7qq9+Oo@#@o#Oxxxxxxxxxxxxxxxxxx",
"xxxxxxxxxxxxxxxxxxxxxx@+oXXO..o7w9q97o#.Xo@o+.xxxxxxxxxxxxxxxxxx",
"xxxxxxxxxxxxxxxxxxxxxx@++#+OXO#7eq6ew.@OOo+O.Xxxxxxxxxxxxxxxxxxx",
"xxxxxxxxxxxxxxxxxxx.. zhhkfgO@@=&*%=;O@+hjkzzf X@xxxxxxxxxxxxxxx",
"xxxxxxxxxxxxxxxxxxxO@ojfgkkk. .*&-:%:o.Ohlfjdf  .xxxxxxxxxxxxxxx",
"xxxxxxxxxxxxxxxxxxx## glhfkfO#X%:--;:.oozdgdkk@@@xxxxxxxxxxxxxxx",
"xxxxxxxxxxxxxxxxoo+.+Xllztay.XO%:$&:*OXotatgzh@##xxxxxxxxxxxxxxx",
"xxxxxxxxxxxxxxxxOo+ XOzdlsstO.o--$&--oOXrithjhOoXxxxxxxxxxxxxxxx",
"xxxxxxxxxxxxxxxxX.O..Xkkzyai.O@*%*-&-o# ruuddd @Oxxxxxxxxxxxxxxx",
"xxxxxxxxxxxxxxxx..#gdjyrptrupsrpuptpryriiiiaiildgoOXxxxxxxxxxxxx",
"xxxxxxxxxxxxxxxx.X.lgjsppupiirtaryisssyyyasaaykfh+ Xxxxxxxxxxxxx",
"xxxxxxxxxxxxxxxxX+Okjgirpayryuiyisitsutiprysuizjj@o+xxxxxxxxxxxx",
"xxxxxxxxxxxxxxxxo+@uyyrsaOO#@ oo. O#o++ +#.itiirrO@#xxxxxxxxxxxx",
"xxxxxxxxxxxxxxxx...tupiru@o@#Xo#+oX. o@#o ouraris#@Xxxxxxxxxxxxx",
"xxxxxxxxxxxxxxxx. OiypauaOX @OO#++oOX@O.o#@psrrts.o+xxxxxxxxxxxx",
"xxxxxxxxxxxxxxxx##X522444X+#@+#o OoXO #.@X+>445<5 O#xxxxxxxxxxxx",
"xxxxxxxxxxxxxxxx#+O353,51@#@X+#@@OXOX.+..X+<<>55< +Oxxxxxxxxxxxx",
"xxxxxxxxxxxxxxxxXXX1<>45<X. ..Oo++.X+ @#.  15,254o@Oxxxxxxxxxxxx",
"xxxxxxxxxxxxxxxxxxx X#sstddddkz...+#+gzfdlfiiu +oxxxxxxxxxxxxxxx",
"xxxxxxxxxxxxxxxxxxx@ @rptdfdhdk#O ++#ghdhlkpuu @Oxxxxxxxxxxxxxxx",
"xxxxxxxxxxxxxxxxxxx# @sppgdhgdfOOoOOOzjdkgkuss+X.xxxxxxxxxxxxxxx",
"xxxxxxxxxxo@+O O.#O#XXo@+.O+##oo# XO#siurpy#+o+@ xxxxxxxxxxxxxxx",
"xxxxxxxxxx#+.XX oOoo@OO.oOOoO#O O.@ @yrsssiOo#XO@xxxxxxxxxxxxxxx",
"xxxxxxxxxxXO@oX #o#o@ Oo+# O+.@oX@+OOsauuua# X###xxxxxxxxxxxxxxx",
"xxxxxxxxxxX @ytyyrsdzgjhjjjzX @X+O.O#o+#.+Xhzhkgh@..xxxxxxxxxxxx",
"xxxxxxxxxxO@#taaisrdkjzfgjdh X#+O@+@ X+XO@odjdzddo+#xxxxxxxxxxxx",
"xxxxxxxxxx .Oataustjhhzzjlkk+.oO +oOO#+X#+#kjkjhz+@@xxxxxxxxxxxx",
"xxxxxxxxxx++@apt;*=0e7980hhg.++12,,,<pur,,5yss313jkd@+@xxxxxxxxx",
"xxxxxxxxxx#X raa=:$qq9869lhh .@>32<,5uar2<<tay55<jlj@O@xxxxxxxxx",
"xxxxxxxxxx  #rat*=*9eq08eggf.O@55<<>>pyy224tyi551jjj@@@xxxxxxxxx",
"xxxxxxxxxx# o544=$&&*%e76ypto.Xuuipyyypa,33#X#q6w69q.@@xxxxxxxxx",
"xxxxxxxxxxo.@>23-:$-%%qw9arr.+Xssrsssysu242.#@e97867#o#xxxxxxxxx",
"xxxxxxxxxx#+o,<5&%%-:;787ura.oXrurutuppt53> +o6wqqqq+ +xxxxxxxxx",
"xxxxxxxxxx @+3,<$:;%**869isio#X1253541543>1@@+343aai+X@xxxxxxxxx",
"xxxxxxxxxxXO@552&$*%%;wewitr+..14>433114225 +X>13uys..#xxxxxxxxx",
"xxxxxxxxxxo@@35,&&:--;q7wtyuXoX113,5<,514<4 O@423pup@#.xxxxxxxxx",
"xxxxxxxxxxxxx+OX11213<ria +@hdhspstyptpriri#+.#.+##Oxxxxxxxxxxxx",
"xxxxxxxxxxxxx#O+51,>24yiuoO jdgtpupraauyyypX@X@@#o+Xxxxxxxxxxxxx",
"xxxxxxxxxxxxxXX <<52<1aiuOO@zjkrtyauystuatu . X..+@#xxxxxxxxxxxx",
"xxxxxxxxxxxxxxxx@#X+XX +oljhhdjO .XXOsastup  Oxxxxxxxxxxxxxxxxxx",
"xxxxxxxxxxxxxxxx... @@.+XghhjglX+OOX.upiiauo@Xxxxxxxxxxxxxxxxxxx",
"xxxxxxxxxxxxxxxxoo++   X fkhhdfo+O o@rruassXX+xxxxxxxxxxxxxxxxxx",
"xxxxxxxxxxxxxxxxxxxxxxxxxxxxxxxxxxxxxxxxxxxxxxxxxxxxxxxxxxxxxxxx",
"xxxxxxxxxxxxxxxxxxxxxxxxxxxxxxxxxxxxxxxxxxxxxxxxxxxxxxxxxxxxxxxx",
"xxxxxxxxxxxxxxxxxxxxxxxxxxxxxxxxxxxxxxxxxxxxxxxxxxxxxxxxxxxxxxxx",
"xxxxxxxxxxxxxxxxxxxxxxxxxxxxxxxxxxxxxxxxxxxxxxxxxxxxxxxxxxxxxxxx",
"xxxxxxxxxxxxxxxxxxxxxxxxxxxxxxxxxxxxxxxxxxxxxxxxxxxxxxxxxxxxxxxx",
"xxxxxxxxxxxxxxxxxxxxxxxxxxxxxxxxxxxxxxxxxxxxxxxxxxxxxxxxxxxxxxxx",
"xxxxxxxxxxxxxxxxxxxxxxxxxxxxxxxxxxxxxxxxxxxxxxxxxxxxxxxxxxxxxxxx",
"xxxxxxxxxxxxxxxxxxxxxxxxxxxxxxxxxxxxxxxxxxxxxxxxxxxxxxxxxxxxxxxx",
"xxxxxxxxxxxxxxxxxxxxxxxxxxxxxxxxxxxxxxxxxxxxxxxxxxxxxxxxxxxxxxxx",
"xxxxxxxxxxxxxxxxxxxxxxxxxxxxxxxxxxxxxxxxxxxxxxxxxxxxxxxxxxxxxxxx",
"xxxxxxxxxxxxxxxxxxxxxxxxxxxxxxxxxxxxxxxxxxxxxxxxxxxxxxxxxxxxxxxx"
};
