/* XPM */
static char *result[] = {
/* columns rows colors chars-per-pixel */
"64 64 57 1 ",
"  c #0E061A",
". c #0F061A",
"X c #0E071A",
"o c #0F071A",
"O c #0E061B",
"+ c #0F061B",
"@ c #0E071B",
"# c #0F071B",
"$ c #2E2EB0",
"% c #2F2EB0",
"& c #2E2FB0",
"* c #2F2FB0",
"= c #2E2EB1",
"- c #2F2EB1",
"; c #2E2FB1",
": c #2F2FB1",
"> c #546C8E",
", c #556C8E",
"< c #546D8E",
"1 c #556D8E",
"2 c #546C8F",
"3 c #556C8F",
"4 c #546D8F",
"5 c #556D8F",
"6 c #647292",
"7 c #657292",
"8 c #647392",
"9 c #657392",
"0 c #647293",
"q c #657293",
"w c #647393",
"e c #657393",
"r c #726EEA",
"t c #736EEA",
"y c #726FEA",
"u c #736FEA",
"i c #726EEB",
"p c #736EEB",
"a c #726FEB",
"s c #736FEB",
"d c #92A0B8",
"f c #93A0B8",
"g c #92A1B8",
"h c #93A1B8",
"j c #92A0B9",
"k c #93A0B9",
"l c #92A1B9",
"z c #93A1B9",
"x c #C6CEDC",
"c c #C7CEDC",
"v c #C6CFDC",
"b c #C7CFDC",
"n c #C6CEDD",
"m c #C7CEDD",
"M c #C6CFDD",
"N c #C7CFDD",
"B c None",
/* pixels */
"BBBBBBBBBBBBBBBBBBBBBBBBBBBBBBBBBBBBBBBBBBBBBBBBBBBBBBBBBBBBBBBB",
"BBBBBBBBBBBBBBBBBBBBBBBBBBBBBBBBBBBBBBBBBBBBBBBBBBBBBBBBBBBBBBBB",
"BBBBBBBBBBBBBBBBBBBBBBBBBBBBBBBBBBBBBBBBBBBBBBBBBBBBBBBBBBBBBBBB",
"BBBBBBBBBBBBBBBBBBBBBBBBBBBBBBBBBBBBBBBBBBBBBBBBBBBBBBBBBBBBBBBB",
"BBBBBBBBBBBBBBBBBBBBBBBBBBBBBBBBBBBBBBBBBBBBBBBBBBBBBBBBBBBBBBBB",
"BBBBBBBBBBBBBBBBBBBBBBBBBBBBBBBBBBBBBBBBBBBBBBBBBBBBBBBBBBBBBBBB",
"BBBBBBBBBBBBBBBBBBBBBBBBBBBBBBBBBBBBBBBBBBBBBBBBBBBBBBBBBBBBBBBB",
"BBBBBBBBBBBBBBBBBBBBBBBBBBBBBBBBBBBBBBBBBBBBBBBBBBBBBBBBBBBBBBBB",
"BBBBBBBBBBBBBBBBBBBBBBBBB+@o@@o@@ X.+BBBBBBBBBBBBBBBBBBBBBBBBBBB",
"BBBBBBBBBBBBBBBBBBBBBBBBBX+o.X# #++o@BBBBBBBBBBBBBBBBBBBBBBBBBBB",
"BBBBBBBBBBBBBBBBBBBBBBBBB##+X #..+XX.BBBBBBBBBBBBBBBBBBBBBBBBBBB",
"BBBBBBBBBBBBBBBBBBBO.O+# .+ iruiay+# @XOOX.BBBBBBBBBBBBBBBBBBBBB",
"BBBBBBBBBBBBBBBBBBB#o..o@ @ tsurtp .@+O#. oBBBBBBBBBBBBBBBBBBBBB",
"BBBBBBBBBBBBBBBBBBB+Oo OOXX+sssptp. +OooXOOBBBBBBBBBBBBBBBBBBBBB",
"BBBBBBBBBBBBBBBB@.XnmNnbbX@@:$-*%*+XOMMcvcb.XXBBBBBBBBBBBBBBBBBB",
"BBBBBBBBBBBBBBBB#OXnbNmNMO.X%;$&**.OoNMmbcm+@#BBBBBBBBBBBBBBBBBB",
"BBBBBBBBBBBBBBBB@OXnNMNcc+o@=&%;%*@o.bxxNvbX##BBBBBBBBBBBBBBBBBB",
"BBBBBBBBBBBBBBBBX+OxncgffXX@=;::-=@X.jfkbvM+#o#@.BBBBBBBBBBBBBBB",
"BBBBBBBBBBBBBBBB +ocbbfkzO.+-$-&%*o#OhlfnMn. #@.@BBBBBBBBBBBBBBB",
"BBBBBBBBBBBBBBBBo@.mbmjdzo  -&:;:*X.XzdhxNv O@@@@BBBBBBBBBBBBBBB",
"BBBBBBBBBBBBB..#NvMjhddjklkjddkkfhdzgzfzgdjvvx@.XBBBBBBBBBBBBBBB",
"BBBBBBBBBBBBB+ oNNmdldlfdhfdlkgdfjzfdjhkkkgmvN@ .BBBBBBBBBBBBBBB",
"BBBBBBBBBBBBB+O+MMNgfhfgjkfzkhzhzjhhgdzzjffxcM+O#BBBBBBBBBBBBBBB",
"BBBBBBBBBBBBB.O#kdgljgfzkgjkjjzfddghgdzkhjjzdj+X@BBBBBBBBBBBBBBB",
"BBBBBBBBBBBBBo@ kjzkhfdjkjfdfgfflhzjdfzkfdldkjXo+BBBBBBBBBBBBBBB",
"BBBBBBBBBBBBB@# kzhzlklfjhfkkgzfkklzddffgjlklf@#@BBBBBBBBBBBBBBB",
"BBBBBBBBBBBBBo..7760welglgjdlddffhdhkzjz897806O @BBBBBBBBBBBBBBB",
"BBBBBBBBBBBBB@ .9w9q67kgjfjkkkhjjdjldgdd8786e6##oBBBBBBBBBBBBBBB",
"BBBBBBBBBBBBBOoX9ee7w9khgjfjdjglkddjjzdh7ee068X  BBBBBBBBBBBBBBB",
"BBBBBBBBBBBBBBBB+ oglhdzjfhzgdfzfkhjkhgdfhg+ @BBBBBBBBBBBBBBBBBB",
"BBBBBBBBBBBBBBBBo +jhllhhdhdzgdzfjjghfgjfkfXO#BBBBBBBBBBBBBBBBBB",
"BBBBBBBBBBBBBBBBX@#jzkkdldgdhgfhjzjgkhkfjjgOO@BBBBBBBBBBBBBBBBBB",
"BBBBBBBBBBBBBBBB@ O+O.hhjgzgkggzhlddzhgf#X#+o +oX +@...BBBBBBBBB",
"BBBBBBBBBBBBBBBB o+O+ozfjddlgjzzjkzzgjdjOoo@+@#+.O++#.@BBBBBBBBB",
"BBBBBBBBBBBBBBBB+@#@.Odhhjdlglhkfflzzgdh+@ @O#X@@@. O# BBBBBBBBB",
"BBBBBBBBBBBBBX XcnMNnxOOXO oo #XX.@+.oXofdj###5<>411X..BBBBBBBBB",
"BBBBBBBBBBBBB+.OMnnbvc @+o#O# O#@.X#@@#+ggho##>,><2<X. BBBBBBBBB",
"BBBBBBBBBBBBB.o.NmbmcmoO+XX###oO.o+o@XXOjgd###<2><,4@oXBBBBBBBBB",
"BBBBBBBBBB.+.mvcew9hgh6e9dlg06q879fll79wqw700q#oo>15@X@BBBBBBBBB",
"BBBBBBBBBB+ +Nmcw69hkl609dkhew7e8ehdle876wq70wX# <,3X@@BBBBBBBBB",
"BBBBBBBBBBOX@bnce00kjh86qggg0qw898hhfw77w677w0+# 3,>X+oBBBBBBBBB",
"BBBBBBBBBB#o srypyy000908ljzljzljhfld9q6000aauO+#3>5 .@BBBBBBBBB",
"BBBBBBBBBB#o+truytrwq0906fkfjlzzgzdzf7w7006ysu o@,,5o@+BBBBBBBBB",
"BBBBBBBBBB# #suiytr0ww860djfkkjhghhjlq69000tsu#. 52>@XOBBBBBBBBB",
"BBBBBBBBBB@X#hll9ee#  7098696860766eqqe6@OO#+ 3,1,4,.O+BBBBBBBBB",
"BBBBBBBBBB.O@ghdw86oO.qq70w776q00wqewe9wXO X#@,34<45XOoBBBBBBBBB",
"BBBBBBBBBBO#.jgz7qeXo.w07606qw6qee89ww76X+O@@X>334<3+O BBBBBBBBB",
"BBBBBBBBBBBBBX+ X#OO++ljfhljhhgjlklhfhglO@+1221,<oo+BBBBBBBBBBBB",
"BBBBBBBBBBBBB .  +o  Xfhgllglzfghkjfdlllo +242454#@+BBBBBBBBBBBB",
"BBBBBBBBBBBBB.oo@+o# #djdkgkfdfkzzzzfkdjOXX,>1244@O+BBBBBBBBBBBB",
"BBBBBBBBBBBBBBBBBBB#X.9700q0XX++XX7979w0.XoX + # BBBBBBBBBBBBBBB",
"BBBBBBBBBBBBBBBBBBB@ .9q6708O.+@+oe906qw..OX+.Oo@BBBBBBBBBBBBBBB",
"BBBBBBBBBBBBBBBBBBB...80q69wO Xo.#907870##.#X#++OBBBBBBBBBBBBBBB",
"BBBBBBBBBBBBBBBBBBBBBBBBBBBBBBBBBBBBBBBBBBBBBBBBBBBBBBBBBBBBBBBB",
"BBBBBBBBBBBBBBBBBBBBBBBBBBBBBBBBBBBBBBBBBBBBBBBBBBBBBBBBBBBBBBBB",
"BBBBBBBBBBBBBBBBBBBBBBBBBBBBBBBBBBBBBBBBBBBBBBBBBBBBBBBBBBBBBBBB",
"BBBBBBBBBBBBBBBBBBBBBBBBBBBBBBBBBBBBBBBBBBBBBBBBBBBBBBBBBBBBBBBB",
"BBBBBBBBBBBBBBBBBBBBBBBBBBBBBBBBBBBBBBBBBBBBBBBBBBBBBBBBBBBBBBBB",
"BBBBBBBBBBBBBBBBBBBBBBBBBBBBBBBBBBBBBBBBBBBBBBBBBBBBBBBBBBBBBBBB",
"BBBBBBBBBBBBBBBBBBBBBBBBBBBBBBBBBBBBBBBBBBBBBBBBBBBBBBBBBBBBBBBB",
"BBBBBBBBBBBBBBBBBBBBBBBBBBBBBBBBBBBBBBBBBBBBBBBBBBBBBBBBBBBBBBBB",
"BBBBBBBBBBBBBBBBBBBBBBBBBBBBBBBBBBBBBBBBBBBBBBBBBBBBBBBBBBBBBBBB",
"BBBBBBBBBBBBBBBBBBBBBBBBBBBBBBBBBBBBBBBBBBBBBBBBBBBBBBBBBBBBBBBB",
"BBBBBBBBBBBBBBBBBBBBBBBBBBBBBBBBBBBBBBBBBBBBBBBBBBBBBBBBBBBBBBBB"
};
