/* XPM */
static char *result[] = {
/* columns rows colors chars-per-pixel */
"64 64 57 1 ",
"  c #0E061A",
". c #0F061A",
"X c #0E071A",
"o c #0F071A",
"O c #0E061B",
"+ c #0F061B",
"@ c #0E071B",
"# c #0F071B",
"$ c #2E2EB0",
"% c #2F2EB0",
"& c #2E2FB0",
"* c #2F2FB0",
"= c #2E2EB1",
"- c #2F2EB1",
"; c #2E2FB1",
": c #2F2FB1",
"> c #546C8E",
", c #556C8E",
"< c #546D8E",
"1 c #556D8E",
"2 c #546C8F",
"3 c #556C8F",
"4 c #546D8F",
"5 c #556D8F",
"6 c #647292",
"7 c #657292",
"8 c #647392",
"9 c #657392",
"0 c #647293",
"q c #657293",
"w c #647393",
"e c #657393",
"r c #726EEA",
"t c #736EEA",
"y c #726FEA",
"u c #736FEA",
"i c #726EEB",
"p c #736EEB",
"a c #726FEB",
"s c #736FEB",
"d c #92A0B8",
"f c #93A0B8",
"g c #92A1B8",
"h c #93A1B8",
"j c #92A0B9",
"k c #93A0B9",
"l c #92A1B9",
"z c #93A1B9",
"x c #C6CEDC",
"c c #C7CEDC",
"v c #C6CFDC",
"b c #C7CFDC",
"n c #C6CEDD",
"m c #C7CEDD",
"M c #C6CFDD",
"N c #C7CFDD",
"B c None",
/* pixels */
"BBBBBBBBBBBBBBBBBBBBBBBBBBBBBBBBBBBBBBBBBBBBBBBBBBBBBBBBBBBBBBBB",
"BBBBBBBBBBBBBBBBBBBBBBBBBBBBBBBBBBBBBBBBBBBBBBBBBBBBBBBBBBBBBBBB",
"BBBBBBBBBBBBBBBBBBBBBBBBBBBBBBBBBBBBBBBBBBBBBBBBBBBBBBBBBBBBBBBB",
"BBBBBBBBBBBBBBBBBBBBBBBBBBBBBBBBBBBBBBBBBBBBBBBBBBBBBBBBBBBBBBBB",
"BBBBBBBBBBBBBBBBBBBBBBBBBBBBBBBBBBBBBBBBBBBBBBBBBBBBBBBBBBBBBBBB",
"BBBBBBBBBBBBBBBBBBBBBBBBBBBBBBBBBBBBBBBBBBBBBBBBBBBBBBBBBBBBBBBB",
"BBBBBBBBBBBBBBBBBBBBBBBBBBBBBBBBBBBBBBBBBBBBBBBBBBBBBBBBBBBBBBBB",
"BBBBBBBBBBBBBBBBBBBBBBBBBBBBBBBBBBBBBBBBBBBBBBBBBBBBBBBBBBBBBBBB",
"BBBBBBBBBBBBBBBBBBBBBBBBB#@+@@o+O.X.+BBBBBBBBBBBBBBBBBBBBBBBBBBB",
"BBBBBBBBBBBBBBBBBBBBBBBBBX+o. #.#++o@BBBBBBBBBBBBBBBBBBBBBBBBBBB",
"BBBBBBBBBBBBBBBBBBBBBBBBB##+X.o..+oXOBBBBBBBBBBBBBBBBBBBBBBBBBBB",
"BBBBBBBBBBBBBBBBBBBO.O+# O.+iryiay+o @X+OX.BBBBBBBBBBBBBBBBBBBBB",
"BBBBBBBBBBBBBBBBBBB#o.X.#.@ tsuprt oo+ ooOoBBBBBBBBBBBBBBBBBBBBB",
"BBBBBBBBBBBBBBBBBBB++. @OXX+saaitaoO+OooXOOBBBBBBBBBBBBBBBBBBBBB",
"BBBBBBBBBBBBBBBB@+ nmvmbvo#@:$-*$*+XONMcMcb X@BBBBBBBBBBBBBBBBBB",
"BBBBBBBBBBBBBBBB+ XnbNmMvO.X%;&&%*.O#bMmbcm+@oBBBBBBBBBBBBBBBBBB",
"BBBBBBBBBBBBBBBBOOXnNMbcc+oX:&%;=:#X.bxcxvbX#@BBBBBBBBBBBBBBBBBB",
"BBBBBBBBBBBBBBBBo@Xnccgkfo O$-::-=@X.lfkbvM+@ooO#BBBBBBBBBBBBBBB",
"BBBBBBBBBBBBBBBB OobNbfzhO..-=-$%*#oOfldMnn X+#.@BBBBBBBBBBBBBBB",
"BBBBBBBBBBBBBBBBoO#mbcjdk.  -&:;;* .#kdhxbv O@X@@BBBBBBBBBBBBBBB",
"BBBBBBBBBBBBBO.#vvMdfkdjjzkjddzkkhgzghffhdjvvx@.XBBBBBBBBBBBBBBB",
"BBBBBBBBBBBBB# .NMmdjdlfdhfdljgdfjlfdjgzzkgnnN@O.BBBBBBBBBBBBBBB",
"BBBBBBBBBBBBB+O+MNmgfzfgjkhkkfkhzjdzggzljffxcM+ oBBBBBBBBBBBBBBB",
"BBBBBBBBBBBBB O#kfgljgkzkljljdgfjffhddlkhljzdj+X@BBBBBBBBBBBBBBB",
"BBBBBBBBBBBBBo@OkjjkhfgjkjzdfhfllfzjdfljfdldfkX@OBBBBBBBBBBBBBBB",
"BBBBBBBBBBBBB@# khhhjkjfjffkkgzfkllzddffgklklf@@@BBBBBBBBBBBBBBB",
"BBBBBBBBBBBBBo..e77we8llgdgdjddffhdhjldz697600O #BBBBBBBBBBBBBBB",
"BBBBBBBBBBBBB@ +8w9q67kgjkjkkkfjlgjldgfd8768w6##XBBBBBBBBBBBBBBB",
"BBBBBBBBBBBBBOoo9ee7w9fhldfjjlglkddjzzdh7we708X OBBBBBBBBBBBBBBB",
"BBBBBBBBBBBBBBBB+ oglfdhjdlzgffhfkhdkhggfhg# @ oO +o+o.BBBBBBBBB",
"BBBBBBBBBBBBBBBBoOOdhllfhdhfzgflhjklffdjfkf@O#+O.@O+#o#BBBBBBBBB",
"BBBBBBBBBBBBBBBBX@#kzzkdldgdzghhjzkgzhzfzjdXO #oOo..O@oBBBBBBBBB",
"BBBBBBBBBBBBBBBBXXO+ +hhkgzgkghdhldfzhgf#X++oO<>><<1X.OBBBBBBBBB",
"BBBBBBBBBBBBBBBBX++O+ozfjfdkggzzjjlzdjdd Xo++@11,<,5X+.BBBBBBBBB",
"BBBBBBBBBBBBBBBB+@#@.Odhhjdlgzhzddghhkdd+# XO#<3<1>2@XXBBBBBBBBB",
"BBBBBBBBBBBBBX.@cnnNnxOOXOXoo oXo.X+.XXofdj0w0#.@,,<@@oBBBBBBBBB",
"BBBBBBBBBBBBB+. vMnmbc X+.#O# O# .@#@@# ddf0w8.@+>,<OXoBBBBBBBBB",
"BBBBBBBBBBBBBoX.MmvmcmoO+@XXo#oO.o+o@oXOjld60q+#X>4<#+.BBBBBBBBB",
"BBBBBBBBBB #.mbmew9hgh9e9ddg06e867kzl69wqw6ursO##2<< . BBBBBBBBB",
"BBBBBBBBBB. +NNcw68hkz609dff8w7e87hdjee76wqssu.#@,>, ..BBBBBBBBB",
"BBBBBBBBBB+#@Nvceq0kjf88qdzg07e8q6hgfw77w6qtsa#@X3>>oo@BBBBBBBBB",
"BBBBBBBBBB+o uiayyyX#X7w8ljzljzzjffgd8q6#.#X#+>1<,23+#.BBBBBBBBB",
"BBBBBBBBBBoo+truaur@##906kzfjlzzgkjzk7w7##O#+o>312<5X+oBBBBBBBBB",
"BBBBBBBBBB@ osuiypr##@680ddfkkdfghhfz069+O@XO#4,44<3+.oBBBBBBBBB",
"BBBBBBBBBBXo#flgewe#  709q696860q66eq0e6@O@4331<5@.+BBBBBBBBBBBB",
"BBBBBBBBBB.O@gfd866o .qq908776q008qe8e80X@ ,224,<o..BBBBBBBBBBBB",
"BBBBBBBBBB #ojgz7q9 X.w0q6w6qw67ee898w76X+O,><,52o.oBBBBBBBBBBBB",
"BBBBBBBBBBBBBX+oX#O++ ljfhljghggljlgfhgjOO@XXoO.OBBBBBBBBBBBBBBB",
"BBBBBBBBBBBBB..OO.o  ofhdllglzffhkldgjllXO+@@X###BBBBBBBBBBBBBBB",
"BBBBBBBBBBBBB.oX@.X# #fjdzhkkjfkzzhllkdlOX oX@O@@BBBBBBBBBBBBBBB",
"BBBBBBBBBBBBBBBBBBB@o.9q00qqXX.+ o7979w0.OoBBBBBBBBBBBBBBBBBBBBB",
"BBBBBBBBBBBBBBBBBBB@+.900768O.+@+oeq09qe..@BBBBBBBBBBBBBBBBBBBBB",
"BBBBBBBBBBBBBBBBBBB.o.800898O Xo +907600##+BBBBBBBBBBBBBBBBBBBBB",
"BBBBBBBBBBBBBBBBBBBBBBBBBBBBBBBBBBBBBBBBBBBBBBBBBBBBBBBBBBBBBBBB",
"BBBBBBBBBBBBBBBBBBBBBBBBBBBBBBBBBBBBBBBBBBBBBBBBBBBBBBBBBBBBBBBB",
"BBBBBBBBBBBBBBBBBBBBBBBBBBBBBBBBBBBBBBBBBBBBBBBBBBBBBBBBBBBBBBBB",
"BBBBBBBBBBBBBBBBBBBBBBBBBBBBBBBBBBBBBBBBBBBBBBBBBBBBBBBBBBBBBBBB",
"BBBBBBBBBBBBBBBBBBBBBBBBBBBBBBBBBBBBBBBBBBBBBBBBBBBBBBBBBBBBBBBB",
"BBBBBBBBBBBBBBBBBBBBBBBBBBBBBBBBBBBBBBBBBBBBBBBBBBBBBBBBBBBBBBBB",
"BBBBBBBBBBBBBBBBBBBBBBBBBBBBBBBBBBBBBBBBBBBBBBBBBBBBBBBBBBBBBBBB",
"BBBBBBBBBBBBBBBBBBBBBBBBBBBBBBBBBBBBBBBBBBBBBBBBBBBBBBBBBBBBBBBB",
"BBBBBBBBBBBBBBBBBBBBBBBBBBBBBBBBBBBBBBBBBBBBBBBBBBBBBBBBBBBBBBBB",
"BBBBBBBBBBBBBBBBBBBBBBBBBBBBBBBBBBBBBBBBBBBBBBBBBBBBBBBBBBBBBBBB",
"BBBBBBBBBBBBBBBBBBBBBBBBBBBBBBBBBBBBBBBBBBBBBBBBBBBBBBBBBBBBBBBB"
};
