/* XPM */
static char *result[] = {
/* columns rows colors chars-per-pixel */
"64 64 227 2 ",
"   c #0A0C27",
".  c #141D2A",
"X  c #321D2B",
"o  c #1C292E",
"O  c #1F2631",
"+  c #1D2835",
"@  c #06393A",
"#  c #1B3835",
"$  c #35242D",
"%  c #35272D",
"&  c #31322E",
"*  c #222732",
"=  c #232A35",
"-  c #2A2F36",
";  c #262D39",
":  c #292F3B",
">  c #362531",
",  c #3A2534",
"<  c #342B32",
"1  c #2A3335",
"2  c #273836",
"3  c #253A36",
"4  c #26343D",
"5  c #2C343C",
"6  c #2D3B3D",
"7  c #31363D",
"8  c #323A3E",
"9  c #144731",
"0  c #1C463B",
"q  c #2C423C",
"w  c #26493A",
"e  c #37403E",
"r  c #27553B",
"t  c #046226",
"y  c #2E3542",
"u  c #2C3941",
"i  c #313642",
"p  c #333A43",
"a  c #353D4A",
"s  c #393F4B",
"d  c #3B3D51",
"f  c #4B3A4A",
"g  c #543E5A",
"h  c #1E4243",
"j  c #2C4542",
"k  c #274844",
"l  c #2C4B43",
"z  c #354345",
"x  c #324D45",
"c  c #3B434C",
"v  c #334C4A",
"b  c #3B4B48",
"n  c #2B5342",
"m  c #2A5546",
"M  c #3E4553",
"N  c #2D5353",
"B  c #395350",
"V  c #3C5A5A",
"C  c #2C7A46",
"Z  c #454746",
"A  c #43464E",
"S  c #424A4E",
"D  c #52454F",
"F  c #424653",
"G  c #424A53",
"H  c #404758",
"J  c #434A5A",
"K  c #484F5E",
"L  c #554254",
"P  c #5B4658",
"I  c #445556",
"U  c #4D535D",
"Y  c #416056",
"T  c #495664",
"R  c #515666",
"E  c #555A64",
"W  c #5D546C",
"Q  c #54596A",
"!  c #624E61",
"~  c #65576B",
"^  c #466666",
"/  c #5D646D",
"(  c #586B69",
")  c #567969",
"_  c #5C6372",
"`  c #596875",
"'  c #5D7173",
"]  c #5F787A",
"[  c #61666D",
"{  c #61686E",
"}  c #616771",
"|  c #636972",
" . c #656D7A",
".. c #696F7C",
"X. c #687876",
"o. c #6A717C",
"O. c #70747F",
"+. c #1E973E",
"@. c #24963D",
"#. c #19A236",
"$. c #2D8E4E",
"%. c #388C62",
"&. c #4D905D",
"*. c #51876C",
"=. c #518F6E",
"-. c #62887C",
";. c #50B26A",
":. c #62AE7B",
">. c #686982",
",. c #657583",
"<. c #6B7383",
"1. c #6E768E",
"2. c #717685",
"3. c #747A84",
"4. c #787E87",
"5. c #71768A",
"6. c #747B8B",
"7. c #797E8C",
"8. c #717790",
"9. c #757D91",
"0. c #7B8386",
"q. c #778689",
"w. c #7E848D",
"e. c #639284",
"r. c #74908B",
"t. c #7D8392",
"y. c #7A8597",
"u. c #7C8C92",
"i. c #789797",
"p. c #7EA890",
"a. c #78B593",
"s. c #81858C",
"d. c #83888D",
"f. c #838B94",
"g. c #848997",
"h. c #83899C",
"j. c #87959B",
"k. c #868CA3",
"l. c #888DA4",
"z. c #898EAB",
"x. c #8D93A3",
"c. c #8C9DA4",
"v. c #8694AB",
"b. c #8D92AF",
"n. c #8D99AC",
"m. c #9196A4",
"M. c #9296AD",
"N. c #939BAD",
"B. c #999FAE",
"V. c #8D92B1",
"C. c #9196B3",
"Z. c #949AB3",
"A. c #989EB1",
"S. c #959CB9",
"D. c #9A9FBB",
"F. c #8CA6A9",
"G. c #96A4AA",
"H. c #96A4B5",
"J. c #9BA3B4",
"K. c #9BA1BA",
"L. c #9FA9BC",
"P. c #9FB2B9",
"I. c #A2ABB6",
"U. c #A1A6B9",
"Y. c #A3AABB",
"T. c #AAAEBB",
"R. c #A2B3BB",
"E. c #A8B7B8",
"W. c #93CAAD",
"Q. c #A9C5BB",
"!. c #A4ABC4",
"~. c #A9AFC7",
"^. c #A8AEC8",
"/. c #ABB3C6",
"(. c #ACBCC7",
"). c #A6B2CA",
"_. c #ACB3CA",
"`. c #ADBCCA",
"'. c #B0B6C5",
"]. c #B3BAC6",
"[. c #B1B7CD",
"{. c #B3BACD",
"}. c #B9BDCD",
"|. c #AEB4D4",
" X c #AEBCD2",
".X c #B2B7D1",
"XX c #B4BBD2",
"oX c #B9BED3",
"OX c #B5B7D8",
"+X c #B5BBD9",
"@X c #B9BEDA",
"#X c #ACC5C2",
"$X c #ACCBC3",
"%X c #B2C7C8",
"&X c #B4C2CC",
"*X c #BAC2CF",
"=X c #B5C1D4",
"-X c #BBC2D4",
";X c #B7C9D1",
":X c #BBCBD4",
">X c #BEC5DA",
",X c #BAC6E1",
"<X c #C2C4D4",
"1X c #C3CCD5",
"2X c #C1C6DB",
"3X c #C5CCDD",
"4X c #C9CEDF",
"5X c #C4D2DD",
"6X c #CCD3D9",
"7X c #C1C7E1",
"8X c #C6CEE1",
"9X c #C9CEE1",
"0X c #CBD2E3",
"qX c #CED8E8",
"wX c #D1D5E4",
"eX c #D5DCE7",
"rX c #D4D8E8",
"tX c #D4DBEB",
"yX c #DADEEB",
"uX c #D5DAF2",
"iX c #DBDEF1",
"pX c #D5E2EA",
"aX c #DAE1EE",
"sX c #DDE2F2",
"dX c #E3E9F5",
"fX c #E3E9F6",
"gX c #ECF0FE",
/* pixels */
"3.{.3XoX[.oXoXoX-X>X4XyXyXfX7 p i 3XoXoXoXoX-XoXoXoX3X4XeXdXp 5 y 4X>X3X3X3X3X3X4X3X3XyXyXyXp p W 9X4X3XoX4X3X3X3X3X4X4XyXI.y > ",
"2Xb.b.V.V.z.b.b.b.b.z.M..X{.dXi rXb.b.b.b.b.b.M.V.b.V.z.b.^.sXc sXb.b.b.b.b.b.b.C.z.z.M.b.{.1Xo.3Xb.z.b.z.b.b.b.b.b.z.C.z.3Xf., ",
"{.V.z.V.b.b.b.b.z.b.b.b.z.b.}.5 D.b.b.b.b.b.z.b.b.z.z.C.b.b.&Xa b.v.V.V.b.b.b.b.z.V.z.b.z.C.I./ C.b.V.b.b.b.b.b.b.z.b.z.b.C.o.$ ",
"b.b.b.V.b.b.b.b.V.V.b.b.C.C.oXy {.b.b.b.b.b.b.b.C.V.M.z.V.b.=Xa b.b.V.b.b.b.b.b.V.M.b.b.C.OXY._ V.b.b.b.b.b.b.b.b.M.b.b.z.C.5.X ",
"XXb.b.b.V.z.V.b.b.V.b.b.{.b.oXy XXC.b.V.z.V.V.b.z.b.V.V.^.XX&Xa D.C.V.V.b.z.b.b.V.b.z.V.XXXXY._ `.b.V.V.V.V.b.b.z.V.V.z.M.b.2.$ ",
"{.!.V.XX_.D.{.XX X{.{.b.V.b.oXy {.{.`.e.XXV.XXb.OXb.z.V.C.V.$.a b.b.b.D..X}.XXXXXXXXXX+XXXXXY./ XXD. XC.V.v.+X`.a.;.{.XXXX.XO.$ ",
"a ].M.v.p &Xm M.n. XXXn.; -Xp 7 5 .Xp 5 k XXb.x.x.XX}.9 XX,Xi 5 4 }.; k.{.;XB M.M.oXXXx.XX[.7 p E ).v.G.G.T 3.8 k e./.Y.XXx.p > ",
"5 5 2 m 4 k 2 8 8 n 5 1 5 6 8 5 5 5 2 k 5 1 5 p i p 4 5 3 k 6 1 1 2 5 6 0 j 6 7 p i 7 5 7 5 5 5 y 5 t ^ 6 7 8 8 i - 3 w 5 2 5 X ",
"pXiXpXv yXpXaX5 8 8 3X3XaX0XV 3X9X8X4X4XoXwXdXp y . yX8XwX3XwX8X8X8X8X3X3XqXeXi 8 + 8X9X4X4X4X4X4X5X5X3XrXyXI.p p s.P.u.qXaXyXP ",
"}.b.{./.[.XXXXiXa iXC.C.!.b.V.V.V.V.V.C.z.S.!.aXu iX!.C.C.C.C.C.V.C.V.V.C.A._.3Xz eXC.C.C.b.b.b.C.b.C.Z.K.z.3Xj.4.4XC.Z.D.XXXXg ",
"XXb.b.b.b.b.[.b.p b.b.b.V.V.V.V.b.b.b.b.V.b.V./.y b.C.b.V.b.V.b.b.b.V.V.b.b.z.L.a XXb.b.b.b.b.b.b.b.b.V.b.b.b.6...V.b.b.V.b.C.L ",
"XXb.b.b.b.b.b.b.p b.b.b.b.v.V.V.b.b.b.b.V.b.V.}.i V.b.b.V.b.b.b.v.b.b.V.b.b.b.Y.a XXb.V.b.b.V.C.V.b.b.b.b.V.b.6.o.V.b.b.V.M.XXL ",
"XXV.b.V.b.b. Xb.p b.V.z.b.V.b.b.z.V.V.b.b.b._.}.u V.K.z.b.b.b.b.C.z.b.b.b.b.z.Y.z XXb.b.b.z.C.z.b.V.b.b.b.b.b.6.o.XXb.b.z.z.XXL ",
"[.OX`.b.XX{.b.b.p {.XX}.|./.b.V.b.C.b.b.V.b.V.*Xa V.b.V.z.b.b.b.b.b.V.b.V.b.M.~.d *X{.n.oX#X^ .XXX_.{.|.(.S.b.4...b.`.}.}.oXXXL ",
"-XC.@XC.M. X-Xa p i -X=XF.+.oX@X=XZ.i 5 M.oX3X8 6 : -X-Xn.oX-XoXoXN.=XM.w $.w 8 i a =X=Xi.B <X-X_.D.XXC.r.( m.p 6 o.c.l p t.oXL ",
"p 4 - ; - w - : 1 : - ; ; ; p p p - p H H H H G 5 y y 4 y y p i p y y y 2 y 8 w 1 : G = 3 i p p i 1 ; : : 1 7 p 2 0 ; - : 7 i , ",
"p aXwX3X9X3X0X8X3X4X5XyXsXfX5 p - >XK.C.V.V.C.Z.@Xb.b.b.b.b.- 8 - M.v.n.z.v.b.Z.oX@XZ.3XaXsX1 7 R >X_._.=X=XJ.x.aX5XXXyXyXI.i % ",
"eX{.D.Z.C.C.C.C.C.Z.C.{.{.b.aX: rXC.V.z.V.V.b.V.b.b.b.b.b.C.wXp tXb.b.b.b.b.b.b.V.C.V.V./.XX1X .uXb.V.V.b.C.C.C.Y.C.z._.^.8Xf.$ ",
"{.+Xb.b.b.b.b.b.b.b.b.b.z.b.oXy D.b.b.V.b.b.b.b.b.b.b.V.b.b.C.K z.V.b.b.b.b.V.b.b.z.z.M.z.V.C._ V.v.V.b.b.v.V.b.V.b.b.b.b.C.2.$ ",
"XX+Xb.b.b.b.b.b.b.b.b.b.V.XX-Xi D.b.b.b.b.V.b.V.b.b.b.z.b.b.z.s b.V.b.b.b.b.b.V.b.C.b.b.b.b.I._ b.V.b.b.V.V.v.b.b.b.b.b.b.oX<.X ",
"XXb.V.V.b.b.b.b.b.b.b.b.XXOX-Xy XX|.S.V.b.b.b.z.b.b.b.b.b.b._.a b.b.b.b.XXb.b.v.z.b.b.b.z.Q.U.[ b.b.V.z.V.V.b.b.V.b.b.b.v.V.2.$ ",
"=X=XXX X[.%X+.XX@X#X|.h {.}.1X7 -X`.=Xe.`.S.b.b.V.V.V.b.V.b.b.c b.b.b.=XXXb.XXV.V.b..X@XW.%.!.| *Xb.b.V.V.XX@X=Xa.:.b.b.C.b.4.X ",
"a >XC.n.=Xn n C.2 #.>XC.:Xm i a y ,XS.S.# 2XV.S.M.-X-XM.5Xr 6 e p >Xn.K.r w N.Z.Z.>X=Xj.Y 7X8 p w I S.A.V.XXS.>.q 9 ^ !.>XN.p , ",
"; + o # 0 o o u p z . = * O * * * ; : * ; * ; i a i = # # = * = # = * 3 2 = 5 y y u = ; + * = O = * + = = O ; i 8 z = * ; = * X ",
"fXsXtX9X9X0XfX5 p * sXsXsXsXsXfXsXfXiXfXfXiXgX* 8   yX9X9X9X9X9X8X0XqXV N sXeX; p + sXsX8X9X9X9X9X9X9XtX0XsXT.5 p 0.9X>X2XsXsX! ",
"].z.S.V.V.C._.dXp aXXXXX{.{.XX{.{.XX[.[.{.{.[.yXp yXL.V.C.V.V.V.V.V.z.V.C.^.XX1XF eX^.!.C.V.V.V.C.V.C.Z.C.b.3Xf.3.6XV.V.V.^.~.g ",
".XV.V.z.b.b.z./.i b.XXb.n.b.b.b.b.b.b.M.b.b.b.}.y oXb.b.V.b.b.b.V.z.V.b.b.b.b.Y.s .XV.z.V.b.b.V.V.b.z.V.b.b.b.6...XXZ.V.b.b.C.L ",
"XXb.V.V.z.V.V.b.p b.b.b.b.b.b.b.z.b.M.z.b._.[.}.y XXb.b.z.b.b.b.b.b.z.V.V.b.V.I.a .XV.b.b.b.b.b.z.b.b.V.z.b.b.6...XXb.b.M.b.C.L ",
"D.V.b.b.b.V.V.b.p V.b.b.b.b.b.b.V.V.b.b.{.XX=X}.y C.C.V.b.b.V.b.z.b.b.b.b.b.b.Y.a .Xb.V.b.b.b.V.V.V.V.b.b./.XX5.o.C.V.b.V.R.XXL ",
"{.+X_.S.z.b.b.>X4 >Xb.XX=X*X=X{.V.XX.X+XXX=X@ :Xp -XK.S.C.b.V.z.b.b.M.V.V.b.b.T.F }.b.XX~.C.V.b.b.b.V.b.z.v.oXw.o.}.XX).b.z.C.L ",
"-XN.2XZ.Z.>X3Xp i 4 3X-XH.x x *X>XJ.2XZ.H.2X1Xz i : 2X:Xi = <X2X2XU.oXZ.U.2X].p p M 2X2XY.-XE <X[.U.Y.p 6  .M.p p ..>X_./.c.G.! ",
"p p p 5 7 5 p 7 5 w 5 5 5 4 p p i i 7 i y 6 l 2 5 5 6 l 7 i p p p i 7 7 5 8 5 7 7 5 7 7 7 i p i 7 7 - 7 7 7 7 5 8 i 7 7 7 p i X ",
"= yX9X9X9X9X9X9X8X8X9XaXfXfX5 8 : iX8X8X0X9XrX9X9X9X9X9XaXgX: 5 ; iXsX9X9X9X9X4X9X0XsXsXaXyX5 5 R sXsX8X9X9X9X9X9X9XsXsXiXI.p X ",
"yXM.C.C.b.z.b.b.V.M.C.b.[.[.aXi 0XC.z.V.V.V.V.b.V.V.b.C.^.!.sXa 4Xb.V.b.z.C.z.b.z.b.b.M.b.{.3X .tX^.b.b.b.V.V.b.z.b.b.C.b.3Xf.% ",
"].XXb.b.M.z.z.b.b.b.b.b.z.V.oXy K.V.V.V.V.V.z.V.V.V.b.b.b.V.oXi z.z.z.b.M.b.b.z.b.b.b.b.b.[.Y._ v.b.b.b.b.x.v.b.V.M.z.z.b.b.3.$ ",
"XX.XV.b.b.V.b.b.b.b.b.b.XXXXoXi .Xb.b.b.b.z.b.V.V.V.b.V.z.C.oXa .XC.C.b.z.b.b.C.b.b.b.b.b.b.Y./ XXXXb.b.b.b.b.b.b.b.V.V.C.V.5.X ",
"XXXXC.z.b.z.b.b.z.M.b.b.XXb.=X7 C.C.C.z.V.V.v.b.z.V.z.V.^.*X}.a !.b.b.b.b.b.b.V.b.b.b.V.V.x.R.( $X).b.b.b.b.b.b.V.z.b.b.b.V.2.$ ",
"2X{.XX.X.XXX&X@.XX@..X+XoX{.:X4 3XXX_.C.V.z.V.V.V.V.z.V.V.y.3Xb Z.b.b.b.b.b.V.V.b.b.b.z.V.=XE.m =.C.M.b.z.b.b.b.b.b.b.S..X=X7.X ",
"i -XN.N.-X-XN.x.c.w @XA.oX-Xn 1 p {.B.p u >XN.N.N.XXXXp.%.8X9 v a .XN.A.-X:XZ.N.H.-X(.m.-XE.z 8 E F.w p 2.T.N.N.L.H.C q.@Xx.8 $ ",
"s s a M c u c a v w M c a c a I A F S b U b G 6 j 7 F A G M &.Z F A A G G S M 6 6 q I c S G S F M G M S S A c p p c A G Z G F , ",
"M.V.V.V.C.l c.2 a y Z.b.b.V.M.yXsXiXsXyXaXsXdX3 v : sXsX=XoXXX8X8X4X8X4XaXaX0Xv 2 c 9X8X3X9X8X8X8X4XaXaXiXsXT.: 8 q.pXsXsXiXeX! ",
"!.C.b.b.b.W.N v a qX^.b.b.b.b.V.b.b.b.b..XXXE.aXi uXV.b.V.V.V.V.z.V.b.b.v.{.oX>Xc uXV.z.b.b.b.b.b.b.b.b.V.z.8Xj.4.b.b.b.V.V.V.L ",
"C.b.b.V.v.=.{.|.p V.C.C.b.b.b.z.b.z.V.b.V.=Xk ].i {.S.V.V.b.b.b.b.C.V.C.b.b.b.T.a XXV.b.b.b.b.b.b.z.b.b.b.b.b.6. .V.b.b.b.b.V.L ",
"^.V.b.b.v.v.V.XXp {.b.b.z.b.z.C.b.b.b.b.b.N.b.}.y b.b.b.b.b.b.b.b.z.b.z.b.b.b.Y.a b.b.b.b.b.b.b.b.V.b.b.b.b.b.6.o.b.b.b.b.b.V.L ",
"{.b.V.V._.b.`.=X6 ).b.b.v.b.b.b.b.b.b.b.b. X[.-Xi V.V.b.b.V.b.b.b.b.z.V.V.b._.!.a XXn.V.v.V.b.b.z.V.V.V.[.b.XX6. .b.M.V.b.b.b.L ",
"XXOX.XM.b.V.$X{.l K.b.v.z.b.b.b.b.b.b.b. X[.b.*Xi oXC.V.b.b.b.V.b.b.V.V.V._.XXI.G {.P.V.oX=X{.b.`.XXoXXXV.M.oX7.<.oX%X%X{. X=Xf ",
"/.n.[.x.m.#X$.w p a ].'.u /.&X]./.M.[.n.M.].'.7 p y {.[.M.b.V.V.V.b.b.V.V.b.R.q p M {._.y.5 U {.P.F.^.x.J.].g.i p } p.=.L.f.u.P ",
"p [ [ [ [ { ' ' [ / | } / | w 8 y G J J M M M G G M M M M M u 6 v [ ( 1 / <.5.6.6._ _ _ K T p 7 n ) T K b n K E } _ { / / U 7 % ",
"K 3X-XXXXXXXoXoXXXXXoXXX3XsXU 8 a 8.8.8.6.8.6.8.8.1.1.1.1.8.c 5 J iXpXQ ~.C.V.V.b.b.b.C.C.m.G p ^ V.C.n.i.e.C.~.9X0X2X8XtXY.c > ",
"wXC.b.b.b.M.b.V.b.b.b.b.z.!.eXy 9.b.b.b.v.b.b.b.V.b.V.z.V.M.t.z tXv.V.z.z.z.b.z.b.b.b.z.b.!.<X..^.V.b.V.C.M.C.z.z.C.b.b.b.2Xs.$ ",
"{.b.b.b.b.b.b.z.z.b.b.b.z.b._.y b.V.V.V.V.b.b.b.b.V.V.v.v.V.n.p _.V.b.b.C.b.b.V.b.b.b.b.b.C.U./ V.b.b.b.b.z.z.b.b.C.z.z.b.b.z.$ ",
"[.V.V.x.b.b.b.b.b.b.b.b.V.V.oXy v.V.v.b.M.b.V.V.V.v.V.V.b.v.b.a {.V.V.z.C.z.V.V.V.b.b.V.b.C.U.} b.b.b.b.b.b.M.b.V.z.M.b.b.b.2.X ",
"D.b.b.b.z.V.V.b.z.b.b.b.V.|.XXi M.V.V.V.V.S.V.x.V.b.v.b.V.b.N.a XXV.V.b.V.V.V.z.b.b.b.b.b.V.Y.l.b.b.b.z.V.z.b.b.V.V.z.z.b.b.3.$ ",
"_..X_.S.V.z.b.z.V.V.b.z.b.b.[.y b.C.b.l.v.i.i.v.n.b.V.z.v.b.k.c /.K.V.b.x.b.z.C.b.b.V.b.b.C.N.| C.v.b.z.b.V.b.M.b.z.C.C.{..X<.X ",
"p U.k.h.Y.p i k.h.J.v f.Y.I.q 8 p y.,.>.y.i.C <. .h.h.<.h.l.8 p 5 J.h.y.R.J.h.h.l.U.S.g.Y.B.i i Q A.h.m.L.G.-.*.M.U.7.| U.3.8 $ ",
"s.s.s.w.w.s.g.7 q 6 f.s.w.s.s.w.t.s.t.w.g.g.w.r q 5 s.w.d.w.w.0.j s.0.q.w q 0.6 p p s.7.w.s.s.s.w.w.w.s.r.r.) 8 7 E w.w.f.g.s.f ",
"wX8X2X@X<X2XrXX.v ..4X/.XX.XoX{.{..X2X<XrX(.eXX.j } wXwX<X>XR.:X' 2X2X0X] ` qX( v 2.wXoX2XXX.X.XoXXXXX.X>XrXT.I G M.wXwXC.C.wXP ",
"^.V.b.b.V.V.z.2Xp ~.V.b.V.b.V.b.b.b.V.b.(.,.[.wXi 9XV.V.b.C.z.C.b.b.V.V.V.C..X_.s 9Xz.z.C.z.b.b.b.V.z.V.V.b.(.O.O.<Xb.b.b.b.C.~ ",
"D.V.V.z.V.V.V.b.p b.b.b.b.b.z.b.b.b.z.b.V.b.XX}.i V.V.z.b.V.z.b.V.b.V.b.V.z.b.J.s XXb.b.b.C.z.b.V.z.z.b.z.V.n.v o.XXC.b.b.b.V.~ ",
"b.b.b.V.z.V.z.b.i b.b.V.z.b.b.b.b.b.V.b.b.b.b.].y XXb.b.V.z.C.z.z.b.V.z.V.b.b.C.p .XV.V.V.z.b.b.b.b.V.b.b.b.V.5.o.b.b.b.b.b.M.g ",
"C.b.b.b.C.b.^.{.<.b.b.b.b.z.V.V.z.b.b.b.b.b.n.].i _.V.b.V.b.b.C.z.C.z.C.b.b.^.Y.s D.V.b.V.V.M.b.V.b.b.b.b._.b.4.o.XXv.b.z.z.C.D ",
"{._.b.b.z.C.b.C.p Y.C.z.V.b.b.b.C.z.b.b.b.z.b.T.i U.V.V.!.z.V.z.b.z.C.z.M.b.b.C.p U.C.V.b.b.z.z.V.V.C.b.b.b.L.o._ T.V.XXC.b.M.g ",
"x.5.m.5.5.j.x.a p i m.m.6.j.m.x.m.7 x.5.6.m.m.8 p y x.x.6.m.x.x.m.6.x.2.7.x.h.p 8 c x.m.y.z.x.n.z.t.g.*.*.q.p p 6 E x.u.u.-.k.f ",
"> % % % % > % % > > > > > > , $ , $ > > $ $ > > < > > % > > > $ , > > > > > , > > > > , > > % % % % & & < > < % > < < < & , , X "
};
