/* XPM */
static char *result[] = {
/* columns rows colors chars-per-pixel */
"64 64 165 2 ",
"   c #000000",
".  c #000016",
"X  c #00011D",
"o  c #010224",
"O  c #0C0025",
"+  c #06042E",
"@  c #0A0029",
"#  c #040E28",
"$  c #11022D",
"%  c #130A2D",
"&  c #1A0D2E",
"*  c #031227",
"=  c #0A1227",
"-  c #0C152B",
";  c #0D182D",
":  c #14152B",
">  c #141A2E",
",  c #1A1C2D",
"<  c #0F1731",
"1  c #151531",
"2  c #1B1534",
"3  c #151C32",
"4  c #1B1C34",
"5  c #1C163D",
"6  c #161B3B",
"7  c #1C1D3A",
"8  c #211E35",
"9  c #221E38",
"0  c #172037",
"q  c #1B2235",
"w  c #1D2439",
"e  c #21212F",
"r  c #222335",
"t  c #23253A",
"y  c #29263E",
"u  c #24283C",
"i  c #2B2B3D",
"p  c #312C3D",
"a  c #32313F",
"s  c #252742",
"d  c #2C2440",
"f  c #242A43",
"g  c #2B2C42",
"h  c #262E4A",
"j  c #2C2E49",
"k  c #322C43",
"l  c #322F48",
"z  c #2D3245",
"x  c #2C324B",
"c  c #323246",
"v  c #353947",
"b  c #383946",
"n  c #33344B",
"m  c #39354E",
"M  c #363A4C",
"N  c #393B4C",
"B  c #333652",
"V  c #3D3751",
"C  c #353B54",
"Z  c #3B3D53",
"A  c #3B3F5A",
"S  c #403A54",
"D  c #443F58",
"F  c #3B404F",
"G  c #3C4154",
"H  c #3D435A",
"J  c #3E4A5A",
"K  c #414556",
"L  c #43445B",
"P  c #4A455E",
"I  c #444C5D",
"U  c #4A4E5E",
"Y  c #47505E",
"T  c #4A525E",
"R  c #424660",
"E  c #464C62",
"W  c #4A4E63",
"Q  c #444E68",
"!  c #494F69",
"~  c #465262",
"^  c #4C5364",
"/  c #4D5964",
"(  c #4E546A",
")  c #4E5969",
"_  c #515465",
"`  c #515967",
"'  c #52556A",
"]  c #535A6C",
"[  c #585969",
"{  c #4E5772",
"}  c #515770",
"|  c #555B71",
" . c #5A5D73",
".. c #565E78",
"X. c #595F79",
"o. c #5A636F",
"O. c #5C6375",
"+. c #5D637A",
"@. c #5C687E",
"#. c #616677",
"$. c #636976",
"%. c #61667B",
"&. c #636A7C",
"*. c #68697D",
"=. c #6F717E",
"-. c #636682",
";. c #656C82",
":. c #6A6E84",
">. c #676F89",
",. c #696F89",
"<. c #667185",
"1. c #6C7285",
"2. c #67728A",
"3. c #6D748C",
"4. c #6E788E",
"5. c #71758D",
"6. c #73798E",
"7. c #797C8F",
"8. c #6E7590",
"9. c #6F7990",
"0. c #717691",
"q. c #747A92",
"w. c #797D93",
"e. c #767F9A",
"r. c #797E99",
"t. c #768097",
"y. c #7B8195",
"u. c #7E839C",
"i. c #7E84A0",
"p. c #82869C",
"a. c #848A9E",
"s. c #8287A0",
"d. c #848BA3",
"f. c #8A8DA5",
"g. c #878FA8",
"h. c #898FA9",
"j. c #8C91A7",
"k. c #8C93AC",
"l. c #9091A7",
"z. c #9194AB",
"x. c #9199AE",
"c. c #9B9CAE",
"v. c #8F95B1",
"b. c #8F9AB1",
"n. c #9296B1",
"m. c #9995B0",
"M. c #949AB4",
"N. c #9C9DB2",
"B. c #989DB8",
"V. c #9BA1B5",
"C. c #9DA3BB",
"Z. c #A4A5BF",
"A. c #A3A9BE",
"S. c #A2A7C1",
"D. c #A5ABC2",
"F. c #AFADC6",
"G. c #ABAFC9",
"H. c #ADB3CD",
"J. c #B1B6CC",
"K. c #B5BACF",
"L. c #B8B9CE",
"P. c #B1B7D1",
"I. c #B9BBD1",
"U. c #B9BED9",
"Y. c #BDC3DC",
/* pixels */
"n.u.p.u.r.r.w.w.7.O.O.O.O._ _ X V.x.A.C.x.y.y.0 O.1.O.1.#.o.O.3 x.p.u.u.u.u.3.p.q.O.O.O.O.^ T   A.x.A.C.x.y.u.; @.1.O.4.O.O.$.i ",
"n.3.3.3.0.;.X.f.' +.( W ^ T T ; n.q.Q +.6.6.6.q ] &./ @.&.~ _ 4 x.5.3.3.3.-.+.s.W +.^ ^ ^ ^ `   k.q.E O.1.4.6.0 ^ O.^ *.O.^ ^ y ",
"n.5.3.3.-.} s.0.,.! X.^ / T / , k.3.,...4.o.@.w ~ ~ O.*.^ ~ _ 2 b.8.3.3.X.( i.0.5.( O.^ T ^ ^ X g.3.3.@.6.O.| 6 ^ / O.<.I ^ ' y ",
"&.O.X.-.%.h.8.3.0.3.' X.` ` T * v.4.3.3.+.<.4.3 7.1.O./ ^ ^ _ 4 1.+.-.>.-.n.8.3.0.0.( -.^ _ T   k.3.3.3.@.1.3.4 4.1.O.~ ^ ^ ^ q ",
"4.u.8.%.s.h.3.8.3.3.,.} &.( T > v.8.8.8.1.3.7.q ( ~ ^ I O.I _ 9 9.d.3.X.s.M.0.3.3.8.3.' ;._ ^   k.3.8.8.3.5.5.4 ~ ^ I ^ O.~ ` g ",
"3.&.;.s.0.,.5.3.3.3.3.8.O.%._ # n.3.3.,.q.5.3.4 ] ~ ~ ^ ^ O._ 8 q.;.;.s.8.,.3.8.3.0.8.,.] %.`   h.3.3.3.q.5.3.4 ( ~ ~ ^ ) O.^ y ",
"@.%.S.q.8.8.3.8.3.0.8.3.3.O.$.: 3.7.5.3.n :.1.4 ] ^ W E ^ T ( 2 -.-.Z.,.3.8.8.5.3.0.8.3.:.#.$.X ,.7.1.3.t 5.5.4 Q ^ W ^ _ _ ( g ",
"3.d.5.0.3.8.3.0.8.3.3.9.9.M a q K K G G d d f.t n k k c k a k r :.e.,.0.8.3.8.3.8.3.3.8.3.n z : G G H F d d c.t l k k l k k i 9 ",
"G V.1.8.8.8.0.,.3.:.5.:.3.z 1.o %.$.%.&.&.+.%.8 d.M.M.s.p.p.6.q x V.,.8.8.3.3.3.3.3.3.:.;.z w.# O.#.%.#.+.&.&.X w.M.M.s.s.s.w.1 ",
"H i 1.3.3.8.q.3.5.5.+.D.O.V.3.; T ^ ( ^ ^ ^ ( 2 9.0.0.3.3.q.O.3 I z 0.3.3.3.3.0.5.:.;.J.#.A.5.: W ( ^ ^ ^ ^ W 2 3.3.0.3.3.3.O.u ",
"^ _ M 1.0.8.%.C.3.3.E ' #.1.5.4 W ^ ^ ^ T O.] 9 q.4.3.5.8.q.1.3 ^ ( n 3.0.3.+.Z.3.5.! | *.5.3.1 ^ ( ( ^ T O.( $ 1.8.3.0.3.4.3.w ",
"^ ^ ^ c 5.3.0.,.1.0.]  .7.3.4.q ( ^ ^ ^ / T ( 4 4.3.3.X.5.+.q.q ^ ^ ( f 5.8.8.,.:.3.| %.;.5.5.> U ^ ^ ^ / ^ ( & 1.8.3...8.O.6.w ",
"/ T ^ ^ v 1.3.:.5.( 6.5.3.3.4.q ^ ^ U T ' O.p.9 4.1.3.1.;.3.3., ^ T ^ _ c w.5.5.,.' 3.3.3.3.5.1 I T ^ ^ ' X.y.2 4.4.3.4.@.3.5.t ",
"~ ^ ^ ^ _ c 6.5.| &.1.3.3.3.3.0 ^ ^ ^ ^ Q ~ W 4 4.<...3. .5.5.q ^ T ^ ^ T z 5.5.! 3.3.3.2.3.5.> ^ ^ ^ I ^ ( ^ 2 1.3.| 3.@.3.3.w ",
") ( T ^ U _ l  .+.6.q.5.1.3.5.q ! ( ~ O.6.( ' t 6.4.%.;.5.O.1.q _ I ^ T ^ _ c O.#.1.2.3.1.3.4.1 ^ ' ^ &.1.' ( 6 3.6.+.&.5.&.*.w ",
"n c c k y l n l Z Z Z G H G G z n l n k y n k 4 I F G M G b F 4 g n c i c l k u D Z Z H J G N u d l l g y l l 4 J F Z F G G Z r ",
"V.N.C.5.h.d.d.u <.5.%.5.%.$.*.2 a.f.d.d.s.f.P F. .;.%.%.' _ ` 3 Z.C.C.5.v.d.d.4 6.1.&.5.*.#.&.  d.d.d.s.s.d.D Z. .*.%.$._ ^ _ c ",
"3.1.5.Q q.5.w.; ) O.4./ ^ ( ( 7 0.3.q.3.0.E S.k.0.' ' ^ T ` / , :.0.3.R 8.0.q.- ` O.1.^ ^ ^ ^ O 3.2.,.0.q.L H.M.3.' I U T T ^ i ",
"' b.{ r.3.5.( ; &.^ ^ ^ _ ^ _ 7 0.0.,.3.R ,.s.,.0.q.' ( O.I O., W M.} s.0.3.( - &.^ ^ ^ ^ ^ ( O 3.3.8.0.C ,.h.3.5.5.' E O./ $.r ",
" .8.3.3.8.5.5.> +./ ^ ^ T O._ 1 5.i.q.A B.r.M.0.8.8.:.( ~ y.^ r ..,.3.8.3.3.1.= +.) ~ / ^ ] I O >.i.3.H S.u.B.0.,.0.;.! ~ 1.T t ",
"w.4.0.3.3.5.5.q _ ( ^ ^ T 5.' 2 3.n.B n.q.B.5.8.3.3.8.5.I O._ q r.0.5.8.3.3.3.: ^ ^ ~ ^ _ 7._ O 3.n.C n.3.B.,.8.8.8.4.3.' o.^ w ",
",.3.3.3.3.8.1.4 _ _ ^ ^ T ( ^ 1 ,.! v.s.0.3.8.0.8.8.8.8.;.O.#., 0.8.8.3.3.3.3.- ~ ^ ^ ^ P _ ^ & ,.Q M.h.5.0.3.0.3.8.3.9.&.%.&.y ",
";.#.%.&.&.&.;.9 P P P D P P P 2 L M.s.8.3.8.3.8.3.3.3.8.d.a.O., *.@.*.%.&.&.*., U P W D R P P o x M.p.3.8.3.3.8.8.3.8.3.d.u.O.z ",
"J ' E E E W W 8 1.:.1.5.:.:. .t 7.p.0.8.0.3.8.3.8.3.0.5.s.1. .4 E W E E E E U 2 :.:.:.:.:.1.| t p.f.q.0.3.8.0.3.3.8.3.0.f.;. .q ",
"( E O.~ ^ ^ ( X 3.3.1.3.3.f.q.3 L ( 3.3.3.3.3.3.5.,.3.3.d.g p.3 ( ' O./ ~ ^ ^ X 3.3.1.3.3.f.3.< Z ] 3.3.3.8.3.8.0.3.8.3.k.n p.t ",
"( ^ ] | ^ ^ ( X 1.5.3.1.u.1.3.q ' L ( q.3.3.3.0.n.3.0.q.j y.3.q ^ ( ] ^ ~ / ( . ,.3.5.3.p.5.1.< W A } ,.3.3.8.3.B.3.1.3.f p.q.t ",
"^ $.1./ ^ ^ ^ X 3.0.3.3.4.3.1.q ' ( > ( 4.3.3.3.,.0.q.j u.6.5.3 ( O.1.T ^ T T . 3.8.8.3.3.8.3.: ( W : _ 3.8.,.,.3.3.q.h i.3.6.w ",
"+./ O.` ^ ^ ^ X 1.0.3.3.4.4.4.q v N 6.G ( 3.5.R 0.0.f d.u.3.5.w %.^ O.` ^ ^ ( . 1.q.3.3.3.3.5.r M C 6.H | 1.0.E -.8.x d.u.3.3.w ",
"^ T T ^ ^ / ^ o 1.0.8.3.8.8.1.q O.] *.^ L | 1.6.8.f d.0.,.v.3.> I K T T T ^ ^ . 1.3.3.3.3.3.5.: *.%.1.^ G  .5.5.q.x d.3.q.k.5.w ",
"^ ^ ^ ^ ^ ^ ` . u.0.3.8.3.3.4.q ^ v =.^ ^ K ( 5.f d.8.3.u.3.6.q ( / ^ ^ ^ ^ T . t.q.0.3.,.3.5.: ~ G 1.^ ^ K ] 5.s s.8.q.u.8.3.w ",
"~ ^ ^ T ^ ^ ^ O u.5.0.3.i.3.3.q ' ^ w _ / T I b p.5.0.,.u.3.6.2 _ / ^ ^ ^ ^ ^ X u.3.8.5.i.3.3.: I U q _ T / L m s.5.0.5.u.3.6.t ",
"p p k k p k a r b v v v M v v r i p e e k a i i N b v b M v v r p p p k k p p e N v b v v v F r p p e e p p p i N v v v v v v e ",
"n.,.3.,.0.,.! H.7.W ' ` T / T * x.k.k.n.6.6.4., ^ &.^ &.^ Y U 4 k.q.,.:.3.8.} Y.5.^ W ^ Y ^ T   j.j.k.z.*.<.1.q ~ ;.^ ;.T ^ ^ y ",
"v.3.5.3.0.| z.w.q.;.( ^ T T _ ; M.3.( ( 1.6.1.0 ( E ^ I 1.^ _ 2 k.3.3.3.3.( k.q.;.3.( ^ ^ ^ _   k.5.} ' 6.1.7.0 ^ ^ ` ( 1.~ ^ y ",
"z.3.5.3.} q.r.8.,.5.6.^ _ T T q k.3.1.2.1.3.3.q ( E W ` _ ~ ' 7 k.e.3.8.{ s.e.0.5.7.1.^ T ^ ^ X k.4.3.>.6.6.5.0 ( ^ ` ^ ^ ( ' y ",
"d.] ! } s.h.8.3.5.0.1.:.( _ ^ ; M.1.4.3.3.<.6.3 1.<.4.^ ^ ~ _ 4 k.{ Q ( h.v.5.3.3.6.3.,.( ` T   k.4.3.3.4.3.5.6 ;.4.1.~ ~ ^ ) 7 ",
"9.1.} k.r.P.3.3.3.5.8.0.3.^ T 3 M.8.3.3.:.3.6.w ^ ( ^ K <._ _ 9 q.0.{ v.5.Y.,.3.3.0.0.0.w.^ T   h.8.3.8.3.3.6.4 ( ~ ^ K *.~ ` g ",
"q.' k.h.8.5.3.8.8.8.5.0.q.1.` > M.8.3.>.3.5.5.3 ] ~ / J ) U W r q.R k.n.8.3.8.3.8.3.3.3.5.:.]   d.8.3.6.3.3.5.4 ( / ~ ~ ) ~ ' y ",
"X.d.n.8.8.3.3.8.8.3.5.3.1.1.1.4 q.6.0.0.m 5.5.w _ ' ] W E ^ [ t ( n.M.,.0.3.3.8.8.3.3.3.5.3.1.. ,.7.5.3.t 5.1.4 ( ' ' W W ^ ( y ",
"A.w.0.0.3.8.5.3.3.8.3.8.3.M c q w , w w m t + 8 g s g s d g y > D.1.,.,.3.3.5.3.5.3.3.0.q.n M u - q t w S u . 8 g g g g y y y , ",
"M =.4.3.3.8.3.3.5.3.3.3.3.3 L.f _ ^ E W ^ ~ ( y 3.3.q.3.3.>.' 3 C 5.q.3.0.3.3.0.3.3.:.3.3.f K.< ( ' W ^ ^ ^ ' @ 3.0.8.3.3.,.( t ",
"' N *.3.3.9.3.0.5.5.( A.M a.w.3 ^ ^ ^ ^ ^ ) W t 9.3.3.3.,.3.6.q ' z 1.3.3.3.3.8.3.;.( J.M l.w.: I ^ ^ ^ ^ ^ ( @ 3.1.3.8.3.3.5.4 ",
"^ ^ M &.8.5.0.G.3.3.^ G p.3.5.q ^ ^ ^ ^ ^ 1.#.9 9.3.8.3.0.5.:., ( _ x :.3.3.,.J.5.:.( Z f.5.6.1 W ^ ^ ^ ^ 1.W $ 1.3.8.0.5.3.3.w ",
"^ ^ ` N :.8.3.0.1.q.x y.5.5.5.q ^ ^ ^ ^ ^ W ( 9 4.3.6.3.3.5.q.w ( ^ U C ,.8.0.0.3.;.x f.1.1.5.< ^ ^ ^ ^ ^ T W 1 3.>.0.3.1.3.t.q ",
"' ^ ^ ^ Z %.1.5.1.H f.8.4.1.5.q ^ ^ T ^ _ ^ p.r 1.6.4.6.3.5.5.q ^ U / ^ M 1.5.5.3.m f.3.3.2.5.1 I ^ T ^ ( ' k.2 3.3.4.3.9.3.5.w ",
"Y T ^ ^ ] M 5.5.z k.<.3.4.3.4.4 ^ ~ ~ ` Q ^ ( 4 3.1.E 6.E 1.3.q I ^ T ^ ^ v *.q.x n.9.3.3.3.5.1 ~ ~ ~ T ~ W ( 2 3.1.^ 3.( 3.3.q ",
"E ^ ] [ U _ m M k.7.6.6.3.1.5.q _ W ' ' f.( ] 9 3.6.1.o.6.W ` 3 ^ W _ _ _ _ m m a.1.1.5.4.3.1., ' ( W  .a._ ' 4 1.3.<./ 3.] ' w ",
"i c k c i y g 8 z t w w q r r : k g y g g y 9 c q q r q 3 , r : c i b i t i g 8 t q w t q w t , i y y g i i 2 b w w w e q , r , ",
"q.5.>.h z.3.3.w <.:.( ;.| ^ _ : 0.5.3.3.3.3.5 m.V ] ' W ~ T _ 3 q.q.8.s g.8.4.3 1.&.( ;.' W _   1.3.3.3.3.3.2 z.l ] ^ U ^ T T c ",
"w.3.8.1.q.3.y.- o.~ 1.^ ^ ( _ 7 0.0.0.0.r.C B.h.8.f I ( T ^ ^ , 0.0.q.,.8.,.1.= ) / =.^ ^ ^ ( O 3.,.3.0.0.B M.z.0.j ( ^ I Y _ u ",
"6 k.3.q.5.3.1.; 1./ ` ` ( _ ' 4 0.8.,.,.A r.h.5.0.3.n ' ^ ^ 1.r 6 k.,.r.0.8.:.> ;.^ ^ ^ ^ ^ ( O 8.8.3.>.B h.n.,.,.3.j W ^ / 1., ",
"d.q.3.8.5.5.1.q ;.~ ^ ^ ^ 5. .7 8.h.0.x h.n.H.,.3.8.,.Z ) 1.T r d.q.3.8.3.8.1.> +.( ^ ^ T 1._ O 8.i.;.x B.B.U.,.5.3.3.x I &.Y q ",
"6.3.3.3.3.3.5.r ^ ^ ^ ^ T a.' 1 3.f.h n.r.H.3.3.,.8.8.3.n ( ^ q 5.3.3.5.3.3.3.> ^ ^ ^ ^ _ a.( $ >.d.A k.3.H.0.0.8.8.3.4.n ^ ) t ",
"4.1.3.3.3.5.6.2 ^ ( ( ' V ' ] 1 w.j n.q.8.3.8.3.8.3.8.8.{ s ^ 3 6.3.5.3.5.3.5.: ^ ^ T W K ' _ o :.6 k.0.3.3.3.8.3.8.8.8.Q G W t ",
"O.^ ~ ^ ^ ^ ( y n m m V m V S 9 l M.0.8.3.8.3.8.3.4.3.8.q.l.Z w ' ^ ^ Q W ^ W t m n v m V m m $ f k.5.,.3.8.3.3.3.8.8.3.8.k.C y ",
"1.3.3.5.3.3.5.o J.K.K.I.I.F.f.s f q.,.0.8.3.3.8.8.3.3.,.3.q.s , 1.;.1.5.1.5.5.X J.I.K.I.K.I.z.s W 6.3.3.8.5.8.5.8.3.3.3.8.3.w o ",
"^ ^ 1.] W ( ' X 3.1.3.1.6.d.6.3 W m 1.,.3.8.8.3.q.1.3.:.1.m q., ( ( 1.~ ^ ^ ^ X 5.3.3.5.3.f.3.3 R L 0.3.3.0.8.8.0.2.3.5.0.A 5.w ",
"( ` _ O.^ W ( X 3.5.3.3.d.3.6.w ( ^ C 8.8.3.3.3.U.1.8.q.f 5.7.q ( ] ^ ` ^ ^ ^ X ,.8.3.0.a.3.3.1 E E A q.3.3.3.3.Y.1.,.q.7 0.3.t ",
"^ ` 1.^ ^ ^ ^ o :.5.0.3.3.4.4.w ` ( t M 9.:.0.,.0.8.3.B 3.3.6.3 W ^ 1.T ^ ^ ^ . 1.8.q.3.8.4.3.: W ( t v 8.3.>.3.3.,.0.H 3.q.6.w ",
"3.~ / ` ^ ^ ~ X 3.,.0.3.8.3.4.t ^ > y.I V 4.3.( q.q.s ,.k.r.3.w 1.` ` ` T ^ ^ . ,.3.0.3.3.8.5.> W 4 q.E Z 5.1.E 2.3.h 8.h.1.5.w ",
"^ / ^ ^ ^ ^ / X 3.,.8.4.3.3.3.0 U o ~ ^ ' n 3.7.8.J 8.0.9.k.:.1 ^ / ^ ^ ^ ^ ^   1.8.3.3.3.3.5.: G X I W ] c 5.3.3.H ;.3.>.d.0.w ",
"~ ^ ^ ^ ^ ^ ^ X j.3.8.3.8.4.4.q ( G 6.^ T ^ v 6.7 3.8.,.d.3.3.q ( / ^ ^ / ^ ^ X d.3.8.3.8.3.5.: ^ ~ 3.^ T U v 3.V 3.3.0.h.4.3.w ",
"^ ^ / ^ ^ ^ ^ % 5.3.q.4.t.3.3., ^ ^ M q ] T ` V 7.q.0.8.q.3.7.1 _ ^ ^ ^ ^ ^ ^ X q.3.q.,.0.8.5.: ^ ) M > T / ' Z 3.8.0.8.3.3.6.u ",
"                                                                                                                                "
};
