/* XPM */
static char *result[] = {
/* columns rows colors chars-per-pixel */
"64 64 157 2 ",
"   c #0F1A2C",
".  c #1C1E25",
"X  c #1E1E28",
"o  c #121C32",
"O  c #1F2229",
"+  c #172134",
"@  c #1C2533",
"#  c #1E2836",
"$  c #1E263C",
"%  c #1F283C",
"&  c #272726",
"*  c #25282D",
"=  c #2C2C2F",
"-  c #212737",
";  c #242933",
":  c #2A2C33",
">  c #232C3C",
",  c #2A2F3C",
"<  c #27303D",
"1  c #2B323E",
"2  c #31353C",
"3  c #34393F",
"4  c #393B3E",
"5  c #262D42",
"6  c #282E45",
"7  c #2D3443",
"8  c #2F3843",
"9  c #2D354A",
"0  c #313743",
"q  c #333941",
"w  c #393C43",
"e  c #32374A",
"r  c #343B4B",
"t  c #393F4D",
"y  c #2F3754",
"u  c #353C52",
"i  c #393E52",
"p  c #3B3F5A",
"a  c #36414E",
"s  c #3A424D",
"d  c #364051",
"f  c #3C4353",
"g  c #3C435A",
"h  c #404653",
"j  c #424956",
"k  c #4C4D55",
"l  c #40465B",
"z  c #454C5B",
"x  c #494E5E",
"c  c #47505C",
"v  c #4A525D",
"b  c #51555D",
"n  c #404764",
"m  c #444B62",
"M  c #494F63",
"N  c #4C5364",
"B  c #4F5965",
"V  c #4D546A",
"C  c #505665",
"Z  c #515965",
"A  c #5B5C66",
"S  c #50566C",
"D  c #535A6C",
"F  c #5D5F6A",
"G  c #525772",
"H  c #555C71",
"J  c #585E74",
"K  c #595E7B",
"L  c #5C6067",
"P  c #5A626D",
"I  c #5C6274",
"U  c #5D647A",
"Y  c #606166",
"T  c #63646C",
"R  c #606775",
"E  c #636A75",
"W  c #6B6C75",
"Q  c #61667C",
"!  c #646B7C",
"~  c #696D7D",
"^  c #6C727F",
"/  c #71747F",
"(  c #656C82",
")  c #696E83",
"_  c #666C8B",
"`  c #696F89",
"'  c #6C7384",
"]  c #6C738B",
"[  c #707685",
"{  c #737A86",
"}  c #787C87",
"|  c #71768C",
" . c #737A8C",
".. c #797E8E",
"X. c #6F7491",
"o. c #727692",
"O. c #747A93",
"+. c #797E95",
"@. c #767C99",
"#. c #797F9A",
"$. c #7A808F",
"%. c #7C8295",
"&. c #7C839C",
"*. c #7F85A1",
"=. c #828694",
"-. c #818896",
";. c #888C97",
":. c #80869C",
">. c #83899D",
",. c #8A8E9E",
"<. c #92959E",
"1. c #8186A1",
"2. c #848AA4",
"3. c #898EA4",
"4. c #868EAA",
"5. c #898EAA",
"6. c #8B92A5",
"7. c #8D92AD",
"8. c #9296A6",
"9. c #949AA5",
"0. c #9196AD",
"q. c #9399AC",
"w. c #8E94B1",
"e. c #9196B2",
"r. c #949AB3",
"t. c #999EB4",
"y. c #9095B8",
"u. c #969CB8",
"i. c #999EBA",
"p. c #9CA3B6",
"a. c #9DA3BB",
"s. c #A1A6BD",
"d. c #A4ABBC",
"f. c #A9AFBF",
"g. c #A9B1BD",
"h. c #9EA4C1",
"j. c #A1A6C2",
"k. c #A5ABC3",
"l. c #A9AEC5",
"z. c #A5ADC9",
"x. c #A8AEC9",
"c. c #ABB2C5",
"v. c #ADB4CB",
"b. c #B3BAC7",
"n. c #B1B7CD",
"m. c #B3BACE",
"M. c #BABFCC",
"N. c #AFB6D1",
"B. c #B1B6D3",
"V. c #B5BBD3",
"C. c #B9BFD4",
"Z. c #B5BBD8",
"A. c #B9BEDB",
"S. c #BBC2D5",
"D. c #BDC3DA",
"F. c #C0C6DD",
"G. c #C7CCDC",
/* pixels */
"V.B.Z.B.C.Q ( e t v.B.B.V.B.B.j.B.Z.B.Z.Z.K ) 7 u A.B.B.Z.Z.Z.a.A.Z.Z.V.C.K ~ e z V.B.B.Z.B.Z.z.B.Z.B.Z.B._ M e S V.B.Z.A.Z.A.F ",
"0.7.7.w.7.e.6.g m.l.7.2.u.h.w.u.5.w.0.e.w.w.0., F.s.5.2.u.i.w.h.5.5.5.7.7.5.0.- V.s.7.5.h.i.e.i.w.5.5.w.e.2.5.@ d.i.u.e.a.u.e.W ",
"7.7.7.w.w.7.2.U q.r.i.e.w.5.e.5.e.5.w.7.5.5.r.M s.5.i.e.e.5.w.5.e.w.5.e.w.e.r.m s.6.i.e.5.e.5.5.5.w.w.w.5.e.0.t d.r.i.7.5.5.5.A ",
"7.a.7.y.@.v.e.7.,.0.7.w.w.w.w.w.5.j.e.w.@.x.j.,.t.0.w.w.w.5.w.7.5.z.e.e.&.h.p.[ t.5.7.w.w.7.w.e.2.j.5.w.1.i.r.R s.7.7.7.w.e.5.F ",
"6.7.4.&.&.a.l.D 5.6.7.w.5.e.5.e.w.e.7.#.&.7.V.N 0.0.w.5.w.w.5.e.e.5.e.+.@.3.k.b 0.6.7.7.7.7.7.w.e.5.5.&.` 1.:.z 6.5.e.5.w.e.5.F ",
"7.*.] o.r.D.' V 5.6.7.7.e.5.y.5.e.o.) o.p.S...D t.5.7.0.5.i.t.r.r.:.+.` l.s.[ j r.7.e.w.7.7.w.7.e.o.] Q j.t.R f 0.w.e.w.5.5.r.F ",
" .N.&.%.q.D M D 0 ! ( ) e.&.7.U :.V.&.&.7.z z Z 0 ) D J K 2.>.>.>.:.:.S R x M z a ^ ( | 7.o.7.H #.v.+.t.%.x v h x ) ) &.5.o.0.q ",
" .) u r a s s > < 0 0 N u 0 j f %.Q i u r s h 0 r >.V.n.C.p.a.i.j.h.j.k.C.:.J 2 a s d z t 7 f v ;.S i r u e t , 1 0 t j 0 t t 2 ",
"d S.S.S.V.N.S.k.p.C.N.a.p.Q { t f m.C.n.m.~ r >.> S.e.u.7.e.7.7.5.5.5.:.q.p.I 6.1 %.m.p.t.! E a B V.S.V.N.N.S.h.v.V.N.p.r.O.N ; ",
"3.e.*.7.&.&.%.&.7.&.a.5.7.s.v.f f.6.0.) V >.F.k.) o.N.5.*.2.w.7.k.` O.3.o.z t %.V.:.u ] q.p.c.$ k.7.7.4.%.*.&.*.3.0.h.7.w.3.a.O ",
"q.p.7.4.7.h.h.4.y.7.7.7.5.5.O.%.M.0.' +.n.B.t.5.' 5 D.t.3.*.2.x.] ] 7.j E N ( l.v.6.a. .5 7.@.> m.7.7.7.w.h.h.p.w.7.w.w.2.2.&.v ",
"$.7.r.w.e.w.w.7.7.4.7.w.&.( ! [ q.S | B.V.t.0.7.] O.( | r.q.Q Q H ) ) v N f o.p.N.e.7.r.s.7 U 9 6.w.w.e.w.y.7.7.w.w.&.&.o.U ) b ",
" .&.] 4.r.w.5.B.A.e.&.4.k.x.) U C o.B.i.0.0.7.v.x.' 7 f N s r r r s ~ c j | m.c.5.w.w.7.7.3.7 9 3.@.] r.e.7.7.Z.B.4.&.( v.7. .w ",
"g ] o.n z.r.&.o.&.2.@.O.] | H N { A.4.2.O.7.o.o.] N 2 r 0 q 3 q r q 0 s 8 D 7.k.e.w.O.@.6.' :.7 D o.o.J S.&.&.*.*.1.o.| ] | V w ",
"3 c v I ~ -.{  .| P P S P N N ( F.@.5.w.w.j.0.[ z q 3 3 q 3 q q 3 3 q q q q v } v.O.4.w.w.| Q 6.q v Z R ! ^ | | ( I v I P v v 1 ",
"1 6 8 8 9 7 8 f s 1 < t t i 7 i.s.:.#.&.6.Q s 8 q 1 q q q q q q q q q q q 8 q s | %.O.X.&.m M C ! q 6 e r s s f j 1 r s s s r * ",
"S.S.S.V.S.I | 9 % m.m.S.S.j p.5 H I V ] D v 0 1 0 q q q q q 3 q q q q 0 r q 8 w r ~ V %.| 0 N 7 -.I %.S.c.%.Z r P S.m.V.D.C.C.Y ",
",.7.7.7.7.7.7.d n.x.3.2.f $.c.V.o.t B c v r w 3 q 8 q q q q q q q q q q q q q 1 1 r P N N f 0.m.c.3.8 [ 7.5.>.5 c.t.r.y.t.e.7.W ",
"6.7.y.w.7.7.7.H q.r.r.D < b.6.p.t.$.; r 1 1 3 1 q q q 3 q q q q q q q q q q q r a 1 q a * g.m.v.7.7.| 9 6.7.7.s k.7.u.7.5.w.7.F ",
"7.a.4.4.X.v.a.6.3.r.r.S z.a.7.7.5.7.] r q q 3 w 3 8 q q 3 q q q q q q q q q q 3 q 3 r P n.t.v.5.0.r.7.7 ^ p.r.U k.7.w.7.e.7.w.F ",
"7.w.e.#.@.l.l.N 6.3.7.d v.w.@.4.7.7.] 8 q q q q q q 0 q q q q q q q 3 q 3 q q 8 q q q s 6.B.7.7.w.t.o.' v >.3.f 7.7.w.w.w.w.w.F ",
"6.@.X.O.q.D.( Z ,.7.7.o u.7.w.w.@.%.' a 3 q 3 q q q 3 q q q 3 q 3 q q q q q q q q r s 1 V B.O.&.w.w.] E 0 t.D f 7.7.w.w.7.w.w.A ",
"| B.2.:.7.B C N 8 ( ( o 7.w.w.@.*.X.I 8 3 3 8 q q q q q q 4 q q q q q q q q q q q q 2 1 g 7.l.4.2.w.) | s v N z N ~ ) &.6.| e.w ",
"Z N s r s r r 3 y u f P w.5.2.w.4.! j 3 8 q 3 q 3 q q q q q 3 q q q q q q q q q q q q q t o.&.4.7.| U c q s r q 7 a 0 j s f r : ",
"f V.D.S.V.D.C.k.a.D.M.z U &.Q ( V I 1 8 q q 3 q q q q q q q 3 q 3 q q q q q q q q q 3 q a v ! %.&.( ~ { 8 r S.a.c.S.V.p.p.O.N ; ",
"9.p.3.w.&.o.O.@.r.5.9.C r a r 8 8 u 1 3 q q q q 3 q q q q q q q q q q q q q 3 0 3 q 8 q 3 s a r y 9 r r q c O.*.5.u.a.5.7.] h.X ",
"6.e.7.7.7.k.x.7.y.6.H o m.S.a.N.&.U a 3 q q q q q q q 3 q q q q q 3 q 4 q 3 q 0 q q q q 8 p.b.m.c.r.7.< 8 B z.a.y.7.7.7.7.2.*.k ",
"%.w.7.7.e.w.w.w.5.7.V n.p.7.4.4.p.' < 3 3 q q q 3 8 3 q q q 3 q q q q q 0 q q 3 q 3 8 q 8 D.v.7.w.6.%.6.7 f 3.7.w.7.&.%.Q U U b ",
" .&.| 5.w.w.0.B.Z.i.V B.e.7.Z.%.4.' 8 8 8 q q q q 8 q q 3 q q q q q q 3 3 q q q q q 8 q 8 S.w.y.o.k.2.q.0 f w.Z.Z.7.&.U v.q.o.w ",
"s ] ` g l.r.o.] o.3.M V.w.5.7.7.O.S 8 8 q q q q 3 q q q q q q q q q q q q q q q 3 q 3 q 8 p._ 7.7.y.%.[ r f O.>.&.&.] ' O.| N w ",
"q M N D Q :.' | { J f b.7.0.w.&.a.U a 3 3 q q q q 3 q 8 q q q q q q q q q q q 3 3 q 8 q 8  .%.&.7.7.@.D 7 f | { ) H S I J V V 2 ",
": 6 < 1 , r 0 s r 1 e 6.| 2.O.&.( O.8 3 q q q q q 8 q 3 q q q 3 q 3 3 0 q q q q q q q 3 8 B  .O. .G P P 1 3 s r s > e 0 r r 7 X ",
"M.V.m.m.b.! %.e < m.a 7 U S N S D i 0 q q 0 q q q q q q q q q q q 3 q q q q q q q q 8 q a 3 z N N S N 7 3 ! v r I M.m.V.m.V.Z.T ",
"3.w.7.w.6.7.>.r v.l.z < d.d.6.d.Q 0 q q q q q q q 3 q 3 3 q q q q q q q q 3 0 q q 3 3 q a 1 d.d.t.s.c.- q E %.6 s.r.5.i.i.r.0.W ",
"6.w.w.w.w.7.w.S q.3.z k.V.p.u.7.3.' 0 q q q q 3 q 3 q q q q 3 q q q q q q 3 3 3 3 8 8 3 < d.n.q.t.p.6.3.q f q.f k.7.i.5.e.5.5.T ",
"7.h.w.5.X.A.a.t.3.r.x c.7.w.7.w.e.] 0 q q q q q 3 0 q q q q q q q q 3 q q q q 8 8 3 8 3 f c.7.7.w.7.7.q.r f p.( k.7.w.7.w.e.5.F ",
"7.w.w.&.&.c.l.M 4.7.N 3.7.w.7.4.7.o.7 q 3 q q q q 3 q q q q q q 3 q q q q q 3 0 q q 8 3 d N.5.y.y.5.0.0.r r :.f 5.0.5.w.5.e.5.F ",
"6.%.] ] d.D.H D 8.7.N | e.4.w.@.' ] 7 q q q q q q 0 q q q 3 q q q q q q q q 3 q 3 q 3 8 y N.@.5.@.4.a.%.r f S f 0.5.0.w.e.5.0.Y ",
" .v.&.%.%.N N N < I N 6.2.4.r.] ] I , 0 q q q q q q q q q q q q q q q q q q q 8 3 8 8 3 d ] r.5.y.&.&.3.7 h v j N D ( O.>.| 0.; ",
"D M 9 1 1 8 1 - # 7 c c 7.q.r.H ) N 1 0 q 3 q q q q 3 q q q 3 q q q 3 q q q q 3 8 3 8 8 r  .] &._ @.4.>.7 q > # , 0 , r , 7 r : ",
"x c.D.V.B.n.V.p.p.V.x 7 D S x Z N t q q q q q q q 8 3 3 q q q q 3 q q 3 q q q 3 q q q q a 7 f [ | o.[ 1 1 $.N.q.k.C.N.e.t.) G ; ",
"9.c.6.e.#.@.o.o.5.1.B >.d.d.d.f.g.=.0 q 3 q q 3 q 3 q q q q q q q q q q q q q q q q 8 q 1 f g.f.k.c.c.R a D @.&.5.h.r.5.7.@.s.. ",
"q.u.y.w.w.z.N.w.e.0.x l.V.w.y.e.e.q., q q 3 q q q 8 q q q q q q 3 q q q 3 q q q q q 3 1 r D.B.w.r.7.7.q.1 s N.p.7.w.w.7.*.*.2.k ",
"..7.7.7.w.w.5.4.0.0.N l.w.5.0.5.7.| 5 q q q q q 3 q q 3 q q q 3 q q q q q q q q q q 3 q t S.k.7.7.7.r.-.1 s ' 7.w.w.&.&.( U U k ",
"..@.] 3.7.w.w.N.B.s.x B.0.e.r.o.X.' 7 q q q q q 3 8 q q q 3 3 q q q q q q 3 q q 3 q q 8 d r.t.5.w.7.7.&.q s ( V.S.w.&.( N.6.] 3 ",
"f X.` g h.u.O.X.O.6.N 6.5.5.y.w.x.S , q q q q 3 3 q q q q q q q q q q q q q 3 0 q q q 1 u r.7.2.e.7.X.%.q f I 4.*.*.o.] ] ] N s ",
"q s s Z Z $. .^ | N v q.] r.1.B.h.M 7 0 3 q q q 3 0 q q q q q q q q 3 q q q q q q q 8 q g 7.r.4.X.2.] q.1 s $.' I D B B B v c = ",
"@ @ # @ @ 7 0 a i - z M 7.2.A.m U +.r q 3 q q q 3 0 q 3 w q q q q q q q q q q 3 q q 3 q r e.X.7.y.| &.B 1 s a s d + > 5 < 7 5 O ",
"b.n.V.m.m.) 7.9 7 c.p.o 6.%.| D D M 7 0 q q q q q q q q q q q q q q q q q 3 8 3 q q 8 q q q.%.S H H H f w { D r | S.v.Z.m.m.V.L ",
"6.7.7.0.7.7.%.y c.N.N 8 - $ $ 7 r 7 0 0 q q q q q q 3 q q q 3 q q 3 q q q q q q q 3 q 3 1 1 $ , 9 $ 5 < r j %.+ a.q.2.a.h.e.4.T ",
"7.5.w.w.w.w.w.n 9.r.B %.V.V.V.n.O.%.0 r 3 q q q q q q q q q q q q q q q q q q 8 q q q q 8 b.c.n.B.B.q.c.8 f 0.9 k.q.w.5.7.7.7.A ",
"7.z.y.7.O.D.a.r.3.r.N l.w.7.7.7.7.| 7 q q q q q q q q 3 q 3 q q q q q q 3 q 3 8 q q 8 3 r S.B.7.q.w.w.7.r f p.) h.0.w.7.5.7.w.L ",
"7.7.7.] ] S.a.B 6.7.v c.w.7.w.O.] ] < q q q q q 3 q q q q 3 q q q q q q q q q 3 q q q q r n.B.w.7.p.7.%.8 8 &.f 7.4.w.w.w.w.w.A ",
"q.&.X.] a.D.D D 6.7.c 8.w.7.o.r.X.3.1 q q q q q q q q q q q q q 3 q q q q 3 q 8 3 q q q t r.7.7.*.k.0.B 8 a P f q.7.7.w.w.w.y.A ",
"] v.&.6.>.B B B 7 I z 9.0.U S V 7.S r 3 3 q q q 3 q 3 q q q q 3 q q q q q q q 3 q q 8 3 0 $.6.7.0.r.P c 1 s v f c D H %.3.] 0.: ",
"g y d 9 9 9 1 < % 6 a a 9 # < 8 # , > 3 q q q q q 8 q q q q q q q q q 3 q 3 q 8 q q q 3 7 a 9 5 5 9 9 @ q 8 3 > $ 7 7 a 5 7 a : ",
"j N.D.V.V.V.S.s.6.) m.I q.D r.8.t.l 8.0 3 0 q 3 3 q q q q q q q 3 q q q q q q q q 3 q q u %.Q Z q.&.6.0.a.; / 7.z.S.N.q.q.I P ; ",
"q.s.7.7.%.o.| o.w.V n.t r y 9 r e u G.0 1 q q q q q q q 3 3 q q q q q q 3 q 3 q q q q q u > > y 9 e r r ^ ; N *.7.p.y.5.e.] k.O ",
"8.a.e.7.w.v.Z.y.r.S m.3.l s r D t M C.0 q 3 q 3 q 8 q 3 q q 3 q q q q q q q q q q q 3 8 z g j f 0 l r N ~ - [ k.w.4.e.w.&.2.*.k ",
"| 7.w.w.w.w.w.4.7.D n.9.~ q.] z.C r s.0 3 8 q q q 3 q q q q 3 1 q 3 q 3 q q q q q 3 8 8 u x S ~ d.v.I z Q - H w.w.7.%.&.( U ( k ",
"..o._ 7.7.7.7.v.m.V 7.0.c ' N ! C r M.q 3 8 8 3 8 a 3 8 q 8 8 a 8 8 8 8 q 8 8 8 q 8 8 8 s x Z D N U z c ~ ; D n.D.w.%.U D.r.| a ",
"w ] ] g l.r.| ] +.V 7.O.3.' ' ' ' >.8.0 8 3 3 3 3 3 3 3 3 3 3 3 3 q q 3 3 3 q q 3 q q 3 g p 3.:.' ^ ~ <.D O N 2.*.*.$._ ] ] V 3 ",
"3 h f H I &.] ] | V 0.7 f 6 r + o , S.q 8 q a 3 8 q 8 8 r 3 q q a 3 q q q 3 q r q q 0 q t $ f 9 > >   7 P * B  .( V B B D B N = ",
"4 3 4 q w 3 2 w q 3 q L =.8.,.9.9./ <.a 4 3 3 3 3 3 3 3 3 3 3 3 3 3 w 4 3 3 3 3 w 3 4 3 0 } ;.9.=.q.~ ,.t.: a 3 a 8 4 3 3 s 1 & "
};
