/* XPM */
static char *result[] = {
/* columns rows colors chars-per-pixel */
"64 64 225 2 ",
"   c #000005",
".  c #12080C",
"X  c #18171D",
"o  c #280E0E",
"O  c #281D05",
"+  c #1F231E",
"@  c #252319",
"#  c #342915",
"$  c #0E1A2B",
"%  c #181D2A",
"&  c #0C1B32",
"*  c #171E34",
"=  c #251D23",
"-  c #211E2A",
";  c #3F1E2B",
":  c #221D36",
">  c #1E222A",
",  c #162234",
"<  c #1C2434",
"1  c #1B2638",
"2  c #1A243A",
"3  c #222124",
"4  c #2B2627",
"5  c #22212B",
"6  c #2B2C2C",
"7  c #302A2A",
"8  c #393A2B",
"9  c #242333",
"0  c #242A35",
"q  c #2D2D31",
"w  c #2A253D",
"e  c #252D3C",
"r  c #292D3B",
"t  c #362A36",
"y  c #2B333D",
"u  c #2B343D",
"i  c #353738",
"p  c #333A3D",
"a  c #4B2D1B",
"s  c #47222E",
"d  c #472434",
"f  c #4D3939",
"g  c #4F461D",
"h  c #56461B",
"j  c #5A441C",
"k  c #524C1E",
"l  c #555219",
"z  c #4E4A24",
"x  c #4E4428",
"c  c #554624",
"v  c #5D4725",
"b  c #524B24",
"n  c #5B4925",
"m  c #57462C",
"M  c #544A2A",
"N  c #4C4734",
"B  c #544B37",
"V  c #614A24",
"C  c #6F512E",
"Z  c #63453C",
"A  c #7A5B36",
"S  c #7B5D3D",
"D  c #7D6436",
"F  c #7C613C",
"G  c #7F713F",
"H  c #1D2541",
"J  c #272B41",
"K  c #252D42",
"L  c #382D41",
"P  c #2D3542",
"I  c #2F3944",
"U  c #2D344A",
"Y  c #323644",
"T  c #323942",
"R  c #3A3E41",
"E  c #30364A",
"W  c #353B4B",
"Q  c #393F4C",
"!  c #373D52",
"~  c #3B414D",
"^  c #3C4453",
"/  c #3F4559",
"(  c #41444C",
")  c #554041",
"_  c #414654",
"`  c #424955",
"'  c #41465B",
"]  c #444C5B",
"[  c #4A4E59",
"{  c #47515D",
"}  c #4A525E",
"|  c #6B4C43",
" . c #714F4B",
".. c #7A5D42",
"X. c #79574B",
"o. c #7D6344",
"O. c #464C61",
"+. c #494F63",
"@. c #4C5363",
"#. c #4B546A",
"$. c #4D5469",
"%. c #515766",
"&. c #525965",
"*. c #595C64",
"=. c #51566B",
"-. c #545B6C",
";. c #5A5E6A",
":. c #555C72",
">. c #565B76",
",. c #585E74",
"<. c #576068",
"1. c #5B616D",
"2. c #5B6274",
"3. c #5E647A",
"4. c #68696E",
"5. c #646975",
"6. c #676A74",
"7. c #61677C",
"8. c #646B7C",
"9. c #6A6E7B",
"0. c #6D7077",
"q. c #6B717B",
"w. c #74767B",
"e. c #8E5636",
"r. c #865A34",
"t. c #845C35",
"y. c #8D543C",
"u. c #845D3B",
"i. c #8B5C3C",
"p. c #915539",
"a. c #915939",
"s. c #846234",
"d. c #866239",
"f. c #8A6239",
"g. c #846B3B",
"h. c #8C6D3C",
"j. c #916E3D",
"k. c #89733A",
"l. c #8D723A",
"z. c #93713D",
"x. c #835C43",
"c. c #8D5B41",
"v. c #8F5748",
"b. c #855B4A",
"n. c #8D6243",
"m. c #826C45",
"M. c #8E6D42",
"N. c #916B45",
"B. c #987948",
"V. c #9B936F",
"C. c #5E6682",
"Z. c #616681",
"A. c #656C83",
"S. c #686E83",
"D. c #696E8A",
"F. c #6C7284",
"G. c #67718A",
"H. c #6D738B",
"J. c #717685",
"K. c #737A86",
"L. c #70768D",
"P. c #737A8D",
"I. c #797F8D",
"U. c #6E7491",
"Y. c #6F7993",
"T. c #717791",
"R. c #747A94",
"E. c #797E95",
"W. c #777D98",
"Q. c #797F9B",
"!. c #827D94",
"~. c #7A808F",
"^. c #768197",
"/. c #7C8295",
"(. c #7C839B",
"). c #7E84A1",
"_. c #80869C",
"`. c #848B99",
"'. c #848B9D",
"]. c #8B919F",
"[. c #ACAA9B",
"{. c #8186A2",
"}. c #848BA4",
"|. c #898EA5",
" X c #868DA9",
".X c #898EAB",
"XX c #8C92A5",
"oX c #8790AD",
"OX c #8C92AD",
"+X c #9196AD",
"@X c #959AA9",
"#X c #9399AD",
"$X c #8E94B1",
"%X c #8E93B9",
"&X c #9196B2",
"*X c #959AB4",
"=X c #999EB4",
"-X c #9195B9",
";X c #979CB9",
":X c #999EBA",
">X c #98A0AA",
",X c #9CA2B6",
"<X c #9DA2BC",
"1X c #A3A9B4",
"2X c #A2A9BE",
"3X c #9EA4C0",
"4X c #A1A6C2",
"5X c #A4ABC3",
"6X c #A9AFC5",
"7X c #A7ACC8",
"8X c #A9AECA",
"9X c #ACB2C4",
"0X c #ADB3CC",
"qX c #B0B6CC",
"wX c #B3BACD",
"eX c #AFB4D1",
"rX c #B1B6D2",
"tX c #B4BAD4",
"yX c #B8BED5",
"uX c #B5BBD9",
"iX c #B9BFDA",
"pX c #BAC1D4",
"aX c #BCC2DB",
"sX c #C2C8DA",
"dX c #C3C9E2",
/* pixels */
"iXuXtXtXtX(.R.W r =XyXuXuXuXyX7XrXuXuXuXrXC.F.E E rXyXrXrXuXuX:XiXrXtXuXeXO.C.y y uXeXrXeXuXrX4XrXuXuXrXrX3.-.E O.aXrXuXrXuXuXA.",
"*XOXoXXXoX$XXX3.].2X}..X<X:X.X;X&X.X.X.X&X$X+XJ <X4X.X{.;X4X.X:X$X$XoXoX&XXXXX, wX4X.X.X<X:X$X:XOX.XOXOX&X X@Xe wX<X$XOX:X;XOXD.",
"=X$X$XOX$X.X#X(.J.<X:X*X.X.X&X.X.X&XOX$X$XOX|.2._.OX=X$X$X&X.X.X X$X$X$X$X&XOX-.#XoX<X$XOX.X&X.XOX$X$XOX$XXX@X/ 2XOX5XOX$X.X&XZ.",
";X{.oXXX}.0XXX#X8.4XOXOX&X&X.X&X$X;X$XOXT.eX=X'.P.*XOXOX.X$X&X$X$X4X$X.XQ.8X=X'.XX&XoXOX$X.XOX$X.X7X.X$XXX;X@XD.<X$XOXOX$X$XOXZ.",
"=X<X$X}.(._.(.@.q..X&X$X.X$X.X&XOX&X$X{.(.<XtX] !..XOXOX$X.X$XOX$XXX.X).).<XwX[ @XoXOXOXOX$X$XoX&X.X&XQ.E.{.@X/ OXOX.X$XOX$X.XZ.",
"#X}.L.Y.F.qX-.+.F.$X$X.X&X.X$X X&XQ.H.L.#XpXK.-._.|.#XoXOX*X*X*X&X{.H.L.<XaXK.@.XX$XOXOX$X$X$X XOXU.H.Z.5X<X7./ *X$X&XOX.X&X$XA.",
"J.E.(.E.1X<.@.{ Y 7.>.-.#X/.(.,.P.5X(.(.OX[ { ] P 2.] ' ' #X=X#X#X,X*X! @.O.+.} I 1.2.3.OXG.#X^ (.qXP.#XJ.} @.` ` ,.,.H.'.F.OXU ",
"&.=.U K e r r 1 1 e y Q e U W W ;.] U K U e W Y r <XqXyXiX*X#X<X;X*X*X=XpX,X/.1 I I u ^ r K W ~ 2.' r r y e y 1 < Y P ! P r ~ w ",
"Q =XqXwXrXrXrX4X*XyXqX4X*X2.XXW Q qXtXyXpX;.E @X-.6X#X:X&X.X.X.X}.OX+XY.OX=X] >XY =.wXOX&X' ~.u @.qXtXwXtXqXqXOX,XwXtX&X=X2.2.0 ",
"9.:X#XOX{.W.W.T.&X}.<XoXOX|.#XO.,X2X+X8.O.+XqXuXXXA.wX$X X.X&XOXrXH.G.+X%.] U T.rX5X& -.#XOXqXe 9X5XoXOXG.W.W.).oX&XOX$XOX_.6X, ",
"9.0XOXOXOX:X8X3X4X$XoX$X&X|.H.R.2XOX-.D.5XqX*X}.R.W ,X*X.X.X}.uXL.H.OX#.-.#.A.0XtXOX*X^.K &XH.e wX}.OX$XOXeX0X,XoX$X$XOX_.OX_.O.",
";.}.&X.X&X&X.XOXOX.XOX}.R.7.-.H.|.+.D.0XaX=XOXOXY.P.[ F.OX*XS.,.=.@.-.=.] P 7.XXuXOX&X}.8X, -.I XX#X$X$XOXoXoXoXXX&X}.}.A.7.7.$.",
"1.R.Y.(.&XoX.X:XrX*X(.oX}.5XR.8.$.D.tX:X&X$XoX0X<XJ.~ W &.Q Q T ~ ^ 8.&.] P.0X0XXX$XOX$X.XOXe e OXT.H.*XOX$XoXeXuXoX(.E.5X#XH.! ",
"( H.R.>.=X5XR.W.{.oXE.Y.H.F.7.=.2.qXOXOXR..XR.G.H.$.E p Y R T Y ~ I u ~ I { '.0XoX$XW.R.&X7.'.y 2.T.Y.>.tX(.Y.).(.).W.L.L.L.:.W ",
"R W ~ -.#.(.7.F.P.-.-.@.&.$.O.3.yXR.oX X{.tX~.K.^ T T T T T T T u I p p < 9 - T.rXY.}.OX&XE.2.=XT ^ ] @.8.S.L.J.F.=.$.&.%.} [ r ",
"0 1 2 2 < P P ] Q P 0 e P Q P ,X,X.XR.P.}.3./ Y T Y T T T T T p p p ~ e * 9 9 L I.(.Y.G.E.^ @.{ K.p < 1 1 W W ~ W , e P r e < $ ",
"sXwXwXtXwX(.,XP u wXwXwXyX^ XX/ ! =.-.P.-.@.T T T T T T T T T Y p T P 9 6 N B 4 9 F.@./.H.W [ r XX~.<.wX9X}.9.I <.pXwX0XtXwXtX7.",
"#XOXoX$X$X$X(.%.`.5XL.+X] I.pXtXXX+.@.%.@.W T Y T T T T T p T T T Y r N M b z B 4 0 5.[ %.W 6XtX9X+XP 3.XXOXK.< 9X<X).*X5X&XOXS.",
"*X$X$X$X%X$XOX8.J.2X}.G.K qX,XXXXXR.@.P I T T T T p p T T T T T T E 5 N b z b b k % 0 ` 0 aXrXqX$X+X8.W #X&XOXe <XOX$X.X&X$X&XZ.",
"=X_.XX X}.tXOX#XD.2X$XA.OX;XXX&X$X$XL.W T T T T T T T T T T p T p Y 3 z b b b b b M 3 [ wX&XrX.X$X-XXXP 2.,X<XP.<XoX$X$X.X$X.XZ.",
">X$XOX}.}.&X_.@.q.XX&X/ 5X$XQ.$X$XoXL.~ I T T T T T T T Y R T T p Y f z b b b b A c N X P.rX XOXoX;XH.I.` #X@X/ +XOX.X$X&X$X.XZ.",
"*X}.L.Y.P.yX@.@.F.XXXX/ 2XoX$XoXR.R.P.P T T T T T T p T p T T T p T B z b M b b c.k k N ' uXU.W.oX$XH.7.Y 2X1.^ +X.X+X$X&XOX&XZ.",
"A.(.(.(.,X/ @.&.P ] $.E &XXX$XU.(.U.-.T I T T T T T T T Y T T p p I N k b b n z c.b g v 4  X7X.XW.&XD.I.Y %.@./ Q O.O.A._.7.#X* ",
"~ K H , , , & % , & , / OXoXXXOXoXA.W I T T T T T p T Y p T T Y T p z M b M S n y.b b v N R.T.#X+XQ.=.@.p ~ , & 2 , , Y 1 < T 0 ",
"~ #XpXpXtXwXtX3X}.qXpXW O.A.O.O.#.$.~ p p T T T p T T T Y p Y T I > b b b b S v v.m c j B %.=.F.P.G.P.8.T ~ pX}.#XtXqX}.*X@.F.r ",
"0.,X$XoX).R.Y.H.OX$X,X@.e * , , K E P T T T T T T T p T Y p p T p > b b M b S v y.z c l b.W & & * 2 I Y Y } Y.).oX:X$X$XOXT.5Xe ",
"5.6XOXOX$X<XuX3X5XOXG./ yXqX2XtX'./.u W T T T T p I T T R Y T T p = b n h b S v p.m B [.[.sXqX0X5XXX=XP I } aX3X.XoX&X$X(.}.E.+.",
";.oX$X$X$XOX$X$X$X@XS./.:X&X.X$X.XR.` T T T T p T T T T Y R p T p = z M c c S v p.[.7 . = iX0X$X$X$XR.'.T ^ $XoXOX&X}.}.C.A.2.$.",
"<.R.H.W.XXoX}.<XuX<XF.(.<X$XiX(.$XU.` Y T T T T T T T T p T T T Y 5 g C c k S v y.X w y !.iX.X$XT.eX}.&XI ~ oXtXtX$XW.(.iX=XH.Q ",
"Y Y.Y.2.$X5XH.H.(.#X2.XXXXOXOX.X(.=.} T T T T T T T T T T T T T I 5 z M # g S v e.| % 4 Y 3XD.&X-X*XR.H.Y ~ F.(.R.}.R.H.T.P.@.Y ",
"p P W @.#.OX8.F.P.@.^ |.}.OX.X(.uX,.( Y T T T T T I Y T T T T T T 5 @ 1X  x S v e.b.B M 8 R.R.T.$XXXG.@.I ^ H.L.F.%.@.#.@.$.@.e ",
"i P e P e Y Y Q P P P P.R.*XD._.(.L.Y u Y T T T p T p T T T T p E - 3 e : B S v e.r.A s.m ! F.H.L.#.:.O.p T I I I I r K e P e < ",
"aXrXpXtXpX^.6Xu < pX~.^ -.@.} } -.Y T u T T T p p Y p T T T T T T 5 # + % c S v y.l.A t.x.Y { @.} } %.W T K.7.W -.uXuXrXuXqXuX,.",
"*X$XoXoX$X$X).-.`.5X1.~ 9XpX,XtXA.' T T p T T T T Y R T T T p T Y 5 z N @ c A g.y.l.d.g.x.E wXtX2XpXwXr R 1.q.U 6X5XQ.:X7X&X&XZ.",
"*XoX$X$XoX+X$X8.F.5Xq.'.tXOX.X}.OX/.&.T T T T T T T Y p R Y Y p Y 5 b m.M g F B.v.h.g.t.m dXpX).XXOX|.+Xu ^ XXe <XOXOXOXOX$X$XZ.",
"*X X.XoX).tX#X|.8.<XF.(.OXOX$X.XoXH.` P T T T T Y T T T Y p Y p Y 5 k V c h F g.c.l.g.d.8 0X$X$XoXOXoXOXY ~ ,X8.<X|.&XOX$X&X.XZ.",
"<XOXoX(.}.#X/.@.F.XXG.D.OXXX$XOXOXR._ T T T p T p T T p R R Y Y I 5 b v h v b.h.p.l.g.n.8 eXOX$XOXoX-X+XY Y @X] #XOXOXOXOXOXOXZ.",
"XX{.T.R.`.qX/ @.q.OXF.-.OX-X&X^.H.H.] T T T T T T T T T T T Y p T 3 g v c j u.M.e.M.g.N.I eX). XR.&X;X_.Y _ @./ |.OXOX$X$X.XOX3.",
"6.(.(./.>X} [ @.Y ] O.S.&X'.}.T.H.,.W p T T Y T T p T T T p T T T 3 z v c j u.M.e.j.d.j.p T..X&X.XQ.W.XXP ( { ~ ! [ O.S./.,.+X- ",
"p ! / ] ` / / / ] / @.e XXOX{.9.8.$.~ T T T p T T T T T T T T T I - b c n j u.M.p.l.g.h.f H.H.Y.T.H.|.H.P Q ^ { ` / ] -./ ^ y 9 ",
"~ -XtXpXeXtXrX2XOXqX/.^ ` @.$.@.} P Y Y p I p T T T T Y T T Y p p - z # c j u.M.e.j.g.h.b.U ! F.F.F.F.E p J.tXoX#X0XtXoXOX$.F.0 ",
"q.3XOX$X).Y.D.U.&X&X5.8.wXyXyXyXyX2XW T T T T T T T T p T T Y p T > c O c h u.M.p.h.g.l. .Z.aXaXpXtXpX/.T ] H.^.&X:X X&X&XF.2XP ",
"5.5X*XoXOX3XrX3X<XOX2._.tX.X XoXOX.X_ p T T T T T T T T p T T R p = x X x C x.h.y.j.g.l.8 iXeX X$X$X.XOXP Y 7X<X.X$X$X*XQ._.(.=.",
"<.OX XOXOX&X$X&X&XOX2._.*X$XOXOX&XE.' T T T p T T T p T T T T T Y @ w.t @ g.S i.e.N.g.l.i 0X8X&X$X$X$X(.Y Q A.-X;XoX}.(.,.A.7.=.",
";.D.L.E.OX.X.X3XrX3X+./.+XOX#XW.T.H._ p p I T p T T p T T Y T T p - O S > k.S i.e.u.g.l.p *XOX$XoX&XOXE.T ^ A.rXrX.XW._.uX#XF.E ",
"p L.T.3.{.3XD.A.(.&XO.9..X*X*X|.rX$.W p T T Y T T T T T T p T T p 3   o.  l.o.u.a.y.g.l.p *XOX.X}..XH.(.P ~ 3.R.R.{.U.H.L.S.+.! ",
"p Y T [ ` `.,.J.K.;.@.A.Q.'.OX,X_.$.` W T T T p p T T T p T Y p p 5 ..0.= M.S i.p.i.g.l.p XXOXOX^.}.H.].u ~ q.F.8.] [ } } } } 0 ",
"*.} @.%.%.] W r u W %.e +X|.qX#.5.D._ T T T T T T T T T T T Y p p - ..7 ; f.S x.p.f.g.l.6 #XY.OXoXH.R.{ Y T I Y e ;.%.%.%.} %.Q ",
"wXqXqX0XqXQ.2XP P wXwX^ OXF.F.1.$.+.` y T T Y p T T T p T p R Y T 3 D n d h.S i.a.i.g.j.8 '.F.O.O.@.@.` ~ q.F.E ,.wXqX6XqXqX0X7.",
"#X&XXX.X$X.X}.3.`.8X-.] *.-.,.#.' ' p Y T T T T T T T T T T R Y p 5 F m d h...i.p.c.N.z.X.W -.&.2.;.2./ T ^ I./ 9X2X}.:X5X&X&X3.",
";XoX$X$X$X$XOXF.8.<X2.8.9X0X0XqXR.T.` W T I p T p T T T T T T T I > D j d h.F i.p.n.V.B.) dXuX0X9X0XXX2Xp ~ XXE 2X|.#XOX-X.X&XZ.",
",X$XoX$X(.6X,X(.9.<X2./.=X&XoXOX.XL.( Y T T T T T T T T T T p T p 3 ..v s f.S s.y.V.% o X aXrX.XoXOX&X+XI ~ 2X7.=XoX$X$XOX+XOXZ.",
"OXXX X(.(.XX/.@.F.XX3./.:X.X$X{.H.U.` T T T T T T T T T T T T T p 3 F n s s.F f.v.@ w @XY eX4X.X.X&X X(.W T XX/ +X+XOXOX+XOXOXZ.",
"#X(.H.Y.#X<X] @.1.&X2.F.OXXXE.(._./.T W T T T T T T T T p T T T p 3 F n s g.o.s.p.7 : - > =XOX{.(.7XXXO.T ~ } ~ E.OX#X$X+XOX-XZ.",
"K.XXR.S.'.$.@.[ T ] @.<./.%.] [ I.^ Q u T T T p T p Y p T T T T T 3 F n s h.m.s.e.b.@ # 7 J.'.L.P.L.~ [ p ~ @.~ W @.$.2.H.5._.w ",
"~ ;.7.P.P.F.F.F.P.H.5./.P.P.L.7.9.P.J.W Y T T T T T T T T T T p T @ S V d n.G u.e.a.A C u J.F.P.P.%.#.J.~ y @.P.J.S.F.I.K.I.u 0 ",
"` 2X5X4X2X5X5X<XXXP.,XF.R.1.(./.'.:.1XY Y Y T T T T T T T T T T T 3 S S d t.k.u.e.f.t.d.R /.-.-.'.P.}./.XX1 3.|.#X<XiX}.+XP.I.9 ",
"0.<X$X$X}.R.H.A.#X7.=X@.'.7.-.3.5.$.9XY T p T T p T T T T T T T T 3 u.u.d i.o.d.e.a.A s.i e /.2.8.8.,.@.5.> +.W.+X=X XOX=XW.2X! ",
"1.2X-X$X+X*X3X;X<X3.,XA.K / -.#.' $.9Xr T T T T T T T p T p T p I 5 u.a d r.G d.e.i.A d.p W Q ^ q.] +.] ;.< C.-X.X.X$X.X{.F._.$.",
"*.OXQ.&XOXOX$X-X:X3.,XA.F.=XF.<X8.[ XXW Y T T T T T T T T T T I Y % ..n d r.G s.e.f.D B.p ^ @.8.}.sXF.2.2.> >.,X<X.X.XW.>.S.7.$.",
"<.G.H.R.,XOX X=X0X3.(.7.' @.} $.' W 1XY T p T Y T T T I T T T Y Y < X.C n M.S x.p.v.r.s.i ^ ~ / @.[ } ~ ;.9 >.7X0X}.R.^.5XOXS.Y ",
"R L.T.7. X*XH.Y.(.7./.,.XXR.9.8.5._.@XQ Y I T p T T p T Y T T p I 5 X.y.a x.u.i.p.p.A s.p W XX}.7.7.2./.;.< +.W.^.).G.R.L.7.+.! ",
"p P Y _ ^ F.{ F.7.@./.<.Q H.,.F.S.+.wXT T T I T T T T Y T T Y Y p 5 ) B ; Z f  .Z  .C | i ^ ~ F.8.K.q.@.'.< @.2.-.^ / @.@.{ ] e ",
"6 4 6 6 4 i q 4 q q 4 [ w.6.6.0.*.4.w.q 6 6 q q 6 q q q q 6 6 q 6 % ; 7 w t = X X - - % w 0.w.0.*.4.( 0.4.u 4 q 6 q 6 6 6 4 6 4 "
};
