/* XPM */
static char *result[] = {
/* columns rows colors chars-per-pixel */
"64 64 237 2 ",
"   c #000000",
".  c #090B1A",
"X  c #191719",
"o  c #1A1A1D",
"O  c #2A1811",
"+  c #1E211F",
"@  c #302916",
"#  c #050D2B",
"$  c #171620",
"%  c #1D1C24",
"&  c #1E1E2A",
"*  c #191D34",
"=  c #251927",
"-  c #221C25",
";  c #231D2A",
":  c #221E37",
">  c #1B222B",
",  c #1D2537",
"<  c #242324",
"1  c #24232B",
"2  c #29272A",
"3  c #2C2D2D",
"4  c #342729",
"5  c #3F362A",
"6  c #242433",
"7  c #282736",
"8  c #2B2D33",
"9  c #24233B",
"0  c #242C3C",
"q  c #2B2E3B",
"w  c #342734",
"e  c #2C3138",
"r  c #2C323D",
"t  c #373836",
"y  c #33353A",
"u  c #422A1E",
"i  c #47291D",
"p  c #46391A",
"a  c #452624",
"s  c #452B23",
"d  c #492C25",
"f  c #46252C",
"g  c #46292B",
"h  c #4B2A2C",
"j  c #473729",
"k  c #54352B",
"l  c #492A33",
"z  c #4D2C32",
"x  c #463936",
"c  c #5B4F1C",
"v  c #624419",
"b  c #49432C",
"n  c #584826",
"m  c #54442A",
"M  c #554C2B",
"N  c #57512B",
"B  c #494434",
"V  c #484437",
"C  c #574632",
"Z  c #554C33",
"A  c #77562E",
"S  c #6A4B3B",
"D  c #774E3C",
"F  c #794E3E",
"G  c #6A5032",
"H  c #7D5A34",
"J  c #79563A",
"K  c #7D6536",
"L  c #1A1A47",
"P  c #262A41",
"I  c #2C3442",
"U  c #2F3842",
"Y  c #2C344A",
"T  c #333644",
"R  c #333A45",
"E  c #3B3D44",
"W  c #323649",
"Q  c #353C4B",
"!  c #393D4C",
"~  c #2F3751",
"^  c #363B51",
"/  c #393E53",
"(  c #403E4B",
")  c #37424C",
"_  c #3A414D",
"`  c #3C4353",
"'  c #3E4557",
"]  c #45474B",
"[  c #514144",
"{  c #424654",
"}  c #434A55",
"|  c #4C4F56",
" . c #424659",
".. c #454C5B",
"X. c #484E5D",
"o. c #46505D",
"O. c #4A525D",
"+. c #53555E",
"@. c #6A4D46",
"#. c #784C43",
"$. c #6D5246",
"%. c #7B5243",
"&. c #7A5846",
"*. c #6D505B",
"=. c #7A5955",
"-. c #7C7451",
";. c #454C61",
":. c #494E62",
">. c #4C5363",
",. c #4C5767",
"<. c #4E5469",
"1. c #515665",
"2. c #535A67",
"3. c #595D65",
"4. c #50566B",
"5. c #545B6B",
"6. c #595E6B",
"7. c #565C73",
"8. c #595E73",
"9. c #595D7A",
"0. c #5A616E",
"q. c #5B6274",
"w. c #5B6474",
"e. c #5D647A",
"r. c #646975",
"t. c #686B77",
"y. c #61677C",
"u. c #646B7D",
"i. c #6A727E",
"p. c #70737A",
"a. c #8A562B",
"s. c #855D2D",
"d. c #8A5B2E",
"f. c #935D2E",
"g. c #835535",
"h. c #8C5635",
"j. c #845B34",
"k. c #8C5A34",
"l. c #84563A",
"z. c #8E553C",
"x. c #855C3C",
"c. c #8C5A3A",
"v. c #905A36",
"b. c #90563A",
"n. c #905A3B",
"m. c #88632D",
"M. c #8C6435",
"N. c #8D6B35",
"B. c #846738",
"V. c #8E643A",
"C. c #8E6B3B",
"Z. c #906635",
"A. c #926B35",
"S. c #92643C",
"D. c #926A3B",
"F. c #91723B",
"G. c #875946",
"H. c #876545",
"J. c #936842",
"K. c #896F50",
"L. c #846763",
"P. c #93887C",
"I. c #5F6481",
"U. c #666C82",
"Y. c #696E84",
"T. c #676E89",
"R. c #6B7284",
"E. c #6D738B",
"W. c #6F7888",
"Q. c #777B87",
"!. c #71768C",
"~. c #737A8C",
"^. c #6F7590",
"/. c #717792",
"(. c #757B94",
"). c #797E96",
"_. c #767D99",
"`. c #797F9A",
"'. c #7B818D",
"]. c #778096",
"[. c #7C8395",
"{. c #7C839C",
"}. c #7E84A1",
"|. c #828896",
" X c #80869C",
".X c #838A9D",
"XX c #8A919E",
"oX c #929095",
"OX c #B09D9A",
"+X c #A7A59B",
"@X c #8186A2",
"#X c #848BA4",
"$X c #898EA5",
"%X c #868DA9",
"&X c #898EAA",
"*X c #8B92A5",
"=X c #8993AC",
"-X c #8C92AD",
";X c #9297A5",
":X c #9196AD",
">X c #939AAD",
",X c #888FB0",
"<X c #8E94B1",
"1X c #8E98B4",
"2X c #9196B2",
"3X c #959BB3",
"4X c #999EB4",
"5X c #959CB8",
"6X c #999EBA",
"7X c #9AA1B5",
"8X c #9CA3BC",
"9X c #A9A9A9",
"0X c #A1A7BC",
"qX c #A3AAB9",
"wX c #A3AABD",
"eX c #9EA5C1",
"rX c #A1A6C3",
"tX c #A5ABC4",
"yX c #A9AEC6",
"uX c #A6ADC9",
"iX c #A9AECA",
"pX c #ACB1C5",
"aX c #ADB3CB",
"sX c #B6B8C6",
"dX c #B2B6CC",
"fX c #B3B9CD",
"gX c #B9BACD",
"hX c #AAAFD0",
"jX c #AEB5D1",
"kX c #B1B7D2",
"lX c #B5BBD2",
"zX c #B9BDD3",
"xX c #B6BCD9",
"cX c #BBC2D6",
"vX c #BBC2D9",
"bX c #C0C0CE",
"nX c #C1C6DA",
/* pixels */
"bXzXgXzXfX|.t.E q :XzXzXzXzXzXyXlXfXgXgXsX6.r.R r sXsXgXzXcXgX0XgXzXfXgXpX} 6.e ] gXfXfXdXgXgXpXzXgXgXgXsXq.| y 6.sXsXzXdXlXzX( ",
">X-X-X&X&X2X$XY.XX6X3X#X:XrX-X8X-X-X&X-X-X-X3XY lX8X8X`.%XuX-XeX-X&X<X-X2X%X7X9 cX8X8X{.3X8X%X6X%X-X=X=X<X#X0X0 yX6XrX#X6X:X%X{ ",
">X<X<X<X<X,X>X XQ.0XeX2X&X&X-X<X&X<X<X<X%X<X-XR.3X%X0X-X%X<X&X-X%X-X=X=X<X2X>X5.qX=X8X-X-X-X<X<X<X<X-X<X-X<X*X/ tX4XuX<X5X&X2XT ",
"4X#X%X-X%X0X$X*Xu.rX&X<X<X-X<X-X,X5X<X<X_.rX:X{..X2X-X-X<X-X<X-X-X8X<X-X@X8X:X/.:X<X<X-X<X-X-X<X%X8X<X&X-X-X*X5.tX2X<X&X-X-X:XW ",
"4X8X:X%X{.{. X>.i.-X1X=X<X-X<X<X-X2X<X#X#X:XlXX.-X$X:X<X<X<X<X-X-X%X-X{. X:XfX} >X-X<X<X<X<X=X-X6X%X<X{.).Y.'.` =X-X&X<X-X<X,XW ",
"4X%X/._.U.tXw.O.i.=X1X<X-X-X-X%X=X#X/.(..XfX|.,.$X:X-X&X%X2X2X:X:X X!.T.:XaX[.X.*X-X-X<X-X=X<X$X&X`./.e.3X[.w.Q *X-X-X-X,X-X&X! ",
"~.(.{.{.wXw.;.o.r Y.e.e.:X}.{.U.).rX{.{.3X>...| r U.4.4.7.$X$X%X#X$X X;.y.O.O.O.) U.e.T.$XE.3X7._.eX`.0X~.>.O.` 5.u.U.}.{.U.:X= ",
"t.i./ W Q R Q I 0 U ) ' I ! ! ` R.6.R I Q Q ) R 0 *XkXlXxX8X6XeXeX8X8XrXxX*Xu.0 U ) ) ..Q / ) O.Q.:.R R Q R Q 0 0 R _ ! R y } % ",
"E 7XaXkXfXlXfXtX7XcXdXwX4X!..X! ` dXsXgXcXR.Q .X} lX-X5X<X-X,X#X%X<X<X(.&X0X5.;XI !.fX;X7XE.t.R 6.pXlXfXfXkXfX>XyXlXzX3X0X;X` o ",
"t.8X<X-X#X{.].`.-X}.6X-X-X>X3X:.3X>X*XE.o.{.fXaX{.E.fX-X}.#X-X<XyXE.E.%Xu.;.^ {.lX$X9 E.:X$XpXr 0X3X=X<X(.{.].%X%X3X8X&X%X!.3XX ",
"t.dX<X<X<X5XuX3X8X<X-X2X<X:XE.[.8X:Xe.u.0XdX8X%X~.P aX3X<X%X#XaXR.E.-X;.w.1.U.aXkX:X8X].Y <X~.0 cX%X<X=X-XuXuX8X-X<X-X<X{.@X*Xq ",
"6.$X1X-X-X-X=X=X=X-X-X%X(.e.e.E.#X<.y.dXcX8X<X,X/.[.w.^.1X5Xe.e.w.e.e.,.o.` R.3XkX-X3X-X8XY 8.R #X2X=X=X<X%X=X=X-X-X`._.U.7.R.q ",
"0.`.E.{.2X<X&XeXkX3X{.=X{.8X(.U.>.q.kX8X1X=X=XpX8XE.R ` 5.Q ` _ _ :.R | 1.~.xXiX-X-X-X<X1X}.0 Y *X(.E.2X<X<X-XuXjX%X%Xe.8X).E.2 ",
"} E.E.U.8X0X_.).}.%X].E.E.U.y.4.6.dX-X-X{.-X(.T.^.<.P < 1 < ; > 1 & 6 ; & >.*XyX=X3X_.{.-X~.~.R u.!.~.E.pX X(.#X}.].).~.Y.!.,.1 ",
"R  .;.q.q.~.y.E.W.w.8.<.q.>.>.8.xX[.-X%X@XkX&XE.' 1 - M m S 5 $.K.%.J @ j x t ).kX/.#X-X1X'.0.*XR o.5.7.R.r.~.E.U.7.<.7.5.O.>.% ",
"y I P r r I r O._ W I ! ! ` I 4X3X#X).).-Xe...7 1 5 m M.h.B.p x.C.c.G.i H K n < !.@X^.E.{.} O.>.r.R q r r R ` _ ) 0 R Q R I 0 X ",
"nXzXzXlXlX{.:XI 8 aXlXzXcXO..X! ,.8.e.W.w.4.9 < C g A j.h.C.s V.D.z.Z.u h.m.k.n @ R.,.'.R./ } 0 *Xe. XgXpX$X1.W ).zXlXkXxXlXxX! ",
"3X<X-X=X<X=X{.w.XXrX{.-X:.R.cXlX.X;.X.>.<.6 1 j H.z H m.h.C.s H N.z.Z.a c.A.S.F b e w...2.! 4XfXtX#XI (.-X*X|.0 8X<X2X5XrX&X-X! ",
"3X-X<X=X<X<X=XR.~.8X-XE.0 kX0X>X3X[.X.Y 9 7 j B.k.z g.s.k.D.s G.N.z.D.u n.A.D.H.Z Z 3 ) > kXlXyX<X<Xw.I :X-X*XY 0X3X5X&X2X&X-XT ",
"3X}.=X*X%XaX-X*XR.eX:XU.-X6X%X1X-X-XE.` > O n D.h.l H s.k.k.u V.D.h.D.u n.A.C.H.Z x.S 3.fX3XiX&X-X5X*XY ~.>X>Xw.8X=X<X-X<X:X-XW ",
"3X1X<X}.}.:X X>.i.=X:X` 8X<X{.%X<X<XT.P 6 j l.C.l.l H D.S.d.5 x.A.z.A.u n.A.Z.&.Z D.H V %XlX%X%X-XrXE.r.<./.[.! %X-X<X-X-X<X&XT ",
">X#X~.].~.kX<.>.~.%X*X` qX&X<X-X/.).E.P < l l.M.c.h l.S.v.k.u G.M.c.S.u c.V.N.G.N A.H b y.lX/. X-X2XE.5.I XXw.) *X&X-X-X2X<X<X( ",
"i.[..X[.qXO.O.5.U 5.7.I 3X-X2X/.{.E.4., B l l.Z.k.d x.k.c.v.u V.N.z.h.u c.k.N.H.M F.m.p  .&XrX%X`.2XT.t.R >.+._ X.2.<.#X).6.:X$ ",
"_ ~ Y Y r 0 0 0 0 0 I  .-X-X%X-X-XY.Q 1 b l c.D.h.h l.h.Z.s.s x.A.c.k.u c.h.N.&.n C.m.J 8 _.).-X-X!.9.O.I } 0 , P I I W , 6 W X ",
"{ 3XzXcXlXlXzXtX&XxXzX/ >.E.1.2.,.1.P < m d l.Z.c.h l.h.c.N.i x.A.c.k.u n.v.N.J N N.s.A 4 >.w.~.'.T.W.u.R ` vX%X8XvXaX-X>X~.! % ",
"i.8X-X=X}._.^./.-X-X4X>.I P 0 P I T 6 1 n h l.M.M.d G.S.v.N.s x.D.c.v.@ n.k.B.F n A.a.D.V ) , 0 , , ^ U U ,._.}.-XrX-X<X-X` >Xo ",
"r.yX-X-X&XrXxXrXrX2XW.! zXdXwXxX#X).> 1 v d l.k.D.h g.Z.v.M.g x.v.h.k.u h.G.+XL.m OXS.P.7 zXkXdXyX=X:XI r o.vXeX-X-X<X-XE.(.$Xq ",
"6.-X-X-X-X<X<X&X2X:XY.[.4X2X2X&X-X_./ < G a G.z.f.O G.S.N.k.g x.h.h.k.u =.  # w < . L.P.P xXpX=X=X:X{.XXU ` <X=X=X<X{._.7.8.U.q ",
"3._.E.{.-X-X%X8XkX0XY. X0X&XxX X2X/.^ ; F 9XX %.A 9X% K.D.c.d x.v.k.h.u E ; { 7 9 { - _ : vX<X-X(.8X#X;XU ` -XjXjX&X%X7.lX X!.1 ",
"T E./.e.1XrXE.E.`.2X8.*X&X2X&X&X`.7. .: $ 1X; *   L ; 4 J.b.a B.h.k.h.u G.= : = 1 1 [ 2 7 rXT.2X3X1X].E.R { T.#X{.{./.E./.~.>.& ",
"E E _ 2.2.XXr.W.~.4.{ *X$X2X&X@XkX9.T : > 9 , P : : : 2 H.k.a x.D.b.z.a g.g.@ n m M c b q ).{. X2X-X!.>.R { E.E.e.0.O.1.>.O.O.% ",
"E I I W Y W Y ! T I I (.).:XR. X XW.7 : C 6 + V C 1 1 x C.c.a x.Z.G.z.u n.a.J.%.N K C.n y :.W.~.!.>.q.1.U R I I U U r I Y I 0 X ",
"nXzXxXlXcX(.wX9 > fX[.' 5.4.>.>.2.T 6 > H j m n v.C b H J.z.a x.D.b.b.i c.M.h.#.M k.A.G.5 ) O.,.O.>.,.! R XX| U '.dXkXzXfXfXlXT ",
">X&X-X<X3X-X.X,..XtXw.! yXlX7XdXU.} 8 2 j.d l.k.s.i H d.F.S.d x.S.b.G.u c.N.M.D N k.N.M.B Y fXfXqXlXfXr U Q.i.0 :X&X#XuX8X-X2XT ",
"3X:X<X<X<X<X:XY.i.8XR. XsX3X<X%X=X). .V m.h G.v.A.i J k.m.J.a G.D.b.G.i c.Z.k.&.M k.N.B.B lXxX-X-X-X$X;XI | -XY eX=X1X-X-X&X-XT ",
"3X@X%X-X}.lX3X*Xi.8XR.{.-X<X1X%X&XE.^ b B.z H M.A.d l.C.M.C.d x.D.z.b.u k.N.m.G.N h.V.K +.uX2X-X=X-X-X:XR _ 3X5.yX=X<X-X-X:X-XT ",
"4X<X%X@X%X>X[.>.R.$XR.i.<X-X<X%X<X^.^ b B.z j.M.A.s x.C.C.C.j B.D.c.z.u k.N.s.&.N k.V.K } uX=X-X-X-X=X2XU I [.) &X:X-X-X<X<X,XW ",
";X#X/./.[.fX' :.i.=XR.,.2X1X3X`.E.E.^ B B.z j.m.A.a x.V.C.N.s x.A.c.c.u c.N.d.F M C.k.K } iX%X%X_.<XeX.XR ..>.R :X-X-X-X2X-X-X( ",
"e.}. X{.8X2...>.W <.>.u.<X}.#X/.E.w.P B K h g.d.A.s l.k.C.N.d G.D.n.J.u c.N.k.J M F.j.H _ E.<X<X&X}.{.1Xy | o.) } ,.<. X).4.:X$ ",
"8 , / / ^ Q ` / ) ) | 0 ;X*X*Xt.R.,.r x H d l.V.F.s G.d.N.D.s j.S.b.S.u x.A.s.#.M A.m.A b Q.E.[.~.E.*X[.R _ R ` ` Q !  .Q ! q X ",
") >XlXvXkXlXkXrX-XlX'.` X.,.2.<.>.Y 7 B H d g.O H.i c.Z.D.C.d c.D.b.S.a c.N.s.F M C.m.a.S Y X.~.~.!./.W T ;XzX*X0XfXzX:X2X!.} % ",
"t.8X-X<X{.E.E.E.-X3Xr.i.kXcXcXvXcX0X0 B H a G . K.d c.S.D.C.d x.D.c.J.@ c.M.s.%.M C.M.l.B e.vXnXvXvXvXR.R 2.^.}.2XiX@X2X&X/ 4X$ ",
"t.pX3X-X-XrXkXeX0X-Xq..XlX$X%X%X:X-XW B g.( oX# X z l.Z.C.C.d B.V.z.J.a x.M.d.F M N.Z.G.% vXfX%X-X<X-X:Xr Q jXuX&X2X<X-X!.(.$Xq ",
"0.*X&X<X-X-X-X2X:X-Xq. X6X2X:X<X2X_.W B l.OX. , 1 7 G.s.B.F.d c.k.b.S.u c.k.d.F N N.m.D y lXeX<X&X<X-X.XT } /.<X2X&X`._.<.q.Y.q ",
"6.E.E.].-X#X<XeXkX8XO.{.1X-X1X].(.E.W V %.1 M x.F.> m k.M.J.d x.b.k.S.u n.D.N.D M N.Z.n ] 8X<X<X<X-X-X{.R | ^.jXkX-X@Xe.kX XY.; ",
"T /.!.w.#XtXT.Y.{.3XO.U.2X5X8X=XjX<.9 V H.= x.v.K.  m g.h.Z.s x.n.D.k.u n.D.N.F n N.n.n ` 8X<X}.&X-XE.#XI ] 7.}.@X(.!.!.E.R.>.1 ",
"t R T O.:. Xw.E.E.5.>.u.`.@X&X8X{.,.E V g.4 O K.+X2 n c.k.k.s V.b.h.h.u z.D.N.J M C.S.n } =X=X-X{.}.E.-XU } R.W.q.:.,.>.>.>.>.o ",
"] ` _ _ _ Q Q r I R O.r -X%XvX;.w.E.! x j.z 2 6 X x l.v.V.h.s G.G.v.h.s c.M.N.F M N.S.H < 3XE.-X-X^.E.>.R r I T q ! _ ! Q _ R o ",
"lXkXkXaXdX[.wX0 0 fXgX) 2XR.R.0.,.O.Q x j.z J v v d x.h.V.V.d x.c.v.h.u z.M.m.F M V.S.V.x .X~.>.X.>.>.' _ |.2.Q [.fXaXaXxXpXaXT ",
"3X<X-X-X2X&X#X,..XpX6.} ` ` ' ` W ! 0 x l.z l.V.D.l x.h.c.C.s x.n.v.g.i c.D.B.D Z N.k.S.V ! ` / ;.{ ' ! U | Q.P 7X-X%XiX8X<X2XT ",
"3X=X-X=X1X<X-XU.u.8Xq.u.dXkXdXaX`.(.! x g.z G.S.J.f g.h.c.N.d x.G.v.h.u v.J.-.#.M K v.B.1 vXdXpXpXfX$X8XR } *XY pX=X<X-X2X-X2XW ",
"8X%X%X<X}.lX3X$XR.0Xw.[.4X-X-X<X&X/.} V H z l.S.C.l j.h.c.C.d x.b.Z.k.u G.9X. *.Z   G.t 9 xXuX<X-X-X1X:X) _ 7X5.8X=X<X-X-X:X-XT ",
"2X&X%X{.@X=X|.:.i.%X8.|.8X%X:X X!.!...V l.z l.D.M.f x.h.S.C.s V.b.S.v.u ;X6 .X9 0  X= & q hXrX-X%XrX,X/.R r ~.) $X:X2X-X-X-X<XW ",
"4X{.E.E..XpX .>.u.:Xe.E.=X:X_.%X{.@X! x l.h g.A.c.g x.h.k.S.u G.G.Z.v.a G.< : : 6 > 1 & 9 -X:X%X{.rX*XX.R { o.! *X-X-X<X2X-X<X! ",
"p..X).~.XX>.>.X.T  .>.w..X2.X.| |.} ! t l.z h.M.c.l x.k.c.M.i x.b.N.z.u J.=.> [ 3 @ M x T !.%X].{.{.` >.T } O.Q  .>.:.!.E.:..XX ",
"R ` <.5.6.2.4.6.5.2.X.u.2.0.6.>.2.0.8.3 H h z.A.c.g l.M.h.k.i V.G.N.h.a v.N.G &.N A c B 6 6.2.6.5.| X.5.! I } 6.2.2.6.6.3.6.T - ",
"{ rXiXtXyXiXiX6X&X(.>XR.~.4. X`.#X4.0X2 l.l g.s.l.g x.D.b.v.5 x.b.Z.h.i z.d.Z.V.Z k.F.b ,.~.w.,..X'.$X{.7Xr ].#X4X0XlX#X:X$X6.X ",
"p.6X-X:X#X/./.T.<Xu.4X` u.,.} 1.O.` yX2 J g g.M.c.g l.M.v.v.@ x.b.S.f.4 G.f.M.J C S.N.b <.y r...2.1...` '.9 I.}.<XiX%X<X5X<.-X% ",
"r.eX-X2X-X5XiX6X6Xy.4XU.9 / :.,./ :.dX; m k l.Z.h.h j.d.J.d.s V.c.n.v.a x.M.c.&.M S.Z.B <.2.Y ! 2.....} ~.8 ].eX,X-X-X%X`.E. Xq ",
"3.-X@X2X-X-X&X2X3Xy.4XY.R.0X~.wX8.` :X7 m 4 l.Z.h.a j.s.J.k.s x.h.h.v.u n.D.h.B.n J.Z.B ..w.,..X$XvXu.>.~.0 T.1X2X%X@X^.<.U.Y.8 ",
"6.R.E._.2X2X%X6XkXe. XU.X.2.;.5.} ^ wX; B g h.V.V.a H k.c.D.s c.h.h.v.a G.D.S.H.M S.Z.b :.5.' >.:.2.>./ ~.r T.iXhX%X(.u.aX XU.- ",
"T !.!.9.%X8XE./.@Xe.[.8.*X[.R.R.Y.#X3Xq 5 l g.d.c.h H s.c.D.s x.c.n.b.u n.D.V.G.M c.D.b X...*X|.y.u.u..XQ.r 7.{.}.}.E.W.E.U.;.; ",
"E 8 e ] ' '.1.R.u.2.[.>.W q.>.w.8.;.dXq 6 w @.@.$.d @.@.$.$.d @.&.#.$.d #.#.S S k %.&.z } X.T q.1.r.q.:.;XP 0.r.,.' O.O.O.>.X.o ",
"3 3 3 y 8 t t 8 y r 3 +.|.Q.Q.~.t.p.Q.1 < 4 w w w w w w w w w w = ; ; = ; & & = & = ; = { p.|.Q.t.p.+.Q.p.r 3 y e y e 8 8 8 e o "
};
