/* XPM */
static char *result[] = {
/* columns rows colors chars-per-pixel */
"64 64 23 1 ",
"  c #2A2A24",
". c #2B2A24",
"X c #2A2B24",
"o c #2B2B24",
"O c #2A2A25",
"+ c #2B2A25",
"@ c #2A2B25",
"# c #2B2B25",
"$ c #FED86E",
"% c #FFD86E",
"& c #FED96E",
"* c #FFD96E",
"= c #FFD86F",
"- c #FFD96F",
"; c #FAF2D4",
": c #FBF2D4",
"> c #FAF3D4",
", c #FBF3D4",
"< c #FAF2D5",
"1 c #FBF2D5",
"2 c #FAF3D5",
"3 c #FBF3D5",
"4 c None",
/* pixels */
"4444444444444444444444444444444444444444444444444444444444444444",
"4444444444444444444444444444444444444444444444444444444444444444",
"4444444444444444444444444444444444444444444444444444444444444444",
"4444444444444444444444444444444444444444444444444444444444444444",
"4444444444444444444444444444444444444444444444444444444444444444",
"4444444444444444444444444444444444444444444444444444444444444444",
"4444444444444444444444444444444444444444444444444444444444444444",
"4444444444444444444444444444444444444444444444444444444444444444",
"4444444444444444444444444444444444444444444444444444444444444444",
"4444444444444444444444444444444444444444444444444444444444444444",
"4444444444444444444444444444444444444444444444444444444444444444",
"4444444444444444444444444444444444444444444444444444444444444444",
"4444444444444444444444444444444444444444444444444444444444444444",
"44444444444444444444444444444441,;<2::1:;:3444444444444444444444",
"4444444444444444444444444444444<><,32;,>2;<444444444444444444444",
"4444444444444444444444444444444:>231,<;1>:1444444444444444444444",
"4444444444444444444444444444444>>>,<:>131<3444444444444444444444",
"444444444444444444444444444<:2<;2;2%$%%2<;:O.X 44444444444444444",
"444444444444444444444444444:<;;,;<1%%%%>,3<X O.44444444444444444",
"444444444444444444444444444>,12<1<;&%%%21<2    44444444444444444",
"4444444444444444444444444442<>;2><<%%%%;23<O+  44444444444444444",
"444444444444444444444444444;<3<%%%%%**%;<2> . X44444444444444444",
"444444444444444444444444444<2;>%$%%%$=%<,<;O   44444444444444444",
"444444444444444444444444444>;23%%%*%%%%1,,<   X44444444444444444",
"444444444444444444444444444,31:%%%%%%%%1<:,X X 44444444444444444",
"4444444444444444444444422,,<21:$%%%1>;<2<;; o  44444444444444444",
"444444444444444444444443:<><<2<%%%%,<;12;23OO  44444444444444444",
"44444444444444444444444233221%%%%%-3>111;21  O 44444444444444444",
"44444444444444444444444>><;32%%=%%%;<<11321O   44444444444444444",
"44444444444444444442<>>,<<<%%%%%%<11<;;  .  X @44444444444444444",
"44444444444444444443;,<:;;:%%%%%$2<32;<    O   44444444444444444",
"444444444444444444411<12:<;%%%%<<<<2:<3O  +O   44444444444444444",
"44444444444444444443;1>232>%%%%<32<>2;<  .   . 44444444444444444",
"4444444444444444444<;;<%%%%%%%$,>1:. ..O   444444444444444444444",
"44444444444444444442<<2%%%%%%%%1,:;  . o   444444444444444444444",
"444444444444444444422;3%*%%$*%*,,<2X X     444444444444444444444",
"4444444444444444444,;2;%%%%%%%%;;;>       O444444444444444444444",
"4444444444444444444121>%=%%<><3:<:,  . 4444444444444444444444444",
"4444444444444444444<1:<*%%%13;:2<3<   O4444444444444444444444444",
"44444444444444444442;<<%%%%<>;33;21 XXX4444444444444444444444444",
"444444444444444444412<2%%%%11:,2,2<.X.X4444444444444444444444444",
"44444444444444444442><,:11>;,<:.    X  4444444444444444444444444",
"44444444444444444442::31>>13;21.OOX    4444444444444444444444444",
"4444444444444444444<1:1;3:;>:2<@X.    O4444444444444444444444444",
"444444444444444444432<<,12>:,;> O o +  4444444444444444444444444",
"44444444444444444444444@O#@+.X+ o.#44444444444444444444444444444",
"44444444444444444444444X.X@@##@oO#X44444444444444444444444444444",
"44444444444444444444444@OXo++.OO.Oo44444444444444444444444444444",
"44444444444444444444444@o #+@ XOo@X44444444444444444444444444444",
"4444444444444444444444444444444444444444444444444444444444444444",
"4444444444444444444444444444444444444444444444444444444444444444",
"4444444444444444444444444444444444444444444444444444444444444444",
"4444444444444444444444444444444444444444444444444444444444444444",
"4444444444444444444444444444444444444444444444444444444444444444",
"4444444444444444444444444444444444444444444444444444444444444444",
"4444444444444444444444444444444444444444444444444444444444444444",
"4444444444444444444444444444444444444444444444444444444444444444",
"4444444444444444444444444444444444444444444444444444444444444444",
"4444444444444444444444444444444444444444444444444444444444444444",
"4444444444444444444444444444444444444444444444444444444444444444",
"4444444444444444444444444444444444444444444444444444444444444444",
"4444444444444444444444444444444444444444444444444444444444444444",
"4444444444444444444444444444444444444444444444444444444444444444",
"4444444444444444444444444444444444444444444444444444444444444444"
};
