/* XPM */
static char *result[] = {
/* columns rows colors chars-per-pixel */
"64 64 23 1 ",
"  c #2A2A24",
". c #2B2A24",
"X c #2A2B24",
"o c #2B2B24",
"O c #2A2A25",
"+ c #2B2A25",
"@ c #2A2B25",
"# c #2B2B25",
"$ c #546C8E",
"% c #556C8E",
"& c #546D8E",
"* c #556D8E",
"= c #546C8F",
"- c #556C8F",
"; c #FAF2D4",
": c #FBF2D4",
"> c #FAF3D4",
", c #FBF3D4",
"< c #FAF2D5",
"1 c #FBF2D5",
"2 c #FAF3D5",
"3 c #FBF3D5",
"4 c None",
/* pixels */
"4444444444444444444444444444444444444444444444444444444444444444",
"4444444444444444444444444444444444444444444444444444444444444444",
"4444444444444444444444444444444444444444444444444444444444444444",
"4444444444444444444444444444444444444444444444444444444444444444",
"4444444444444444444444444444444444444444444444444444444444444444",
"4444444444444444444444444444444444444444444444444444444444444444",
"4444444444444444444444444444444444444444444444444444444444444444",
"4444444444444444444444444444444444444444444444444444444444444444",
"4444444444444444444444444444444444444444444444444444444444444444",
"4444444444444444444444444444444444444444444444444444444444444444",
"4444444444444444444444444444444444444444444444444444444444444444",
"4444444444444444444444444444444444444444444444444444444444444444",
"4444444444444444444444444444444444444444444444444444444444444444",
"44444444444444444444444,1>:2:><3>><,><24444444444444444444444444",
"444444444444444444444442><,,2;<<>;3>22<4444444444444444444444444",
"44444444444444444444444,;2>;,21>;,1,,,,4444444444444444444444444",
"44444444444444444444444,,3>;3;1,:;>>,,>4444444444444444444444444",
"44444444444444444444444,,:>%-$%%$*%:<>,OO#O444444444444444444444",
"44444444444444444444444,,,,%%%%%-%%:3>,O#O@444444444444444444444",
"44444444444444444444444,2,,%%%%%*=%,:3,OOOO444444444444444444444",
"44444444444444444444444,>,,*-$-%%*%:,,,O O+444444444444444444444",
"44444444444444444444444,3>,%%*%$%%-,,>,OO@ 444444444444444444444",
"444444444444444444444443,:>**%%%%*%>,,>  OO444444444444444444444",
"44444444444444444444444:>3,-%*%-%%%:3,,OO@@444444444444444444444",
"44444444444444444444444,>3,-%%%%%%*,:,:O@+#444444444444444444444",
"44444444444444444444444,>33<:3;>3,;,,:3OOO+444444444444444444444",
"44444444444444444444444,;:::>32;21,1:,3OOoO444444444444444444444",
"44444444444444444444444,33:3<;,1,>;>,:,+@OO444444444444444444444",
"444444444444444444444441,3,:;3;;13:,,:,OOO+444444444444444444444",
"44444444444444444444444,,,,13,,>:,,;,;>OOO+444444444444444444444",
"44444444444444444444444>:,,3>,,,:1,,3,<OOXO444444444444444444444",
"44444444444444444444444,,33,,:,>:332,:3+O .444444444444444444444",
"44444444444444444444444,,3,3,1133,,>,,,OOOO444444444444444444444",
"44444444444444444444444,,3<%%%%%%%%;>,;OOOO444444444444444444444",
"44444444444444444444444>,3,%%%%%*%%3;22++ O444444444444444444444",
"44444444444444444444444,>,,%%*%%%%%>,3;O@OO444444444444444444444",
"44444444444444444444444;,3:%%%%%%*%,:::O@@O444444444444444444444",
"4444444444444444444444423:1%%$$$$%%>,,< ++O444444444444444444444",
"44444444444444444444444;>,,%%&%%%%%:;,,OOO#444444444444444444444",
"44444444444444444444444,:13%%%%%%%%,:,,OO@O444444444444444444444",
"44444444444444444444444,,>;*%%%%%%%:,,,OO@ 444444444444444444444",
"44444444444444444444444,;<;1;,:,,11::,>O+OO444444444444444444444",
"444444444444444444444441,3<:,::<,;<132;OO+O444444444444444444444",
"4444444444444444444444411,>;3<,3;<,:2:>+OO 444444444444444444444",
"44444444444444444444444>1:>;31;1>;;1<<:O@OX444444444444444444444",
"444444444444444444444444444#..  oo+@X#X+#O 444444444444444444444",
"444444444444444444444444444#+Xo+@+# . #+@XO444444444444444444444",
"444444444444444444444444444O## O+O .@OX  .O444444444444444444444",
"444444444444444444444444444+O@@. #+#o@X+o+@444444444444444444444",
"4444444444444444444444444444444444444444444444444444444444444444",
"4444444444444444444444444444444444444444444444444444444444444444",
"4444444444444444444444444444444444444444444444444444444444444444",
"4444444444444444444444444444444444444444444444444444444444444444",
"4444444444444444444444444444444444444444444444444444444444444444",
"4444444444444444444444444444444444444444444444444444444444444444",
"4444444444444444444444444444444444444444444444444444444444444444",
"4444444444444444444444444444444444444444444444444444444444444444",
"4444444444444444444444444444444444444444444444444444444444444444",
"4444444444444444444444444444444444444444444444444444444444444444",
"4444444444444444444444444444444444444444444444444444444444444444",
"4444444444444444444444444444444444444444444444444444444444444444",
"4444444444444444444444444444444444444444444444444444444444444444",
"4444444444444444444444444444444444444444444444444444444444444444",
"4444444444444444444444444444444444444444444444444444444444444444"
};
