/* XPM */
static char *result[] = {
/* columns rows colors chars-per-pixel */
"64 64 24 1 ",
"  c #2A2A24",
". c #2B2A24",
"X c #2A2B24",
"o c #2B2B24",
"O c #2A2A25",
"+ c #2B2A25",
"@ c #2A2B25",
"# c #2B2B25",
"$ c #546C8E",
"% c #556C8E",
"& c #546D8E",
"* c #556D8E",
"= c #546C8F",
"- c #556C8F",
"; c #556D8F",
": c #FAF2D4",
"> c #FBF2D4",
", c #FAF3D4",
"< c #FBF3D4",
"1 c #FAF2D5",
"2 c #FBF2D5",
"3 c #FAF3D5",
"4 c #FBF3D5",
"5 c None",
/* pixels */
"5555555555555555555555555555555555555555555555555555555555555555",
"5555555555555555555555555555555555555555555555555555555555555555",
"5555555555555555555555555555555555555555555555555555555555555555",
"5555555555555555555555555555555555555555555555555555555555555555",
"5555555555555555555555555555555555555555555555555555555555555555",
"5555555555555555555555555555555555555555555555555555555555555555",
"5555555555555555555555555555555555555555555555555555555555555555",
"5555555555555555555555555555555555555555555555555555555555555555",
"5555555555555555555555555555555555555555555555555555555555555555",
"5555555555555555555555555555555555555555555555555555555555555555",
"5555555555555555555555555555555555555555555555555555555555555555",
"5555555555555555555555555555555555555555555555555555555555555555",
"5555555555555555555555555555555555555555555555555555555555555555",
"555555555555555344,:4,,3441:1:>,>13<1::<2>><2,,55555555555555555",
"5555555555555554,33<41,>:2<4,,1142,>:<:1243>24155555555555555555",
"55555555555555514,,1322<31>>:4:<>243:1,,,,><42:55555555555555555",
"555555555555555<:>,3,344:314>42:>3:14<<4>,3>,2:55555555555555555",
"5555555555555554:44%%%%%%%%%%%%%%%%%$%%%%%%12>3##O+5555555555555",
"55555555555555511<2%%$%%%%%%&%%%%%%%%%%%%$%4212o +#5555555555555",
"555555555555555:<<<%*%%%$%%%%%$%%$%%%%%*%-&,121XXO#5555555555555",
"555555555555555112>%%%%%%%%%%%%%%%%%%%%%%%%3>4>.O@@5555555555555",
"555555555555555<<1:%%%%:>,2<3:,<312>14431,>23><OO@o5555555555555",
"555555555555555>4<:%%%%14322:,3::,32<423<23:3,1X.##5555555555555",
"5555555555555551<>1$%%%1<<2><<33<12443:3214,31,X+o@5555555555555",
"55555555555555514,2%%%%>::>>,2>:23434134>2,<>24#O+X5555555555555",
"555555555555555,<<3%%%%%%%*%%%%%%%%%%%%2,43O + #XXX5555555555555",
"5555555555555554>:1%%%%%%%%%%%%*%%%%*%%3,>4OO OoX#.5555555555555",
"5555555555555551143%%%%%-%%%%%%%%*%%%%%4><<OO@@#O+#5555555555555",
"555555555555555223<%%%&-%*%%%%%-%%%%%%%4>41OO@ OO.#5555555555555",
"5555555555555552<31%%-*$%%$%%%*%%%%%%%*,1<>+O@+55555555555555555",
"555555555555555:>3<%%%%%-$%%%%*-%%%%$%*3:34OO O55555555555555555",
"5555555555555553:14$%%%%%%*%%%%%%%$%%%%:,41OOOO55555555555555555",
"555555555555555:21:-%%%%%*%%$*%%%%%%%%%,241O@OO55555555555555555",
"555555555555555,<1,$$%%<<>2,<:>34<>,>,,12314<1155555555555555555",
"55555555555555543<:$%%%>423,,,<3433:<413:<>>:1,55555555555555555",
"5555555555555553:13%%%%34:<2<<43:1414>>:34>3::155555555555555555",
"5555555555555554,<:=%%%,44>,33423223:1,44414::>55555555555555555",
"555555555555555,44<%%%%%$%%*%%%%%%%%%%%%%%%><<<+@ X5555555555555",
"55555555555555544:,%$%%%%%%%*%%%%%*%%%%%$%%<><3o o@5555555555555",
"555555555555555<<22*%$%%%%*$%%%$;$%*%%-=%%%><,>@O# 5555555555555",
"5555555555555553<42%%=%%%%%%%%%%%$%-%%%*&%-<<<>@X+O5555555555555",
"55555555555555544244443:,213<3<3444134,4><<><:<+O@O5555555555555",
"555555555555555143<431<12,123:11>,<:4:4<<<<>>,<OO@+5555555555555",
"55555555555555534>2124,:>,2,,2>:>14:,:,<<><4>4<@ ++5555555555555",
"555555555555555<2124,<<,>,12>,31:<212<4<<<><3>, OOO5555555555555",
"5555555555555555555@@O# @OO#+@+o+O@.#o.+#XXOOOOO O@5555555555555",
"5555555555555555555OXO+O@ OOX@+O OO@oO## XO OOOO+OO5555555555555",
"5555555555555555555+@OX +OOO+@@+.o O#O@XO#  +O .O@O5555555555555",
"5555555555555555555 OOO OOX+@@.@O o+.O#+#.XO OOO+  5555555555555",
"5555555555555555555555555555555555555555555555555555555555555555",
"5555555555555555555555555555555555555555555555555555555555555555",
"5555555555555555555555555555555555555555555555555555555555555555",
"5555555555555555555555555555555555555555555555555555555555555555",
"5555555555555555555555555555555555555555555555555555555555555555",
"5555555555555555555555555555555555555555555555555555555555555555",
"5555555555555555555555555555555555555555555555555555555555555555",
"5555555555555555555555555555555555555555555555555555555555555555",
"5555555555555555555555555555555555555555555555555555555555555555",
"5555555555555555555555555555555555555555555555555555555555555555",
"5555555555555555555555555555555555555555555555555555555555555555",
"5555555555555555555555555555555555555555555555555555555555555555",
"5555555555555555555555555555555555555555555555555555555555555555",
"5555555555555555555555555555555555555555555555555555555555555555",
"5555555555555555555555555555555555555555555555555555555555555555"
};
