/* XPM */
static char *result[] = {
/* columns rows colors chars-per-pixel */
"64 64 22 1 ",
"  c #2A2A24",
". c #2B2A24",
"X c #2A2B24",
"o c #2B2B24",
"O c #2A2A25",
"+ c #2B2A25",
"@ c #2A2B25",
"# c #2B2B25",
"$ c #546C8E",
"% c #556C8E",
"& c #556D8E",
"* c #546C8F",
"= c #556C8F",
"- c #FAF2D4",
"; c #FBF2D4",
": c #FAF3D4",
"> c #FBF3D4",
", c #FAF2D5",
"< c #FBF2D5",
"1 c #FAF3D5",
"2 c #FBF3D5",
"3 c None",
/* pixels */
"3333333333333333333333333333333333333333333333333333333333333333",
"3333333333333333333333333333333333333333333333333333333333333333",
"3333333333333333333333333333333333333333333333333333333333333333",
"3333333333333333333333333333333333333333333333333333333333333333",
"3333333333333333333333333333333333333333333333333333333333333333",
"3333333333333333333333333333333333333333333333333333333333333333",
"3333333333333333333333333333333333333333333333333333333333333333",
"3333333333333333333333333333333333333333333333333333333333333333",
"3333333333333333333333333333333333333333333333333333333333333333",
"3333333333333333333333333333333333333333333333333333333333333333",
"3333333333333333333333333333333333333333333333333333333333333333",
"3333333333333333333333333333333333333333333333333333333333333333",
"3333333333333333333333333333333333333333333333333333333333333333",
"333333333333333:<,>:;:2;:,,2;>1:<122-:>2,<>22<133333333333333333",
"3333333333333332>:>2-:;<2>:2>-;;-1;,1<:;::->>>>33333333333333333",
"333333333333333;-<<22:2<::-<:1<:,-,-::<1>>2>>>>33333333333333333",
"333333333333333:<-2>;>><;1<:;>,-;2-:,>>:-2-><>;33333333333333333",
"333333333333333,-><%%%%%%%%<;-11<:2%%%%&%$%:><2.@O+3333333333333",
"333333333333333>,;>%%%$=%%%2;;:>2;>%%%%%%%=>;1:+ @ 3333333333333",
"3333333333333332,<,%$%%%%%%2><:->;:%%%=%%%%22>1@O@O3333333333333",
"333333333333333-1>-%%%%%%=%;<1;>;>>%%$%%%%&;,::OOO@3333333333333",
"333333333333333::--%%%%%%%%2,><>,;2=%%%%%=%>2,1.o.+3333333333333",
"333333333333333;,1;%%%=%%%%122>,:1-%%$%%%%%2>1>O+X#3333333333333",
"3333333333333332;2:%%%$%%%%:--;2,:2%%%%=%%&1,>> .. 3333333333333",
"333333333333333-2-1%%%%%%%%>>1,:>-,$%%%%%%%1<>,+##@3333333333333",
"333333333333333;2,,%%&=%%$$%%%%%%%%%%%%%%$%;::-X O 3333333333333",
"3333333333333331:,,%%%$%%%$%%%%%%%%&%%%%%%%2:<, .O.3333333333333",
"333333333333333<-<:%%%%%%$%%=%%%%&%%%%%%*&%;<2,@+#.3333333333333",
"333333333333333;;2;%=%=%%%%%%$%$%%%%%%&=%%%:<12 o .3333333333333",
"3333333333333331;>2%%%%<-:>%%%*%%%%:;;<%%%%,2>:o.@.3333333333333",
"333333333333333-,<<%%$%1>::%%&%%%%%--;;%%=&--:1#..O3333333333333",
"333333333333333;;><%%%%21>:%%%=%%*%2>1>&%%%-:<,OXo.3333333333333",
"333333333333333>22>%%%%;::>%%%%%%%%::<1%=%%,;<1XO#@3333333333333",
"333333333333333>--<%%%%>,,>,>-,<;1>>12;=%%%-1:;+o#+3333333333333",
"333333333333333<>>>%=%%>:>>;;1:;--,<>>1%$%%,<<:+Oo.3333333333333",
"333333333333333-2;>&%%$2:;-;1;--1,2;>;;=%%%21<2O o 3333333333333",
"333333333333333-1::%%%%2;><,,->>1;>:,;>%%%%:,,,oX.#3333333333333",
"333333333333333;;>;%%$%<;-;O+@O O @2>>2=%%&>2-<.@#.3333333333333",
"333333333333333:12>%%==:-2<+@O#O+O >1>:%&%%,-;:Oo.o3333333333333",
"333333333333333;;::%%%%><1:@.@  OO#,-,<%%%$,--:..o@3333333333333",
"333333333333333:2;;%%%%1:>1OOO@O+O+<2:>$%%%<;,<+OXo3333333333333",
"333333333333333>->>:;<1;:>-O+ O3333>211:>,;:>>>X.oo3333333333333",
"3333333333333332>>>;1<21><<+. O3333>2-->,<12>;:.# #3333333333333",
"333333333333333>>>;;12>1:2-OOOO33332,1;;2:-->>1o#+@3333333333333",
"333333333333333->>:2;1,;1:1OOO 3333,,:1:-;-2>>:O ++3333333333333",
"3333333333333333333OOOO+ O+@XO.33333333X+@+Xo.#O O 3333333333333",
"3333333333333333333+OO O#O oX.o33333333#+X. XOo@OOO3333333333333",
"3333333333333333333+@@Oo+ +.oOO33333333. OO O#OOOOO3333333333333",
"3333333333333333333OXO+o+. O@ +33333333 #X#.. OO+OO3333333333333",
"3333333333333333333333333333333333333333333333333333333333333333",
"3333333333333333333333333333333333333333333333333333333333333333",
"3333333333333333333333333333333333333333333333333333333333333333",
"3333333333333333333333333333333333333333333333333333333333333333",
"3333333333333333333333333333333333333333333333333333333333333333",
"3333333333333333333333333333333333333333333333333333333333333333",
"3333333333333333333333333333333333333333333333333333333333333333",
"3333333333333333333333333333333333333333333333333333333333333333",
"3333333333333333333333333333333333333333333333333333333333333333",
"3333333333333333333333333333333333333333333333333333333333333333",
"3333333333333333333333333333333333333333333333333333333333333333",
"3333333333333333333333333333333333333333333333333333333333333333",
"3333333333333333333333333333333333333333333333333333333333333333",
"3333333333333333333333333333333333333333333333333333333333333333",
"3333333333333333333333333333333333333333333333333333333333333333"
};
