/* XPM */
static char *result[] = {
/* columns rows colors chars-per-pixel */
"64 64 23 1 ",
"  c #2A2A24",
". c #2B2A24",
"X c #2A2B24",
"o c #2B2B24",
"O c #2A2A25",
"+ c #2B2A25",
"@ c #2A2B25",
"# c #2B2B25",
"$ c #546C8E",
"% c #556C8E",
"& c #546D8E",
"* c #556D8E",
"= c #546C8F",
"- c #556C8F",
"; c #FAF2D4",
": c #FBF2D4",
"> c #FAF3D4",
", c #FBF3D4",
"< c #FAF2D5",
"1 c #FBF2D5",
"2 c #FAF3D5",
"3 c #FBF3D5",
"4 c None",
/* pixels */
"4444444444444444444444444444444444444444444444444444444444444444",
"4444444444444444444444444444444444444444444444444444444444444444",
"4444444444444444444444444444444444444444444444444444444444444444",
"4444444444444444444444444444444444444444444444444444444444444444",
"4444444444444444444444444444444444444444444444444444444444444444",
"4444444444444444444444444444444444444444444444444444444444444444",
"4444444444444444444444444444444444444444444444444444444444444444",
"4444444444444444444444444444444444444444444444444444444444444444",
"4444444444444444444444444444444444444444444444444444444444444444",
"4444444444444444444444444444444444444444444444444444444444444444",
"4444444444444444444444444444444444444444444444444444444444444444",
"4444444444444444444444444444444444444444444444444444444444444444",
"4444444444444444444444444444444444444444444444444444444444444444",
"4444444444444444444:<133:,12:,<,2;3,:32<13,444444444444444444444",
"44444444444444444442:<:2<,13>;;<><1:<1;><;;444444444444444444444",
"4444444444444444444,2;22>>;<:;,>;31,>;:<>,1444444444444444444444",
"444444444444444444433>32,;<2,:>;,;22<233;:<444444444444444444444",
"444444444444444>2213>1:%%%%%%$%%$$%%%%%1,:;::>,44444444444444444",
"444444444444444>3;;:;<,%%%%%*-%%%%%%%%%11:,1,,>44444444444444444",
"444444444444444221>,,1:%$%%%%-*%*%%%%%$2>23>3>344444444444444444",
"444444444444444>1;:3>13%**%%%-%%%%%%%%%22>;:;<>44444444444444444",
"444444444444444>3:<&$%%-%%%:<;<,,:,%%%%%$%%>2,2@+++4444444444444",
"444444444444444,<11%%$%%%-%3>3>:33>*$%%$%%%;>,,O##+4444444444444",
"4444444444444442,,2%%%%%%%%>>2:3123%-%%%%%%,2,,OX. 4444444444444",
"444444444444444,:>3%%%%%%%%1>21:,;3%%%$%*%$;3>1@@#@4444444444444",
"44444444444444411:;%%-%%%%%;,:>:,,,$%&%%%%%,>,;@o# 4444444444444",
"444444444444444;;><%%-%%-%%>2,>>333%%%-%%%%>>;<@+#+4444444444444",
"444444444444444;<<3%*%%%%%$>>3<3,,<%%%*%%*%3<,1++O 4444444444444",
"444444444444444>313%%%%*%%%,<>;;>33%%%%%%%*::13OOo@4444444444444",
"4444444444444443;,3%%%%%-%%>,,,;:>,-%%%%%*%,2:2Xoo+4444444444444",
"4444444444444441:2;%%%%%$%%>33,,,,,%%-$%*%%>:>;@#o@4444444444444",
"444444444444444:,<<%$%%%-%%,>1,2,>,%%-*%%%%,;<> oo.4444444444444",
"444444444444444<<,,%%%%*%%%,,3,,,,,%%%%%%&%,122.#@@4444444444444",
"4444444444444443:,,%%%-%%%%13:2:1:,%%%$%%%%<3>:o.o+4444444444444",
"4444444444444443,,,%%%%%%%%:32;:1:2-%%%%%%%<1,>##oo4444444444444",
"4444444444444443,>,%%%%%%%%13,3>,<,%%%%%%%%:2:: ##+4444444444444",
"444444444444444,,,,%%%%%%%%<;21132>%%%%%$%%2>2:+o X4444444444444",
"444444444444444:,;,>;>3-%%%*%%%=%%%%%%%,313,2,2o+o.4444444444444",
"444444444444444,,,,;:>3%%%%%%%%%%$%%%%%:,,23>>2 O+o4444444444444",
"444444444444444,>3:1:21&%%$$%%%%*%%%%$%::,2:;1;o@X#4444444444444",
"444444444444444,>,,2:>2%%%%%%%%%%%%-%%%>:,1;><:oo .4444444444444",
"4444444444444444444>>111223<,,::>1,1,3;>><;@o  O O+4444444444444",
"4444444444444444444;1;,<33;,:21<:<<31<,>>3, +O+ +oO4444444444444",
"4444444444444444444>313>,1,13,,<;<3333>:3>3O.O@o.+#4444444444444",
"44444444444444444443;,22<11<33>1>;:1<2;,<;<  @O@o.X4444444444444",
"44444444444444444444444X.OO+oO. X .@ @O+#X +O.@44444444444444444",
"44444444444444444444444o.+XoX #+OOOO+@+##@. o+@44444444444444444",
"44444444444444444444444O+XXOo+ ..+ .X Oo..+OO#+44444444444444444",
"44444444444444444444444o +++O. @+OO#@@ +oX+.X O44444444444444444",
"4444444444444444444444444444444444444444444444444444444444444444",
"4444444444444444444444444444444444444444444444444444444444444444",
"4444444444444444444444444444444444444444444444444444444444444444",
"4444444444444444444444444444444444444444444444444444444444444444",
"4444444444444444444444444444444444444444444444444444444444444444",
"4444444444444444444444444444444444444444444444444444444444444444",
"4444444444444444444444444444444444444444444444444444444444444444",
"4444444444444444444444444444444444444444444444444444444444444444",
"4444444444444444444444444444444444444444444444444444444444444444",
"4444444444444444444444444444444444444444444444444444444444444444",
"4444444444444444444444444444444444444444444444444444444444444444",
"4444444444444444444444444444444444444444444444444444444444444444",
"4444444444444444444444444444444444444444444444444444444444444444",
"4444444444444444444444444444444444444444444444444444444444444444",
"4444444444444444444444444444444444444444444444444444444444444444"
};
