/* XPM */
static char *result[] = {
/* columns rows colors chars-per-pixel */
"64 64 25 1 ",
"  c #2A2A24",
". c #2B2A24",
"X c #2A2B24",
"o c #2B2B24",
"O c #2A2A25",
"+ c #2B2A25",
"@ c #2A2B25",
"# c #2B2B25",
"$ c #546C8E",
"% c #556C8E",
"& c #546D8E",
"* c #556D8E",
"= c #546C8F",
"- c #556C8F",
"; c #546D8F",
": c #556D8F",
"> c #FAF2D4",
", c #FBF2D4",
"< c #FAF3D4",
"1 c #FBF3D4",
"2 c #FAF2D5",
"3 c #FBF2D5",
"4 c #FAF3D5",
"5 c #FBF3D5",
"6 c None",
/* pixels */
"6666666666666666666666666666666666666666666666666666666666666666",
"6666666666666666666666666666666666666666666666666666666666666666",
"6666666666666666666666666666666666666666666666666666666666666666",
"6666666666666666666666666666666666666666666666666666666666666666",
"6666666666666666666666666666666666666666666666666666666666666666",
"6666666666666666666666666666666666666666666666666666666666666666",
"6666666666666666666666666666666666666666666666666666666666666666",
"6666666666666666666666666666666666666666666666666666666666666666",
"6666666666666666666666666666666666666666666666666666666666666666",
"6666666666666666666666666666666666666666666666666666666666666666",
"6666666666666666666666666666666666666666666666666666666666666666",
"6666666666666666666666666666666666666666666666666666666666666666",
"6666666666666666666666666666666666666666666666666666666666666666",
"6666666666666666666<<,>5544,25123445532,245666666666666666666666",
"6666666666666666666>33<,,5<<1<13524<>2>425<666666666666666666666",
"66666666666666666664,42<2>,<1434324454,5151666666666666666666666",
"666666666666666666645224>2<<,5>3132>4,33,42666666666666666666666",
"6666666666666662,55,5>3%%$%-%%%%%-%%-%%5211OOOO66666666666666666",
"6666666666666664,2121<,%%%%%%%%*%%:-%%%3215@O+ 66666666666666666",
"666666666666666,11,1115%*%%%%%%%%%%%%%%1,55XO O66666666666666666",
"666666666666666>>351144%%%%%%%%*%%%%-%%34,5O+@@66666666666666666",
"666666666666666>5>4%%%%%%%%,3354341,>,2<23<O@OO66666666666666666",
"66666666666666655,2%%%%%%-%43<>>5<4552,1<21O+O@66666666666666666",
"6666666666666661,<2%*%%%*%*413423>>1<241525OOOO66666666666666666",
"666666666666666>3<3%%%%%%=%1122>,,52342235>OO@O66666666666666666",
"666666666666666>51>%%%%%%%%$%%%*%%-%-%%,<52>1<166666666666666666",
"66666666666666613>,%%%-%*%%$%%$%%%%%%%%4,21111166666666666666666",
"66666666666666652<4-%-%---%%$%%%:%%-%%%5,1,113266666666666666666",
"666666666666666541,%*%-%%%%%%%;%%%%%%%%,2251,1166666666666666666",
"6666666666666664><<23>,%%%%%-%%%%%%-%%%$%%%11<1 @@ 6666666666666",
"66666666666666644,,,1,,%*%%$%%%&%%-%%%%%%%%,141OOOO6666666666666",
"6666666666666664<25>243%*%%*%%%%%%%%%%%%%%%1155OOOO6666666666666",
"666666666666666,5>>2<,3%%%%%%%%%%%%%*%%%$%%1511.O@O6666666666666",
"66666666666666666662>311<541<>,5>3,%-*%%%%%311,O+.@6666666666666",
"6666666666666666666,,12<<33335><>21%%%%%-%%<52,O.+o6666666666666",
"66666666666666666662,,<2<3211<242<5*%%$%%%%1>><@OO+6666666666666",
"66666666666666666664>444451>5141<43%$%%%%%$3331@O. 6666666666666",
"666666666666666666613<3%$%%%%%%%%%$%%%%4<<>4,<1.oo@6666666666666",
"6666666666666666666,2,3%$%%%*%%%%%%%%%%5115>4,>@oX 6666666666666",
"66666666666666666662,54*%%$-%%$%%*%*%%%<32<434<##.#6666666666666",
"6666666666666666666,><2%%%%-%-%%%%%%%%%4144>151@#o+6666666666666",
"66666666666666666661355<,>>44<51233,>23425,@ O OOOO6666666666666",
"66666666666666666662>352>>43,251<24<5,3551>OO+@OOOO6666666666666",
"6666666666666666666<41>1<><>3,>1><<3<>13145O OO OOO6666666666666",
"666666666666666666622,4251,<52<2>>5>,53311,O .OoOO+6666666666666",
"66666666666666666666666Xo+@+O#@++XO ...#OXO+XOo66666666666666666",
"66666666666666666666666@@o +X+.  .o.X ..o## +OO66666666666666666",
"66666666666666666666666##+. +@O@#+OO+O O@+.OO@+66666666666666666",
"66666666666666666666666#oX#.oo# #@##@X+#.oXOOOO66666666666666666",
"6666666666666666666666666666666666666666666666666666666666666666",
"6666666666666666666666666666666666666666666666666666666666666666",
"6666666666666666666666666666666666666666666666666666666666666666",
"6666666666666666666666666666666666666666666666666666666666666666",
"6666666666666666666666666666666666666666666666666666666666666666",
"6666666666666666666666666666666666666666666666666666666666666666",
"6666666666666666666666666666666666666666666666666666666666666666",
"6666666666666666666666666666666666666666666666666666666666666666",
"6666666666666666666666666666666666666666666666666666666666666666",
"6666666666666666666666666666666666666666666666666666666666666666",
"6666666666666666666666666666666666666666666666666666666666666666",
"6666666666666666666666666666666666666666666666666666666666666666",
"6666666666666666666666666666666666666666666666666666666666666666",
"6666666666666666666666666666666666666666666666666666666666666666",
"6666666666666666666666666666666666666666666666666666666666666666"
};
