/* XPM */
static char *result[] = {
/* columns rows colors chars-per-pixel */
"64 64 24 1 ",
"  c #2A2A24",
". c #2B2A24",
"X c #2A2B24",
"o c #2B2B24",
"O c #2A2A25",
"+ c #2B2A25",
"@ c #2A2B25",
"# c #2B2B25",
"$ c #546C8E",
"% c #556C8E",
"& c #546D8E",
"* c #556D8E",
"= c #546C8F",
"- c #556C8F",
"; c #556D8F",
": c #FAF2D4",
"> c #FBF2D4",
", c #FAF3D4",
"< c #FBF3D4",
"1 c #FAF2D5",
"2 c #FBF2D5",
"3 c #FAF3D5",
"4 c #FBF3D5",
"5 c None",
/* pixels */
"5555555555555555555555555555555555555555555555555555555555555555",
"5555555555555555555555555555555555555555555555555555555555555555",
"5555555555555555555555555555555555555555555555555555555555555555",
"5555555555555555555555555555555555555555555555555555555555555555",
"5555555555555555555555555555555555555555555555555555555555555555",
"5555555555555555555555555555555555555555555555555555555555555555",
"5555555555555555555555555555555555555555555555555555555555555555",
"5555555555555555555555555555555555555555555555555555555555555555",
"5555555555555555555555555555555555555555555555555555555555555555",
"5555555555555555555555555555555555555555555555555555555555555555",
"5555555555555555555555555555555555555555555555555555555555555555",
"5555555555555555555555555555555555555555555555555555555555555555",
"5555555555555555555555555555555555555555555555555555555555555555",
"555555555555555243>34,3<3>124:,3<1<3:<3>4>,<,>,55555555555555555",
"5555555555555551,<1,:,:12>2343<<41>212:,433:44,55555555555555555",
"555555555555555,>442,11<<4:44413:<4,11,::2<3<>455555555555555555",
"555555555555555,23<111>12124<<4:1,>>24><4422:2355555555555555555",
"555555555555555,332%%%%%%%*421><:,4%%%%%%%%>223.O#.5555555555555",
"555555555555555<,,,%%-%%%%%><<22,<2%%*%%%%%>:22+.+ 5555555555555",
"5555555555555551<:>%%%%%%%%:<<,>:>2%%%%%%%%<:22O@O+5555555555555",
"55555555555555544:,%%%$%%%%:244:<1,%$*%%$%-,2<1+@XX5555555555555",
"5555555555555554,:1%-%%%%%%>314>224%%%%%%$%24,>oo#O5555555555555",
"55555555555555511:2%%%%%%%%:2232>44$%%%%%%%<:32+# O5555555555555",
"5555555555555552434%%%%%*%&2>><1211%%%%%%%$:1<1@o..5555555555555",
"555555555555555:4:1*%%%%%*%142<3141%$%%-%%%<>,<X .X5555555555555",
"555555555555555<144%%%%%%%%1<>14<<<%%-%-%$%23:,OO+o5555555555555",
"55555555555555544>4%%%%%%%%:,3,<43,%%%-%%%%<,23@.O+5555555555555",
"555555555555555234:-*%%%%%*<414<<3<%%%%%%=%>>44X@#@5555555555555",
"5555555555555553>:,%%%%%%$%2<<<12>>%&%%%%-%,424 @.X5555555555555",
"555555555555555,44<%%%%%%%%4<>:>3<<*%%%%-%%<:,3. O+5555555555555",
"5555555555555552<23%%%%%%%%3>>:1,>>%%%$%%%%1123# +O5555555555555",
"555555555555555,>,4%&*%$%%%:43>4232%%%*%%%%3322 X#.5555555555555",
"5555555555555554,<3-%%%%%%%1:22<44:%%%%%%%$:1:3..#@5555555555555",
"555555555555555:>4>422:%-%%%%%%%%%*%%-;344,4>22oO..5555555555555",
"5555555555555552:2<>:14%%%%%%%%-%%%%%%%<,>:<<41++X#5555555555555",
"5555555555555553:>4<,<:%%%%*%%%%%%%**%%,4>>11::O#o#5555555555555",
"555555555555555<>,1<><4%%%%$%$%%%%%*%%%>,3,31<>.@o 5555555555555",
"5555555555555555555<:3,2<>2%%%$%%$%3<>,><23.O Oo#++5555555555555",
"5555555555555555555<<<24<>2%$%$%%%%4,2::>24 OO++ooX5555555555555",
"55555555555555555554<>34>:1$%$*;%%%12,<423<@ OOX@ O5555555555555",
"55555555555555555554>:<>,3:%%%%%%--,321,221XOO #@X.5555555555555",
"555555555555555555555551:<,<<44,,<2213> # OXOO#55555555555555555",
"55555555555555555555555>1:,4,<,3,3<:4,4# @O OO@55555555555555555",
"55555555555555555555555434<33<<4:<:412:  OOO..@55555555555555555",
"5555555555555555555555542:244,:1<<22331.O+@OO@ 55555555555555555",
"555555555555555555555555555OO.O@O#X+OO O O 555555555555555555555",
"555555555555555555555555555OOoO O +O+.O+O O555555555555555555555",
"555555555555555555555555555OO O+O@O OO+ #OO555555555555555555555",
"555555555555555555555555555OXO#OO@+O@@X#OO+555555555555555555555",
"5555555555555555555555555555555555555555555555555555555555555555",
"5555555555555555555555555555555555555555555555555555555555555555",
"5555555555555555555555555555555555555555555555555555555555555555",
"5555555555555555555555555555555555555555555555555555555555555555",
"5555555555555555555555555555555555555555555555555555555555555555",
"5555555555555555555555555555555555555555555555555555555555555555",
"5555555555555555555555555555555555555555555555555555555555555555",
"5555555555555555555555555555555555555555555555555555555555555555",
"5555555555555555555555555555555555555555555555555555555555555555",
"5555555555555555555555555555555555555555555555555555555555555555",
"5555555555555555555555555555555555555555555555555555555555555555",
"5555555555555555555555555555555555555555555555555555555555555555",
"5555555555555555555555555555555555555555555555555555555555555555",
"5555555555555555555555555555555555555555555555555555555555555555",
"5555555555555555555555555555555555555555555555555555555555555555"
};
